<svg width="201" height="133" viewBox="0 0 201 133" fill="none" xmlns="http://www.w3.org/2000/svg">
<path d="M134.897 3.38827C134.859 3.33612 108.676 26.4023 98.9341 56.4379C92.4463 78.888 93.5192 89.9551 92.7605 93.3247C91.5903 98.543 88.0903 104.263 90.775 109.109C93.5285 114.14 97.7964 115.711 101.651 115.711C105.506 115.711 109.774 114.14 112.528 109.109C115.212 104.263 111.469 99.9838 110.298 94.7655C109.593 91.6328 105.747 74.0521 110.298 56.4379C116.641 31.8933 135.181 3.77328 134.897 3.38827Z" stroke="#042F2E" stroke-width="7"/>
<ellipse cx="139.514" cy="48.6553" rx="3.59283" ry="3.59283" stroke="#042F2E" stroke-width="7" stroke-linecap="round" stroke-linejoin="round"/>
<ellipse cx="42.728" cy="86.0095" rx="9.93311" ry="9.93311" stroke="#042F2E" stroke-width="7" stroke-linecap="round" stroke-linejoin="round"/>
<ellipse cx="51.8569" cy="115.343" rx="6.50977" ry="6.50977" stroke="#042F2E" stroke-width="7" stroke-linecap="round" stroke-linejoin="round"/>
<ellipse cx="146.023" cy="115.343" rx="6.50977" ry="6.50977" stroke="#042F2E" stroke-width="7" stroke-linecap="round" stroke-linejoin="round"/>
<ellipse cx="160.24" cy="86.0095" rx="9.93311" ry="9.93311" stroke="#042F2E" stroke-width="7" stroke-linecap="round" stroke-linejoin="round"/>
<ellipse cx="19.9058" cy="48.6553" rx="3.59283" ry="3.59283" stroke="#042F2E" stroke-width="7" stroke-linecap="round" stroke-linejoin="round"/>
<ellipse cx="183.485" cy="48.6553" rx="3.59283" ry="3.59283" stroke="#042F2E" stroke-width="7" stroke-linecap="round" stroke-linejoin="round"/>
<ellipse cx="63.8775" cy="48.6553" rx="3.59283" ry="3.59283" stroke="#042F2E" stroke-width="7" stroke-linecap="round" stroke-linejoin="round"/>
<path d="M4.26123 63.351H73.5537C73.5537 63.351 90.9888 65.8547 82.917 77.1051C74.8447 88.3557 69.6064 99.843 75.0454 114.556C80.4839 129.27 101.236 128.696 101.236 128.696C101.236 128.696 120.855 128.428 128.012 114.556C135.168 100.685 122.674 79.7672 120.258 77.1051C117.843 74.4429 116.096 63.4353 131.204 63.351C146.312 63.2666 196.715 63.351 196.715 63.351" stroke="#042F2E" stroke-width="7" stroke-linecap="round" stroke-linejoin="round"/>
</svg>
