<svg width="145" height="138" viewBox="0 0 145 138" fill="none" xmlns="http://www.w3.org/2000/svg">
<circle cx="130.564" cy="15.0674" r="14.4251" fill="#042F2E"/>
<circle cx="101.714" cy="42.0562" r="14.4251" fill="#042F2E"/>
<circle cx="72.8636" cy="69.0452" r="14.4251" fill="#042F2E"/>
<circle cx="44.0135" cy="96.0342" r="14.4251" fill="#042F2E"/>
<circle cx="15.1634" cy="123.023" r="14.4251" fill="#042F2E"/>
<circle cx="101.248" cy="14.6022" r="10.2372" fill="#042F2E"/>
<circle cx="101.248" cy="68.5799" r="10.2372" fill="#042F2E"/>
<circle cx="130.099" cy="41.5909" r="10.2372" fill="#042F2E"/>
<circle cx="72.3983" cy="41.5909" r="10.2372" fill="#042F2E"/>
<circle cx="72.3983" cy="95.5687" r="10.2372" fill="#042F2E"/>
<circle cx="44.4789" cy="68.5799" r="10.2372" fill="#042F2E"/>
<circle cx="14.6981" cy="95.5687" r="10.2372" fill="#042F2E"/>
<circle cx="44.4789" cy="123.488" r="10.2372" fill="#042F2E"/>
<circle cx="72.3983" cy="14.6022" r="9.30651" fill="#042F2E"/>
<circle cx="72.3983" cy="122.558" r="9.30651" fill="#042F2E"/>
<circle cx="101.248" cy="95.5687" r="9.30651" fill="#042F2E"/>
<circle cx="130.099" cy="68.5799" r="9.30651" fill="#042F2E"/>
<circle cx="43.5482" cy="41.5909" r="9.30651" fill="#042F2E"/>
<circle cx="14.6981" cy="68.5799" r="9.30651" fill="#042F2E"/>
<circle cx="14.6982" cy="41.591" r="6.51456" fill="#042F2E"/>
<circle cx="44.4789" cy="14.6022" r="6.51456" fill="#042F2E"/>
<circle cx="100.318" cy="123.488" r="6.51456" fill="#042F2E"/>
<circle cx="130.099" cy="95.5688" r="6.51456" fill="#042F2E"/>
<circle cx="14.6982" cy="14.6022" r="5.58391" fill="#042F2E"/>
<circle cx="130.099" cy="123.488" r="5.58391" fill="#042F2E"/>
</svg>
