<svg width="193" height="111" viewBox="0 0 193 111" fill="none" xmlns="http://www.w3.org/2000/svg">
<path d="M4.20808 106.842C4.20808 106.842 0.979568 -19.2637 99.21 9.29006C181.733 -22.8281 189.105 106.842 189.105 106.842" stroke="#042F2E" stroke-width="7" stroke-linecap="round" stroke-linejoin="round"/>
<path d="M23.4692 106.841C23.4692 106.841 33.4341 58.0647 90.2563 61.9172C79.4009 54.6174 77.6021 53.4895 75.3442 52.5422C73.0864 51.5969 90.2563 50.4817 90.2563 50.4817C90.2563 50.4817 88.145 39.1467 76.6392 37.5911C84.6802 31.8831 87.5337 33.0901 87.5337 33.0901C87.5337 33.0901 78.106 25.761 76.6392 22.7278C75.1743 19.6946 90.2563 20.303 90.2563 20.303C90.2563 20.303 88.311 9.13696 75.3442 5.5979" stroke="#042F2E" stroke-width="7" stroke-linecap="round" stroke-linejoin="round"/>
<path d="M166.955 106.843C166.955 106.843 161.254 62.4758 109.178 61.9924C120.549 55.55 122.722 53.1575 122.722 53.1575C122.722 53.1575 117.713 49.5266 109.84 51.1731C101.972 52.8206 117 37.6858 121.851 38.1135C116.756 35.0022 111.047 34.1458 111.047 34.1458C111.047 34.1458 118.388 23.9397 122.722 23.679C127.049 23.4202 108.455 20.7366 108.455 20.7366C108.455 20.7366 118.064 5.77075 130.164 5.43384" stroke="#042F2E" stroke-width="7" stroke-linecap="round" stroke-linejoin="round"/>
<path d="M90.7075 72.2377C90.7075 72.2377 85.2739 71.9037 81.6118 76.225" stroke="#042F2E" stroke-width="7" stroke-linecap="round"/>
<path d="M107.038 72.2307C107.038 72.2307 115.657 79.2444 122.596 79.3274" stroke="#042F2E" stroke-width="7" stroke-linecap="round"/>
</svg>
