<svg width="109" height="157" viewBox="0 0 109 157" fill="none" xmlns="http://www.w3.org/2000/svg">
<path d="M81.8103 153.334C81.8103 153.334 69.099 132.482 69.3954 126.397C69.6919 120.308 82.5109 107.648 80.6805 101.674C78.8505 95.7015 67.1667 85.5107 70.5009 76.0472C73.8361 66.5838 82.3607 62.3483 79.1759 52.398C75.9922 42.4496 68.0661 34.4988 69.3954 28.3924C70.724 22.2908 81.8103 4.00002 81.8103 4.00002" stroke="#042F2E" stroke-width="7" stroke-linecap="round" stroke-linejoin="round"/>
<path d="M41.5146 153.334C41.5146 153.334 28.8033 132.482 29.0998 126.397C29.3962 120.308 42.2152 107.648 40.3848 101.674C38.5549 95.7015 26.8711 85.5107 30.2053 76.0472C33.5405 66.5838 42.065 62.3483 38.8803 52.398C35.6965 42.4496 27.7705 34.4988 29.0998 28.3924C30.4284 22.2908 41.5146 4.00002 41.5146 4.00002" stroke="#042F2E" stroke-width="7" stroke-linecap="round" stroke-linejoin="round"/>
<ellipse cx="100.56" cy="122.79" rx="4.25641" ry="4.01994" transform="rotate(-90 100.56 122.79)" stroke="#042F2E" stroke-width="7" stroke-linecap="round" stroke-linejoin="round"/>
<ellipse cx="100.56" cy="78.1881" rx="4.25641" ry="4.01994" transform="rotate(-90 100.56 78.1881)" stroke="#042F2E" stroke-width="7" stroke-linecap="round" stroke-linejoin="round"/>
<circle cx="8.01994" cy="52.6819" r="4.01994" transform="rotate(-90 8.01994 52.6819)" stroke="#042F2E" stroke-width="7" stroke-linecap="round" stroke-linejoin="round"/>
<circle cx="8.01994" cy="104.041" r="4.01994" transform="rotate(-90 8.01994 104.041)" stroke="#042F2E" stroke-width="7" stroke-linecap="round" stroke-linejoin="round"/>
<ellipse cx="100.56" cy="33.3815" rx="4.25641" ry="4.01994" transform="rotate(-90 100.56 33.3815)" stroke="#042F2E" stroke-width="7" stroke-linecap="round" stroke-linejoin="round"/>
</svg>
