<svg width="238" height="393" viewBox="0 0 238 393" fill="none" xmlns="http://www.w3.org/2000/svg">
<path d="M77.2607 240.733C78.7561 240.643 80.2452 240.544 81.7424 240.285C84.0761 239.881 86.4496 239.434 88.8158 239.296C90.5909 239.192 92.3814 239.267 94.1258 239.552C94.2788 239.694 94.4299 239.839 94.5802 239.985C95.8792 241.252 97.0442 242.666 98.1133 244.151C99.3263 244.955 100.428 245.967 101.374 247.217C104.197 250.947 105.595 255.642 107.08 260.014C109.091 265.929 111.375 271.785 112.43 277.969C113.419 283.761 113.516 290.304 109.7 295.133C106.615 299.037 101.593 301.672 100.853 307.015C100.368 310.517 101.518 314.03 100.927 317.537C100.653 319.157 99.8305 320.733 99.0348 322.156C98.2074 323.633 97.2406 325.026 96.2051 326.364C86.3771 339.061 76.0586 352.422 69.3165 367.101C68.6113 368.641 68.1189 370.396 68.1153 372.077C68.3343 372.243 68.5434 372.417 68.7725 372.573C72.4965 375.103 77.0063 376.279 81.4202 376.873C92.0963 378.313 103.165 376.815 113.676 374.847C122.71 373.156 131.576 370.764 140.479 368.514C157.792 364.139 187.95 395.495 203.868 387.358C214.4 381.973 224.394 375.591 233.641 368.253C228.135 349.879 206.825 294.543 196.628 278.691C190.426 269.052 183.67 259.421 180.168 248.389C177.88 241.183 177.16 233.295 179.382 226.068C180.005 224.042 180.819 222.062 181.79 220.124C188.312 207.091 201.822 195.949 210.777 185.24C215.179 179.975 219.374 174.422 222.429 168.25C225.801 161.432 228.401 154.247 230.183 146.854C233.755 132.025 234.195 116.625 231.847 101.568C229.511 86.5989 224.358 72.0693 216.855 58.911C209.413 45.8587 199.5 34.1597 187.637 24.9156C174.393 14.5943 158.651 7.46753 142.012 4.97548C122.749 2.09055 103.106 4.88767 84.9478 11.7347C75.9454 15.1293 67.2227 19.5404 59.2143 24.8812C50.8338 30.4691 43.7432 37.9055 37.7271 45.9348C33.2961 51.8485 29.2751 58.3073 26.5196 65.1942C25.351 68.1171 24.444 71.1614 23.6084 74.1929C22.982 76.4669 22.3782 78.8322 22.1845 81.2075C21.1834 85.7906 20.6502 90.4642 20.7751 95.1994C21.0123 104.196 23.4618 112.912 25.0722 121.726C26.2852 128.366 24.692 137.186 21.3554 143.235C18.6895 148.069 15.199 150.859 10.1877 152.991C3.57688 155.805 2.56123 162.029 7.30638 167.362C10.4909 170.937 15.6018 172.761 19.2589 175.835C20.8023 177.132 22.8897 178.912 23.2292 181.042C24.0927 186.472 14.3761 188.226 19.4309 193.455C21.0775 195.159 24.0194 196.019 24.787 198.454C25.9855 202.251 20.1315 207.487 25.6877 209.963C30.2048 211.976 31.3806 213.687 32.5438 218.644C35.1961 229.946 36.0018 246.919 51.6457 246.641C54.9145 246.583 58.1153 245.758 61.28 244.938C66.6162 243.555 71.9416 242.152 77.2607 240.733Z" fill="white" stroke="#042F2E" stroke-width="7"/>
<path d="M26.7031 48.2686C26.7031 48.2686 37.3184 55.9883 53.7207 62.7422C70.125 69.498 54.0605 96.5166 66.8926 102.643C79.7266 108.771 80.3535 77.6045 95.5039 51.8398C110.652 26.0752 117.387 5.39551 117.387 5.39551C117.387 5.39551 110.445 7.14062 93.373 7.11426C76.3008 7.08789 26.7031 48.2686 26.7031 48.2686Z" fill="#042F2E" stroke="#042F2E" stroke-width="7"/>
</svg>
