<svg width="238" height="390" viewBox="0 0 238 390" fill="none" xmlns="http://www.w3.org/2000/svg">
<path d="M76.215 239.402C77.6993 239.312 79.1773 239.214 80.6633 238.957C82.9796 238.557 85.3354 238.113 87.684 237.976C89.446 237.873 91.2232 237.946 92.9545 238.229C93.1064 238.371 93.2564 238.514 93.4055 238.66C94.6949 239.917 95.8512 241.32 96.9123 242.795C98.1163 243.592 99.2097 244.597 100.149 245.838C102.951 249.54 104.338 254.2 105.813 258.54C107.808 264.41 110.075 270.222 111.123 276.361C112.104 282.109 112.201 288.603 108.413 293.397C105.351 297.272 100.366 299.887 99.632 305.19C99.1504 308.666 100.292 312.153 99.7048 315.634C99.4334 317.242 98.6167 318.806 97.827 320.218C97.0057 321.684 96.0462 323.067 95.0183 324.395C85.2636 336.998 75.0218 350.26 68.3299 364.829C67.63 366.358 67.1412 368.1 67.1377 369.768C67.3551 369.933 67.5626 370.105 67.79 370.26C71.4863 372.771 75.9625 373.938 80.3435 374.529C90.9401 375.957 101.927 374.471 112.359 372.518C121.326 370.839 130.125 368.465 138.963 366.232C156.146 361.89 186.08 393.012 201.88 384.936C212.333 379.59 222.253 373.255 231.431 365.972C225.966 347.735 204.815 292.811 194.694 277.078C188.538 267.51 181.832 257.951 178.356 247.001C176.085 239.849 175.371 232.019 177.576 224.846C178.194 222.835 179.003 220.87 179.966 218.946C186.439 206.01 199.849 194.952 208.737 184.322C213.106 179.096 217.271 173.585 220.302 167.458C223.65 160.692 226.23 153.56 227.998 146.222C231.544 131.503 231.981 116.218 229.651 101.273C227.332 86.4154 222.217 71.994 214.77 58.9337C207.384 45.9785 197.544 34.3666 185.77 25.1914C172.624 14.9469 157 7.87321 140.484 5.39971C121.364 2.53626 101.867 5.31255 83.8448 12.1086C74.9095 15.4779 66.2518 19.8562 58.3029 25.1572C49.9848 30.7035 42.9471 38.0845 36.9758 46.054C32.5777 51.9238 28.5867 58.3344 25.8517 65.17C24.6918 68.0712 23.7915 71.0928 22.9622 74.1018C22.3405 76.3588 21.7412 78.7065 21.5489 81.0641C20.5552 85.6131 20.026 90.2519 20.15 94.9519C20.3854 103.882 22.8167 112.532 24.4151 121.281C25.619 127.871 24.0377 136.626 20.7259 142.63C18.0799 147.427 14.6154 150.197 9.64139 152.313C3.0798 155.106 2.07172 161.284 6.78153 166.578C9.94238 170.126 15.0152 171.936 18.645 174.987C20.1769 176.275 22.2488 178.041 22.5858 180.155C23.4429 185.545 13.7986 187.286 18.8158 192.476C20.4501 194.167 23.3701 195.021 24.132 197.438C25.3216 201.207 19.5112 206.404 25.026 208.861C29.5094 210.859 30.6765 212.557 31.8311 217.477C34.4636 228.696 35.2633 245.542 50.7908 245.266C54.0352 245.208 57.2122 244.389 60.3533 243.575C65.6498 242.202 70.9355 240.811 76.215 239.402Z" fill="white" stroke="#042F2E" stroke-width="7"/>
<path d="M176.586 198.64L207.857 195.432C207.857 195.432 245.547 128.677 230.223 92.9512C221.602 113.113 191.576 159.037 176.586 162.246C194.16 172.78 176.586 198.64 176.586 198.64Z" fill="#042F2E" stroke="#042F2E" stroke-width="7"/>
</svg>
