<svg width="238" height="393" viewBox="0 0 238 393" fill="none" xmlns="http://www.w3.org/2000/svg">
<path d="M76.759 241.3C78.2544 241.21 79.7435 241.111 81.2407 240.852C83.5744 240.449 85.9479 240.001 88.3141 239.864C90.0893 239.76 91.8798 239.834 93.6242 240.119C93.7772 240.261 93.9283 240.406 94.0786 240.553C95.3776 241.819 96.5426 243.233 97.6117 244.718C98.8247 245.522 99.9263 246.534 100.872 247.784C103.696 251.515 105.093 256.209 106.579 260.581C108.589 266.496 110.873 272.352 111.929 278.536C112.917 284.328 113.015 290.871 109.199 295.7C106.113 299.605 101.091 302.24 100.352 307.582C99.8666 311.085 101.016 314.598 100.425 318.105C100.152 319.725 99.3289 321.3 98.5332 322.723C97.7058 324.2 96.739 325.593 95.7035 326.931C85.8755 339.629 75.5568 352.99 68.8148 367.669C68.1096 369.209 67.6171 370.964 67.6135 372.645C67.8326 372.811 68.0417 372.985 68.2707 373.14C71.9948 375.67 76.5046 376.846 80.9185 377.441C91.5947 378.88 102.664 377.383 113.174 375.415C122.208 373.724 131.074 371.332 139.978 369.082C157.29 364.707 187.448 396.063 203.367 387.926C213.899 382.541 223.893 376.158 233.139 368.82C227.634 350.446 206.324 295.11 196.127 279.259C189.925 269.619 183.169 259.989 179.666 248.957C177.379 241.75 176.659 233.862 178.881 226.635C179.503 224.609 180.318 222.629 181.288 220.691C187.811 207.658 201.321 196.516 210.275 185.807C214.677 180.542 218.873 174.989 221.927 168.817C225.3 161.999 227.9 154.814 229.682 147.421C233.254 132.591 233.694 117.192 231.346 102.134C229.01 87.1656 223.856 72.636 216.354 59.4776C208.912 46.4253 198.999 34.7262 187.136 25.4821C173.892 15.1608 158.15 8.03395 141.51 5.54189C122.247 2.65695 102.604 5.45408 84.4461 12.3012C75.4437 15.6958 66.721 20.1069 58.7125 25.4477C50.332 31.0356 43.2414 38.472 37.2253 46.5013C32.7942 52.4151 28.7732 58.8739 26.0177 65.7608C24.8491 68.6837 23.9421 71.728 23.1066 74.7596C22.4801 77.0335 21.8764 79.3989 21.6826 81.7741C20.6815 86.3573 20.1483 91.0309 20.2732 95.7661C20.5104 104.763 22.9599 113.479 24.5703 122.293C25.7833 128.933 24.1901 137.753 20.8535 143.802C18.1876 148.636 14.6971 151.425 9.68576 153.558C3.07492 156.372 2.05927 162.596 6.80444 167.929C9.989 171.504 15.0999 173.328 18.757 176.402C20.3004 177.7 22.3878 179.479 22.7273 181.609C23.5908 187.04 13.8742 188.793 18.929 194.022C20.5756 195.726 23.5175 196.586 24.2851 199.021C25.4837 202.818 19.6296 208.054 25.1858 210.53C29.7029 212.543 30.8788 214.254 32.042 219.211C34.6943 230.514 35.4999 247.487 51.1439 247.209C54.4127 247.15 57.6136 246.325 60.7782 245.505C66.1145 244.122 71.4399 242.72 76.759 241.3Z" fill="white" stroke="#042F2E" stroke-width="7"/>
<path d="M114.452 9.412C114.452 9.412 104.126 49.3104 82.6064 70.539C61.0908 91.7675 67.5068 106.87 67.5068 106.87C67.5068 106.87 81.9306 109.475 82.6064 117.194C83.2822 124.914 101.231 102.383 109.626 102.383C118.022 102.383 149.864 101.755 158.212 117.194C166.556 132.634 168.438 161.823 179.729 159.941C191.017 158.059 233.138 86.6542 233.138 86.6542C233.138 86.6542 211.62 20.6522 166.895 9.412C122.169 -1.83116 114.452 9.412 114.452 9.412Z" fill="#042F2E" stroke="#042F2E" stroke-width="7"/>
</svg>
