<svg width="238" height="392" viewBox="0 0 238 392" fill="none" xmlns="http://www.w3.org/2000/svg">
<path d="M77.2379 240.347C78.7328 240.257 80.2214 240.158 81.7182 239.899C84.0511 239.496 86.4239 239.049 88.7893 238.911C90.5639 238.807 92.3539 238.881 94.0977 239.166C94.2506 239.309 94.4017 239.453 94.552 239.6C95.8506 240.866 97.0152 242.279 98.0839 243.764C99.2965 244.568 100.398 245.58 101.343 246.829C104.166 250.559 105.563 255.252 107.048 259.622C109.058 265.535 111.341 271.389 112.396 277.572C113.385 283.362 113.482 289.903 109.667 294.73C106.583 298.633 101.562 301.268 100.823 306.608C100.338 310.11 101.487 313.622 100.896 317.127C100.623 318.747 99.8006 320.322 99.0052 321.744C98.178 323.221 97.2116 324.614 96.1763 325.951C86.3515 338.645 76.0361 352.002 69.2962 366.676C68.5912 368.216 68.0989 369.97 68.0953 371.651C68.3143 371.816 68.5234 371.99 68.7523 372.146C72.4752 374.675 76.9836 375.85 81.3961 376.445C92.0688 377.884 103.134 376.387 113.642 374.42C122.673 372.729 131.536 370.337 140.437 368.089C157.744 363.715 187.892 395.061 203.806 386.927C214.335 381.543 224.325 375.163 233.569 367.827C228.065 349.459 206.762 294.14 196.568 278.294C190.368 268.657 183.614 259.03 180.113 248.001C177.826 240.797 177.106 232.912 179.327 225.687C179.95 223.661 180.764 221.682 181.734 219.745C188.254 206.715 201.76 195.578 210.712 184.871C215.113 179.608 219.307 174.057 222.36 167.887C225.732 161.072 228.331 153.888 230.112 146.498C233.683 131.673 234.124 116.278 231.776 101.225C229.441 86.2615 224.289 71.7364 216.789 58.5823C209.349 45.534 199.439 33.8387 187.58 24.5975C174.34 14.2794 158.603 7.15488 141.969 4.6636C122.712 1.77958 103.075 4.57583 84.9225 11.4208C75.923 14.8143 67.2031 19.224 59.1971 24.5631C50.8192 30.1493 43.7309 37.5833 37.7167 45.6101C33.287 51.522 29.2673 57.9787 26.5127 64.8635C25.3444 67.7855 24.4377 70.8288 23.6024 73.8594C22.9762 76.1326 22.3726 78.4972 22.179 80.8717C21.1781 85.4534 20.6451 90.1256 20.77 94.8593C21.0071 103.853 23.4558 112.566 25.0657 121.377C26.2783 128.015 24.6856 136.833 21.35 142.88C18.685 147.712 15.1956 150.501 10.1859 152.633C3.57713 155.446 2.56179 161.668 7.30545 167C10.489 170.573 15.5983 172.397 19.2542 175.47C20.7971 176.767 22.8839 178.546 23.2233 180.675C24.0866 186.104 14.373 187.857 19.4261 193.085C21.0722 194.788 24.0133 195.647 24.7806 198.082C25.9788 201.878 20.1266 207.112 25.6811 209.587C30.1967 211.599 31.3722 213.31 32.535 218.265C35.1865 229.564 35.9919 246.532 51.6309 246.254C54.8987 246.195 58.0985 245.371 61.2622 244.551C66.5967 243.168 71.9205 241.766 77.2379 240.347Z" fill="white" stroke="#042F2E" stroke-width="7"/>
<path d="M78.3457 119.563C78.3457 119.563 80.2734 140.208 72.2188 156.557C75.7402 167.457 90.5469 163.261 90.5469 163.261C90.5469 163.261 101.834 119.515 131.398 127.908C160.967 136.301 138.996 161.779 143.893 171.991C148.787 182.204 149.68 152.698 150.982 168.76C152.283 184.821 150.982 191.284 150.982 191.284C150.982 191.284 165.789 199.339 177.99 198.664C190.193 197.987 196.32 160.995 177.99 163.261C159.664 165.529 168.008 118.647 150.982 113.149C133.955 107.65 114.953 102.538 106.607 105.095C98.2656 107.65 93.209 120.273 81.4277 119.563C79.2559 119.464 78.3457 119.563 78.3457 119.563Z" fill="#042F2E" stroke="#042F2E" stroke-width="7"/>
</svg>
