<svg width="181" height="170" viewBox="0 0 181 170" fill="none" xmlns="http://www.w3.org/2000/svg">
<path d="M90.5 169.491C140.482 169.491 181 167.127 181 164.211C181 161.294 140.482 158.93 90.5 158.93C40.5182 158.93 0 161.294 0 164.211C0 167.127 40.5182 169.491 90.5 169.491Z" fill="#F5F5F5" fill-opacity="0.58"/>
<path d="M150.12 100.841L150.097 100.907L146.797 109.261L145.555 112.405L143.231 108.193L138.652 109.681L143.217 98.1171L146.12 99.2646L149.947 100.776L150.12 100.841Z" fill="#08A7B7"/>
<g opacity="0.2">
<path d="M145.577 110.865L143.584 107.264L139.668 108.538L143.621 98.5275L149.531 100.86L145.577 110.865ZM143.659 107.078L145.554 110.506L149.33 100.944L143.729 98.728L139.948 108.291L143.659 107.078Z" fill="white"/>
</g>
<path opacity="0.2" d="M150.096 100.907L146.796 109.261C145.564 106.345 144.837 103.241 144.644 100.081L146.124 99.2646L149.951 100.776L150.096 100.907Z" fill="black"/>
<path d="M149.344 112.405L151.673 108.193L156.248 109.681L151.683 98.1171L144.779 100.841L149.344 112.405Z" fill="#08A7B7"/>
<g opacity="0.2">
<path d="M145.363 100.86L151.268 98.5275L155.221 108.538L151.305 107.264L149.312 110.865L145.363 100.86ZM154.96 108.291L151.179 98.728L145.578 100.944L149.359 110.506L151.249 107.078L154.96 108.291Z" fill="white"/>
</g>
<path d="M147.449 84.4776L148.266 83.8385L148.957 84.6128L149.872 84.1277L150.413 85.014L151.403 84.7061L151.776 85.6717L152.808 85.5411L152.999 86.558L154.035 86.614L154.045 87.6495L155.053 87.8921L154.88 88.9136L155.828 89.3288L155.473 90.3037L156.332 90.8821L155.809 91.7777L156.551 92.5007L155.879 93.289L156.481 94.1333L155.674 94.7864L156.117 95.724L155.207 96.2231L155.473 97.226L154.493 97.5525L154.572 98.5881L153.55 98.7373L153.447 99.7682L152.411 99.7309L152.122 100.729L151.109 100.505L150.651 101.433L149.695 101.037L149.078 101.867L148.206 101.308L147.449 102.017L146.693 101.308L145.82 101.867L145.204 101.037L144.248 101.433L143.79 100.505L142.777 100.729L142.488 99.7309L141.456 99.7682L141.349 98.7373L140.327 98.5881L140.406 97.5525L139.426 97.226L139.692 96.2231L138.782 95.724L139.225 94.7864L138.418 94.1333L139.02 93.289L138.348 92.5007L139.09 91.7777L138.567 90.8821L139.426 90.3037L139.071 89.3288L140.019 88.9136L139.846 87.8921L140.854 87.6495L140.863 86.614L141.9 86.558L142.096 85.5411L143.123 85.6717L143.496 84.7061L144.486 85.014L145.027 84.1277L145.942 84.6128L146.633 83.8385L147.449 84.4776Z" fill="#08A7B7"/>
<path opacity="0.3" d="M147.449 84.4776L148.266 83.8385L148.957 84.6128L149.872 84.1277L150.413 85.014L151.403 84.7061L151.776 85.6717L152.808 85.5411L152.999 86.558L154.035 86.614L154.045 87.6495L155.053 87.8921L154.88 88.9136L155.828 89.3288L155.473 90.3037L156.332 90.8821L155.809 91.7777L156.551 92.5007L155.879 93.289L156.481 94.1333L155.674 94.7864L156.117 95.724L155.207 96.2231L155.473 97.226L154.493 97.5525L154.572 98.5881L153.55 98.7373L153.447 99.7682L152.411 99.7309L152.122 100.729L151.109 100.505L150.651 101.433L149.695 101.037L149.078 101.867L148.206 101.308L147.449 102.017L146.693 101.308L145.82 101.867L145.204 101.037L144.248 101.433L143.79 100.505L142.777 100.729L142.488 99.7309L141.456 99.7682L141.349 98.7373L140.327 98.5881L140.406 97.5525L139.426 97.226L139.692 96.2231L138.782 95.724L139.225 94.7864L138.418 94.1333L139.02 93.289L138.348 92.5007L139.09 91.7777L138.567 90.8821L139.426 90.3037L139.071 89.3288L140.019 88.9136L139.846 87.8921L140.854 87.6495L140.863 86.614L141.9 86.558L142.096 85.5411L143.123 85.6717L143.496 84.7061L144.486 85.014L145.027 84.1277L145.942 84.6128L146.633 83.8385L147.449 84.4776Z" fill="white"/>
<path opacity="0.3" d="M147.45 100.757C151.778 100.757 155.287 97.2506 155.287 92.9252C155.287 88.5997 151.778 85.0933 147.45 85.0933C143.122 85.0933 139.613 88.5997 139.613 92.9252C139.613 97.2506 143.122 100.757 147.45 100.757Z" fill="white"/>
<path d="M142.744 92.9299C142.744 92.9299 143.374 91.6052 144.191 91.5305C145.764 91.3766 147.369 94.7025 147.369 94.7025C147.369 94.7025 149.054 90.9195 152.532 89.2262C152.532 89.2262 150.515 91.162 148.798 96.2698C148.662 96.6616 146.828 97.2027 146.398 96.9741C145.969 96.7456 144.471 93.3171 142.744 92.9299Z" fill="#08A7B7"/>
<path d="M15.4171 42.9066C14.3529 40.9988 12.2805 40.1312 10.7962 40.9615C9.31186 41.7918 8.96179 44.0122 10.0307 45.9153C11.0996 47.8185 13.1626 48.7141 14.6516 47.8605C16.1406 47.0069 16.486 44.8098 15.4171 42.9066Z" fill="#08A7B7"/>
<path d="M27.5199 36.2312L23.8558 29.4908C23.8558 29.4908 21.298 34.9811 17.6152 37.0382L19.4823 40.3734L19.7763 40.9005L21.6434 44.2451C25.3214 42.188 31.3426 42.8783 31.3426 42.8783L27.5199 36.2312Z" fill="#08A7B7"/>
<path opacity="0.8" d="M15.4171 42.9066C14.3529 40.9988 12.2805 40.1312 10.7962 40.9615C9.31186 41.7918 8.96179 44.0122 10.0307 45.9153C11.0996 47.8185 13.1626 48.7141 14.6516 47.8605C16.1406 47.0069 16.486 44.8098 15.4171 42.9066Z" fill="white"/>
<path opacity="0.8" d="M27.5199 36.2312L23.8558 29.4908C23.8558 29.4908 21.298 34.9811 17.6152 37.0382L19.4823 40.3734L19.7763 40.9005L21.6434 44.2451C25.3214 42.188 31.3426 42.8783 31.3426 42.8783L27.5199 36.2312Z" fill="white"/>
<path d="M15.1704 46.8478C15.1704 46.8478 17.8216 50.6867 20.3048 52.0861C20.3899 52.1321 20.4886 52.1466 20.5834 52.127C20.6782 52.1073 20.763 52.0549 20.8229 51.9788L22.9326 49.362C22.9733 49.3124 23.002 49.2542 23.0165 49.1917C23.0309 49.1292 23.0306 49.0642 23.0157 49.0019C23.0008 48.9395 22.9716 48.8815 22.9305 48.8323C22.8893 48.783 22.8373 48.744 22.7786 48.7183C21.7377 48.2518 19.3059 47.0763 17.9056 45.4204C16.0713 43.284 15.1704 46.8478 15.1704 46.8478Z" fill="#08A7B7"/>
<path opacity="0.3" d="M15.1704 46.8478C15.1704 46.8478 17.8216 50.6867 20.3048 52.0861C20.3899 52.1321 20.4886 52.1466 20.5834 52.127C20.6782 52.1073 20.763 52.0549 20.8229 51.9788L22.9326 49.362C22.9733 49.3124 23.002 49.2542 23.0165 49.1917C23.0309 49.1292 23.0306 49.0642 23.0157 49.0019C23.0008 48.9395 22.9716 48.8815 22.9305 48.8323C22.8893 48.783 22.8373 48.744 22.7786 48.7183C21.7377 48.2518 19.3059 47.0763 17.9056 45.4204C16.0713 43.284 15.1704 46.8478 15.1704 46.8478Z" fill="black"/>
<path d="M31.3101 43.0741C30.4652 43.5406 28.0708 40.8724 25.961 37.1034C23.8513 33.3344 22.8291 29.8966 23.6739 29.4254C24.5187 28.9543 26.9085 31.6271 29.0183 35.3961C31.128 39.1652 32.1549 42.603 31.3101 43.0741Z" fill="white"/>
<path opacity="0.4" d="M30.9646 41.9595C30.3345 42.314 28.4674 40.2102 26.7078 37.1875C26.6051 37.0149 26.5024 36.8377 26.4044 36.6604C26.3063 36.4832 26.1663 36.236 26.0543 36.0261C24.4393 32.9754 23.6458 30.3445 24.2713 29.9947C24.8967 29.6448 26.9878 31.9958 28.8409 35.2984C30.6939 38.6009 31.6367 41.5863 30.9646 41.9595Z" fill="black"/>
<path d="M14.3103 48.5601C14.3103 48.5601 13.4048 47.9164 11.7618 44.9824C9.98811 41.8058 10.0348 40.9195 10.0348 40.9195L18.2498 36.3248C18.2498 36.3248 18.3524 37.4817 20.0141 40.4577C21.6758 43.4337 22.5253 43.9702 22.5253 43.9702L14.3103 48.5601Z" fill="#08A7B7"/>
<path d="M26.7077 37.1874C26.605 37.0149 26.5023 36.8376 26.4043 36.6603C26.3062 36.4831 26.1662 36.2359 26.0542 36.026L26.9084 35.7554C26.9995 35.7323 27.0959 35.7415 27.181 35.7815C27.2662 35.8214 27.3348 35.8897 27.3751 35.9746L27.4405 36.0959C27.4931 36.1739 27.5159 36.2681 27.5047 36.3614C27.4936 36.4548 27.4493 36.541 27.3798 36.6044L26.7077 37.1874Z" fill="white"/>
<path opacity="0.2" d="M26.7077 37.1874C26.605 37.0149 26.5023 36.8376 26.4043 36.6603C26.3062 36.4831 26.1662 36.2359 26.0542 36.026L26.9084 35.7554C26.9995 35.7323 27.0959 35.7415 27.181 35.7815C27.2662 35.8214 27.3348 35.8897 27.3751 35.9746L27.4405 36.0959C27.4931 36.1739 27.5159 36.2681 27.5047 36.3614C27.4936 36.4548 27.4493 36.541 27.3798 36.6044L26.7077 37.1874Z" fill="black"/>
<path d="M26.2555 123.549H16.6216V127.733H26.2555V123.549Z" fill="#1A3A4A"/>
<path opacity="0.6" d="M26.2555 123.549H16.6216V127.733H26.2555V123.549Z" fill="white"/>
<path d="M15.5005 123.982C15.5005 123.982 13.1294 120.666 13.1294 118.93C13.1294 117.195 14.553 116.248 15.5005 116.878C15.5005 116.878 15.0338 113.538 15.5005 112.367C15.9673 111.196 18.3431 111.901 18.3431 111.901C18.5104 111.565 18.7701 111.283 19.0916 111.089C19.4131 110.895 19.7833 110.796 20.1588 110.805C20.5436 110.803 20.9221 110.903 21.2551 111.096C21.5882 111.288 21.8639 111.566 22.0538 111.901C22.3151 111.66 22.634 111.491 22.9799 111.409C23.3257 111.327 23.6868 111.336 24.0282 111.434C25.2931 111.737 25.1344 112.423 25.1344 112.423C25.1344 112.423 26.9501 112.423 27.3469 112.988C27.7436 113.552 28.5325 121.048 26.8801 123.418C25.2278 125.787 18.0257 126.576 15.5005 123.982Z" fill="#08A7B7"/>
<path opacity="0.7" d="M27.851 119.271C27.767 120.946 27.4916 122.536 26.8755 123.418C25.2138 125.787 18.007 126.576 15.5005 123.973C15.5005 123.973 13.1294 120.656 13.1294 118.921C13.1294 117.186 14.553 116.244 15.5005 116.869C15.5005 116.869 15.0338 113.524 15.5005 112.358C15.9673 111.192 18.3478 111.891 18.3478 111.891C18.5156 111.558 18.775 111.278 19.0956 111.086C19.4162 110.893 19.7849 110.796 20.1588 110.805C20.5427 110.802 20.9205 110.901 21.2535 111.092C21.5865 111.283 21.8627 111.559 22.0538 111.891C22.3153 111.651 22.6343 111.482 22.98 111.4C23.3258 111.319 23.6867 111.327 24.0282 111.425C25.2931 111.733 25.1344 112.409 25.1344 112.409C25.1344 112.409 26.9501 112.409 27.3469 112.978C27.5943 113.347 28.0004 116.435 27.851 119.271Z" fill="white"/>
<path opacity="0.1" d="M27.8514 119.271C27.6414 119.187 26.5212 118.763 26.2038 119.383C25.8864 120.003 22.8851 123.017 21.7602 121.893C20.6353 120.768 17.3867 119.7 17.3867 119.7C17.8593 119.7 18.3239 119.578 18.7356 119.346C20.0986 118.576 19.8652 117.391 19.1324 117.452C18.9503 117.452 15.501 116.869 15.501 116.869C15.501 116.869 18.0308 116.799 18.3015 116.444C18.5723 116.09 18.3622 112.955 18.6049 113.016C18.8476 113.076 18.7169 116.211 18.7776 116.747C18.8383 117.284 21.0414 117.307 21.3355 117.009C21.6295 116.71 21.5502 112.708 21.9749 112.978C22.3997 113.249 21.7275 117.107 22.157 117.34C22.5864 117.573 23.5012 117.806 23.9026 117.564C24.3041 117.321 24.6681 113.23 24.9015 113.412C25.1349 113.594 24.8175 117.27 24.9389 117.564C25.0602 117.858 25.7604 117.872 26.3018 117.755C26.8432 117.638 27.3287 112.992 27.3287 112.992C27.5947 113.347 28.0008 116.435 27.8514 119.271Z" fill="black"/>
<path d="M16.6217 126.511C16.6217 126.511 21.3686 127.989 26.2509 126.511L26.9137 126.837V131.968C23.2568 132.46 19.5505 132.46 15.8936 131.968L16.225 126.879L16.6217 126.511Z" fill="#08A7B7"/>
<path d="M100.619 24.0522H103.028C103.184 24.0534 103.333 24.1156 103.444 24.2254C103.555 24.3352 103.618 24.484 103.621 24.6399V25.8248H100.013V24.6399C100.014 24.5615 100.031 24.4841 100.062 24.4122C100.093 24.3402 100.138 24.275 100.194 24.2205C100.251 24.1659 100.317 24.1229 100.39 24.0941C100.463 24.0652 100.541 24.051 100.619 24.0522Z" fill="#08A7B7"/>
<path d="M105.954 18.5761H108.363C108.521 18.5761 108.673 18.639 108.785 18.751C108.897 18.863 108.96 19.0148 108.96 19.1732V25.825H105.348V19.1732C105.348 19.094 105.363 19.0156 105.394 18.9425C105.425 18.8695 105.469 18.8032 105.526 18.7477C105.582 18.6921 105.649 18.6483 105.723 18.6189C105.797 18.5894 105.875 18.5749 105.954 18.5761Z" fill="#08A7B7"/>
<path d="M111.271 19.7604H113.68C113.838 19.7604 113.99 19.8233 114.102 19.9353C114.214 20.0472 114.277 20.1991 114.277 20.3575V25.8244H110.669V20.3621C110.668 20.2829 110.683 20.2044 110.714 20.1311C110.744 20.0578 110.788 19.9913 110.844 19.9353C110.9 19.8793 110.967 19.835 111.04 19.8049C111.113 19.7749 111.192 19.7598 111.271 19.7604Z" fill="#08A7B7"/>
<path d="M116.601 13.7012H119.024C119.182 13.7012 119.334 13.7641 119.446 13.8761C119.558 13.988 119.621 14.1399 119.621 14.2982V25.8245H116.013V14.2982C116.013 14.1415 116.075 13.991 116.185 13.8793C116.295 13.7676 116.444 13.7036 116.601 13.7012Z" fill="#08A7B7"/>
<path d="M119.626 5.18849L118.692 5.51501L117.32 5.9908L117.988 6.48992L111.472 15.4787L105.707 12.8945L98.5425 21.1648L99.9381 22.3077L106.193 15.0868L112.074 17.7177L119.439 7.55812L120.023 7.99659L120.149 5.01123L119.626 5.18849Z" fill="#08A7B7"/>
<path opacity="0.6" d="M100.619 24.0522H103.028C103.184 24.0534 103.333 24.1156 103.444 24.2254C103.555 24.3352 103.618 24.484 103.621 24.6399V25.8248H100.013V24.6399C100.014 24.5615 100.031 24.4841 100.062 24.4122C100.093 24.3402 100.138 24.275 100.194 24.2205C100.251 24.1659 100.317 24.1229 100.39 24.0941C100.463 24.0652 100.541 24.051 100.619 24.0522Z" fill="white"/>
<path opacity="0.5" d="M105.954 18.5761H108.363C108.521 18.5761 108.673 18.639 108.785 18.751C108.897 18.863 108.96 19.0148 108.96 19.1732V25.825H105.348V19.1732C105.348 19.094 105.363 19.0156 105.394 18.9425C105.425 18.8695 105.469 18.8032 105.526 18.7477C105.582 18.6921 105.649 18.6483 105.723 18.6189C105.797 18.5894 105.875 18.5749 105.954 18.5761Z" fill="white"/>
<path opacity="0.3" d="M111.271 19.7604H113.68C113.838 19.7604 113.99 19.8233 114.102 19.9353C114.214 20.0472 114.277 20.1991 114.277 20.3575V25.8244H110.669V20.3621C110.668 20.2829 110.683 20.2044 110.714 20.1311C110.744 20.0578 110.788 19.9913 110.844 19.9353C110.9 19.8793 110.967 19.835 111.04 19.8049C111.113 19.7749 111.192 19.7598 111.271 19.7604Z" fill="white"/>
<path opacity="0.2" d="M116.601 13.7012H119.024C119.182 13.7012 119.334 13.7641 119.446 13.8761C119.558 13.988 119.621 14.1399 119.621 14.2982V25.8245H116.013V14.2982C116.013 14.1415 116.075 13.991 116.185 13.8793C116.295 13.7676 116.444 13.7036 116.601 13.7012Z" fill="white"/>
<path opacity="0.1" d="M119.626 5.18849L118.692 5.51501L117.32 5.9908L117.988 6.48992L111.472 15.4787L105.707 12.8945L98.5425 21.1648L99.9381 22.3077L106.193 15.0868L112.074 17.7177L119.439 7.55812L120.023 7.99659L120.149 5.01123L119.626 5.18849Z" fill="black"/>
<path d="M120.616 26.8927H99.3268C99.1853 26.8927 99.0494 26.8368 98.9489 26.7372C98.8484 26.6376 98.7913 26.5024 98.79 26.3609C98.79 26.2186 98.8466 26.0822 98.9473 25.9816C99.0479 25.881 99.1844 25.8245 99.3268 25.8245H120.616C120.686 25.8245 120.756 25.8384 120.82 25.8654C120.885 25.8924 120.944 25.932 120.994 25.9819C121.043 26.0317 121.082 26.0909 121.109 26.156C121.135 26.221 121.148 26.2907 121.148 26.3609C121.148 26.4307 121.134 26.4999 121.107 26.5644C121.081 26.6289 121.041 26.6875 120.992 26.7369C120.943 26.7863 120.884 26.8255 120.819 26.8522C120.755 26.8789 120.686 26.8927 120.616 26.8927Z" fill="#1A3A4A"/>
<path opacity="0.3" d="M120.616 26.8927H99.3268C99.1853 26.8927 99.0494 26.8368 98.9489 26.7372C98.8484 26.6376 98.7913 26.5024 98.79 26.3609C98.79 26.2186 98.8466 26.0822 98.9473 25.9816C99.0479 25.881 99.1844 25.8245 99.3268 25.8245H120.616C120.686 25.8245 120.756 25.8384 120.82 25.8654C120.885 25.8924 120.944 25.932 120.994 25.9819C121.043 26.0317 121.082 26.0909 121.109 26.156C121.135 26.221 121.148 26.2907 121.148 26.3609C121.148 26.4307 121.134 26.4999 121.107 26.5644C121.081 26.6289 121.041 26.6875 120.992 26.7369C120.943 26.7863 120.884 26.8255 120.819 26.8522C120.755 26.8789 120.686 26.8927 120.616 26.8927Z" fill="white"/>
<path d="M4.05688 124.122C4.39366 126.281 5.15267 128.353 6.29057 130.219C7.42848 132.085 8.92299 133.708 10.6888 134.997C12.4546 136.285 14.457 137.214 16.5819 137.729C18.7067 138.244 20.9123 138.336 23.0727 138C44.7583 133.736 39.876 102.581 17.9383 105.119C13.5761 105.799 9.66302 108.184 7.05983 111.748C4.45663 115.311 3.37646 119.763 4.05688 124.122Z" stroke="#8D9DA5" stroke-width="1.22" stroke-linecap="round" stroke-linejoin="round"/>
<path d="M159.235 107.657C156.282 110.938 152.146 112.913 147.736 113.148C143.326 113.382 139.004 111.857 135.719 108.907C119.882 93.5134 140.98 70.055 157.984 84.1561C161.267 87.1071 163.244 91.2405 163.478 95.6475C163.713 100.054 162.186 104.374 159.235 107.657Z" stroke="#8D9DA5" stroke-width="1.22" stroke-linecap="round" stroke-linejoin="round"/>
<path d="M94.8461 22.5871C96.1668 26.7964 99.106 30.3093 103.018 32.3535C106.929 34.3977 111.493 34.8059 115.706 33.4884C136.523 26.0623 127.099 -4.02922 105.768 1.72693C103.681 2.37899 101.744 3.43543 100.065 4.83595C98.387 6.23647 97.0012 7.95363 95.987 9.88938C94.9728 11.8251 94.35 13.9416 94.1543 16.1179C93.9585 18.2942 94.1936 20.4877 94.8461 22.5731V22.5871Z" stroke="#8D9DA5" stroke-width="1.22" stroke-linecap="round" stroke-linejoin="round"/>
<path d="M28.3602 55.5804C26.4322 56.6111 24.3199 57.2523 22.1439 57.4672C19.9679 57.6821 17.7709 57.4665 15.6783 56.8328C13.5857 56.1991 11.6384 55.1596 9.94782 53.7738C8.2572 52.388 6.85629 50.6829 5.82508 48.756C-3.81817 28.88 24.0287 14.0139 35.1889 33.0642C36.2203 34.9907 36.8617 37.1013 37.0767 39.2755C37.2916 41.4498 37.0759 43.645 36.4418 45.7359C35.8077 47.8269 34.7676 49.7724 33.3809 51.4616C31.9943 53.1507 30.2882 54.5503 28.3602 55.5804Z" stroke="#8D9DA5" stroke-width="1.22" stroke-linecap="round" stroke-linejoin="round"/>
<path d="M74.8215 78.7964C72.7385 77.1879 71.38 74.8184 71.0447 72.209C70.7095 69.5997 71.425 66.9641 73.0338 64.8818C81.4961 54.7876 96.3718 66.2812 88.7449 77.0099C87.1353 79.0916 84.7643 80.4492 82.1533 80.7842C79.5423 81.1192 76.9051 80.4042 74.8215 78.7964Z" stroke="#BACDD8" stroke-width="1.22" stroke-linecap="round" stroke-linejoin="round"/>
<path d="M72.0211 66.4957L34.7783 49.4791" stroke="#1A3A4A" stroke-width="1.22" stroke-linecap="round" stroke-linejoin="round"/>
<path d="M85.8276 62.3437L103.172 32.4435" stroke="#1A3A4A" stroke-width="1.22" stroke-linecap="round" stroke-linejoin="round"/>
<path d="M89.833 75.251L130.693 92.5288" stroke="#1A3A4A" stroke-width="1.22" stroke-linecap="round" stroke-linejoin="round"/>
<path d="M72.8713 76.7856L33.2061 110.795" stroke="#1A3A4A" stroke-width="1.22" stroke-linecap="round" stroke-linejoin="round"/>
<g opacity="0.5">
<path d="M72.0206 66.4952L34.7778 49.4786" stroke="white" stroke-width="1.22" stroke-linecap="round" stroke-linejoin="round"/>
<path d="M85.8276 62.3439L103.172 32.4436" stroke="white" stroke-width="1.22" stroke-linecap="round" stroke-linejoin="round"/>
<path d="M89.8325 75.2511L130.693 92.5289" stroke="white" stroke-width="1.22" stroke-linecap="round" stroke-linejoin="round"/>
<path d="M72.8698 76.7858L33.2046 110.796" stroke="white" stroke-width="1.22" stroke-linecap="round" stroke-linejoin="round"/>
</g>
<path d="M109.97 64.2284C108.569 64.4523 105.456 74.6865 104.2 76.0252C103.538 76.7249 96.3402 74.6865 96.3402 74.6865L95.4907 77.336C95.4907 77.336 103.365 80.6012 105.507 79.7943C109.101 78.4695 110.875 71.0854 110.875 71.0854L109.97 64.2284Z" fill="#1A3A4A"/>
<path opacity="0.2" d="M110.875 71.0808C110.595 72.182 110.238 73.2622 109.806 74.3134C109.176 75.8667 108.257 77.6346 107.057 78.7821C106.615 79.22 106.087 79.5629 105.507 79.7897C103.37 80.6013 95.4907 77.3361 95.4907 77.3361L96.3402 74.6912C96.3402 74.6912 103.538 76.7297 104.2 76.03C105.456 74.6912 108.583 64.4571 109.965 64.2332L110.875 71.0808Z" fill="white"/>
<path d="M96.0405 74.7285L93.3007 72.2703L91.9004 75.5355C91.9004 75.5355 94.8316 77.434 95.5971 76.6503L96.0405 74.7285Z" fill="#EEC1BB"/>
<path d="M90.0429 72.6388L89.6602 75.1483L91.9193 75.5122L93.3102 72.2703L90.0429 72.6388Z" fill="#EEC1BB"/>
<path d="M97.2781 74.6956L96.2559 77.9468L94.9443 77.3684L95.8732 74.3177L97.2781 74.6956Z" fill="#08A7B7"/>
<path opacity="0.7" d="M97.2781 74.6956L96.2559 77.9468L94.9443 77.3684L95.8732 74.3177L97.2781 74.6956Z" fill="white"/>
<path opacity="0.2" d="M109.806 74.3128C109.176 75.8661 108.257 77.634 107.057 78.7815C106.763 74.4621 109.475 71.0336 109.475 71.0336C109.754 72.1031 109.865 73.2092 109.806 74.3128Z" fill="black"/>
<path d="M112.737 54.6336C112.917 55.9476 112.917 57.2799 112.737 58.5939C112.737 58.5939 120.723 59.7041 122.665 58.2254C124.606 56.7467 125.465 47.9632 121.138 47.1329C116.812 46.3026 111.724 49.2413 112.737 54.6336Z" fill="#1A3A4A"/>
<path d="M106.436 164.472H105.768L105.581 163.646L103.369 164.644H97.7679C97.7679 164.644 96.8764 163.749 99.5463 163.035C99.6769 163 99.8035 162.951 99.9244 162.89C101.348 162.223 103.374 159.97 103.374 159.97H106.45C106.544 160.12 106.628 160.276 106.702 160.437C107.033 161.09 107.612 162.512 106.436 164.472Z" fill="#1A3A4A"/>
<path d="M106.697 160.412C106.291 159.946 104.443 161.947 103.089 162.623C101.88 163.225 100.522 163.491 99.9199 162.88C101.344 162.213 103.584 159.302 103.584 159.302H106.058C106.058 159.302 106.553 160.123 106.697 160.412Z" fill="#FFC2BC"/>
<path d="M103.368 159.97L104.778 147.912L109.203 149.213L106.127 160.073" fill="#FFC2BC"/>
<path d="M122.524 86.1056L110.435 85.5411C110.435 85.5411 107.205 106.336 106.911 119.621C105.978 128.54 104.844 143.765 103.761 153.085C104.461 153.522 105.242 153.814 106.057 153.943C106.726 154.082 107.413 154.116 108.092 154.041C110.893 146.041 114.16 132.775 113.95 119.952C122.482 99.2271 122.524 86.1056 122.524 86.1056Z" fill="#1A3A4A"/>
<path opacity="0.4" d="M122.525 86.1055C122.525 86.1055 122.525 93.4709 118.908 105.874C117.974 109.139 116.761 112.754 115.258 116.677C114.842 117.746 114.413 118.837 113.951 119.943C114.18 132.766 110.884 146.032 108.088 154.032C107.412 154.106 106.728 154.073 106.063 153.934C105.244 153.805 104.46 153.513 103.757 153.076C104.849 143.746 105.965 128.53 106.907 119.612C107.211 106.327 110.441 85.5317 110.441 85.5317L122.525 86.1055Z" fill="white"/>
<path opacity="0.2" d="M118.907 105.874C117.973 109.139 116.76 112.754 115.257 116.677C114.225 106.084 116.657 100.099 116.657 100.099C117.768 101.456 118.478 103.518 118.907 105.874Z" fill="black"/>
<path d="M123.715 164.472H123.048L122.861 163.646L120.648 164.644H115.047C115.047 164.644 114.156 163.749 116.826 163.035C116.956 163 117.083 162.951 117.204 162.89C118.627 162.223 120.653 159.97 120.653 159.97H123.729C123.823 160.12 123.908 160.276 123.981 160.437C124.312 161.09 124.896 162.512 123.715 164.472Z" fill="#1A3A4A"/>
<path d="M123.977 160.412C123.571 159.946 121.723 161.947 120.369 162.623C119.16 163.225 117.802 163.491 117.2 162.88C118.623 162.213 120.864 159.302 120.864 159.302H123.338C123.338 159.302 123.832 160.123 123.977 160.412Z" fill="#FFC2BC"/>
<path d="M120.648 159.97L120.587 147.063L125.311 147.268L123.262 159.979L120.648 159.97Z" fill="#FFC2BC"/>
<path d="M120.163 154.241C120.902 154.488 121.663 154.666 122.436 154.773C123.07 154.869 123.716 154.843 124.34 154.699C126.496 145.612 128.7 130.974 126.207 122.163C130.921 93.676 124.671 86.0633 124.671 86.0633L114.062 84.9111C114.062 84.9111 117.479 109.013 118.636 120.796C119.644 130.918 120.527 142.729 120.163 154.241Z" fill="#1A3A4A"/>
<path opacity="0.4" d="M120.163 154.241C120.902 154.488 121.663 154.666 122.436 154.773C123.07 154.869 123.716 154.843 124.34 154.699C126.496 145.612 128.7 130.974 126.207 122.163C130.921 93.676 124.671 86.0633 124.671 86.0633L114.062 84.9111C114.062 84.9111 117.479 109.013 118.636 120.796C119.644 130.918 120.527 142.729 120.163 154.241Z" fill="white"/>
<path d="M122.622 63.0159C122.622 63.0159 114.37 67.1021 115.075 63.3657C115.075 63.3657 112.032 63.3377 110.029 64.5599C110.029 64.5599 108.844 69.5277 110.029 82.8825L109.17 89.343L114.053 90.817L115.663 86.1524L117.614 91.0829L126.1 88.4334L124.387 83.4563C124.387 83.4563 125.25 72.0139 127.836 66.7849C127.841 66.7662 127.439 62.9599 122.622 63.0159Z" fill="#08A7B7"/>
<path opacity="0.7" d="M122.622 63.0159C122.622 63.0159 114.37 67.1021 115.075 63.3657C115.075 63.3657 112.032 63.3377 110.029 64.5599C110.029 64.5599 108.946 69.9242 110.029 82.8825L109.17 89.343L114.053 90.817L115.663 86.1524L117.614 91.0829L126.1 88.4334L124.387 83.4563C124.387 83.4563 125.25 72.0139 127.836 66.7849C127.841 66.7662 127.439 62.9599 122.622 63.0159Z" fill="white"/>
<path d="M122.109 55.9115C121.539 58.0152 120.839 61.8776 122.207 63.2816C122.207 63.2816 124.074 64.779 118.515 64.611C118.048 65.7679 116.181 68.2448 116.181 68.2448C116.181 68.2448 115.332 65.9125 115.714 65.0542C112.134 64.7463 115.63 63.2816 115.63 63.2816C118.025 62.7218 118.095 60.9773 117.805 59.34L122.109 55.9115Z" fill="#EEC1BB"/>
<path opacity="0.2" d="M120.374 57.3108L117.844 59.3399C117.918 59.7227 117.955 60.1116 117.956 60.5014C118.866 60.3708 120.173 59.3865 120.336 58.449C120.419 58.0751 120.431 57.6892 120.374 57.3108Z" fill="black"/>
<path d="M123.906 51.6803C123.267 55.0808 123.071 56.5315 121.129 58.1641C118.207 60.6177 114.193 59.3209 113.81 55.8318C113.465 52.7111 114.566 47.6733 118.076 46.5492C118.823 46.2807 119.628 46.2174 120.408 46.3658C121.187 46.5143 121.913 46.8692 122.508 47.3933C123.104 47.9175 123.548 48.5918 123.794 49.3458C124.04 50.0999 124.078 50.9061 123.906 51.6803Z" fill="#EEC1BB"/>
<path d="M120.98 49.2225C122.847 51.6481 119.001 54.4329 122.847 54.2696C126.693 54.1063 125.139 48.6721 122.847 47.4266C120.555 46.1811 120.98 49.2225 120.98 49.2225Z" fill="#1A3A4A"/>
<path d="M118.506 52.2498C118.464 52.5343 118.282 52.7582 118.1 52.7442C117.918 52.7302 117.796 52.4877 117.838 52.1985C117.88 51.9092 118.062 51.69 118.249 51.704C118.436 51.718 118.557 51.9606 118.506 52.2498Z" fill="#1A3A4A"/>
<path d="M115.038 52.0443C115.001 52.3289 114.814 52.5528 114.632 52.5388C114.45 52.5248 114.329 52.2822 114.371 51.993C114.413 51.7038 114.595 51.4846 114.781 51.4986C114.968 51.5126 115.08 51.7551 115.038 52.0443Z" fill="#1A3A4A"/>
<path d="M114.861 51.5175L114.212 51.2703C114.212 51.2703 114.483 51.8347 114.861 51.5175Z" fill="#1A3A4A"/>
<path d="M115.939 52.5852C115.592 53.2242 115.165 53.8166 114.669 54.3484C114.801 54.4643 114.958 54.5485 115.128 54.5945C115.298 54.6406 115.476 54.6474 115.649 54.6143L115.939 52.5852Z" fill="#D4827D"/>
<path d="M117.106 55.7994C116.95 55.8127 116.794 55.8127 116.639 55.7994C116.628 55.7998 116.617 55.7976 116.607 55.793C116.597 55.7884 116.588 55.7815 116.581 55.7729C116.575 55.7642 116.57 55.7541 116.568 55.7433C116.566 55.7326 116.566 55.7214 116.569 55.7108C116.571 55.6881 116.582 55.6672 116.6 55.6525C116.617 55.6377 116.64 55.6302 116.662 55.6315C117.023 55.6596 117.386 55.6063 117.724 55.4755C118.062 55.3447 118.366 55.1398 118.613 54.8758C118.629 54.8607 118.65 54.8523 118.672 54.8523C118.693 54.8523 118.714 54.8607 118.73 54.8758C118.745 54.8923 118.754 54.914 118.754 54.9365C118.754 54.959 118.745 54.9807 118.73 54.9971C118.305 55.4537 117.727 55.739 117.106 55.7994Z" fill="#1A3A4A"/>
<path d="M119.485 50.701C119.463 50.7016 119.441 50.6973 119.421 50.6884C119.401 50.6795 119.383 50.6663 119.369 50.6497C119.235 50.4926 119.064 50.3718 118.872 50.2984C118.679 50.225 118.471 50.2014 118.267 50.2299C118.246 50.2346 118.224 50.2347 118.203 50.2303C118.181 50.2259 118.161 50.217 118.143 50.2042C118.126 50.1914 118.111 50.1751 118.1 50.1562C118.089 50.1373 118.083 50.1163 118.08 50.0946C118.075 50.0491 118.087 50.0031 118.113 49.966C118.14 49.9288 118.18 49.9031 118.225 49.894C118.483 49.8572 118.746 49.8853 118.991 49.9757C119.235 50.0661 119.453 50.216 119.625 50.4118C119.656 50.4446 119.673 50.488 119.673 50.5331C119.673 50.5781 119.656 50.6215 119.625 50.6543C119.607 50.6715 119.584 50.6845 119.56 50.6925C119.536 50.7005 119.511 50.7034 119.485 50.701Z" fill="#1A3A4A"/>
<path d="M114.259 50.3883C114.238 50.3904 114.217 50.3881 114.197 50.3817C114.177 50.3753 114.158 50.3648 114.142 50.351C114.127 50.3354 114.114 50.3168 114.106 50.2964C114.097 50.276 114.093 50.2541 114.093 50.232C114.093 50.2099 114.097 50.188 114.106 50.1676C114.114 50.1472 114.127 50.1287 114.142 50.1131C114.316 49.9032 114.537 49.7364 114.786 49.6255C115.036 49.5147 115.307 49.4628 115.58 49.474C115.602 49.4761 115.622 49.4828 115.641 49.4937C115.66 49.5045 115.677 49.5192 115.69 49.5369C115.702 49.5545 115.711 49.5747 115.716 49.596C115.72 49.6173 115.72 49.6393 115.715 49.6606C115.707 49.7055 115.683 49.7458 115.646 49.7734C115.61 49.8011 115.565 49.8141 115.519 49.8099C115.303 49.8028 115.088 49.8458 114.891 49.9356C114.694 50.0255 114.521 50.1596 114.385 50.3277C114.369 50.3462 114.35 50.3612 114.329 50.3717C114.307 50.3822 114.283 50.3878 114.259 50.3883Z" fill="#1A3A4A"/>
<path d="M118.338 51.7223L117.689 51.4751C117.689 51.4751 117.96 52.0395 118.338 51.7223Z" fill="#1A3A4A"/>
<path d="M119.664 47.3377C119.664 47.3377 120.331 51.3493 122.996 52.0023C125.662 52.6554 123.5 47.8834 123.5 47.8834C123.5 47.8834 122.94 45.7097 119.342 45.7097C115.743 45.7097 111.584 49.3621 112.737 54.6192C112.641 53.5386 112.849 52.4526 113.339 51.4845C114.137 50.1131 114.959 51.3073 119.664 47.3377Z" fill="#1A3A4A"/>
<path d="M122.086 46.3257C125.895 47.8464 127.281 50.3373 126.954 53.1034C126.627 55.8695 123.22 58.8036 122.665 58.9062L120.952 59.1487C120.952 59.1487 123.584 55.4917 123.075 54.2509C122.567 53.0101 122.063 52.8888 122.063 52.8888L122.086 46.3257Z" fill="#1A3A4A"/>
<path d="M124.237 54.9453C124.099 55.2463 123.898 55.5148 123.649 55.7333C123.4 55.9519 123.107 56.1157 122.791 56.214C122.002 56.4239 121.656 55.5143 121.918 54.6094C122.156 53.7931 122.851 52.7016 123.631 52.8975C124.41 53.0934 124.639 54.1616 124.237 54.9453Z" fill="#EEC1BB"/>
<path d="M123.995 63.1692C121.419 65.5621 120.032 78.1753 120.401 82.2475C120.77 86.3197 123.995 97.221 123.995 97.221L129.078 96.8058C129.078 96.8058 127.851 89.2445 124.709 83.2131C124.709 83.2131 126.712 68.2256 128.555 64.4986C128.555 64.4986 126.805 63.8036 126.264 63.645C125.722 63.4864 123.995 63.1692 123.995 63.1692Z" fill="#1A3A4A"/>
<path opacity="0.2" d="M129.079 96.8064L123.996 97.2216C123.996 97.2216 122.913 93.5785 121.942 89.7162C121.531 88.1069 121.144 86.4509 120.854 85.0282C120.647 84.1046 120.492 83.1702 120.388 82.2295C120.346 81.763 120.322 81.1892 120.322 80.5315C120.346 75.4004 121.69 65.2735 123.977 63.1511L124.85 63.3144C125.349 63.417 125.942 63.5383 126.25 63.6269C126.792 63.7855 128.542 64.4805 128.542 64.4805C128.238 65.1447 127.986 65.8308 127.786 66.533C127.72 66.7802 127.641 67.0414 127.576 67.312C126.764 70.3393 125.998 74.6774 125.452 78.0406C124.985 80.9747 124.696 83.1717 124.696 83.1717C125.026 83.8123 125.337 84.4638 125.629 85.1262C127.209 88.8798 128.366 92.7973 129.079 96.8064Z" fill="white"/>
<path d="M123.995 63.1692C123.995 63.1692 125.988 67.2694 125.526 71.4676L122.525 69.1352L124.233 71.3509L120.401 78.3479C120.401 78.3479 120.709 65.8047 123.995 63.1692Z" fill="#1A3A4A"/>
<path d="M114.091 63.3842C114.091 63.3842 110.982 68.6972 111.538 82.3552L109.671 96.1951H107.64L109.899 82.3552C109.899 82.3552 107.486 71.8971 109.951 64.2285C111.27 63.7053 112.672 63.4194 114.091 63.3842Z" fill="#1A3A4A"/>
<path opacity="0.2" d="M114.091 63.3842C114.091 63.3842 110.982 68.6972 111.538 82.3552L109.671 96.1951H107.64L109.899 82.3552C109.899 82.3552 107.486 71.8971 109.951 64.2285C111.27 63.7053 112.672 63.4194 114.091 63.3842Z" fill="white"/>
<path d="M114.534 63.3838C114.534 63.3838 114.067 63.1225 112.984 63.5564C111.901 63.9902 109.32 69.681 109.32 69.681L111.29 68.5428L110.184 69.681L111.505 76.5054C111.505 76.5054 113.008 64.2187 114.534 63.3838Z" fill="#1A3A4A"/>
<path d="M117.353 62.4327C117.353 62.4327 115.519 63.7108 115.738 65.0543L112.606 65.8239C112.606 65.8239 114.459 62.6566 117.353 62.4327Z" fill="#08A7B7"/>
<path d="M122.945 66.3833L118.558 64.9606C118.558 64.9606 120.891 63.0948 121.601 62.0779L123.053 63.1647C123.09 63.2487 123.519 64.3122 122.945 66.3833Z" fill="#08A7B7"/>
<path opacity="0.6" d="M117.353 62.4327C117.353 62.4327 115.519 63.7108 115.738 65.0543L112.606 65.8239C112.606 65.8239 114.459 62.6566 117.353 62.4327Z" fill="white"/>
<path opacity="0.6" d="M122.945 66.3833L118.558 64.9606C118.558 64.9606 120.891 63.0948 121.601 62.0779L123.053 63.1647C123.09 63.2487 123.519 64.3122 122.945 66.3833Z" fill="white"/>
<path opacity="0.2" d="M125.642 85.168H125.003C123.742 85.168 122.258 85.1027 120.853 85.0234C118.141 84.8695 115.719 84.6549 115.719 84.6549L115.915 81.2731L118.636 81.3104L118.771 81.0585C119.309 80.9263 119.836 80.7548 120.349 80.5454C121.931 79.8948 123.476 79.1598 124.979 78.3437L125.479 78.0685C125.012 81.0025 124.723 83.1996 124.723 83.1996C125.049 83.8495 125.356 84.5057 125.642 85.168Z" fill="black"/>
<path d="M128.555 64.4989C130.189 65.9356 133.092 78.9266 132.149 80.5779C131.206 82.2292 120.177 84.1043 120.177 84.1043L119.117 81.3056C119.117 81.3056 127.85 78.8986 127.85 77.947C127.85 76.9954 126.324 73.1378 126.324 73.1378C126.324 73.1378 125.969 68.7017 127.201 66.528C127.582 65.8073 128.036 65.1273 128.555 64.4989Z" fill="#1A3A4A"/>
<path opacity="0.2" d="M128.555 64.4989C130.189 65.9356 133.092 78.9266 132.149 80.5779C131.206 82.2292 120.177 84.1043 120.177 84.1043L119.117 81.3056C119.117 81.3056 127.85 78.8986 127.85 77.947C127.85 76.9954 126.324 73.1378 126.324 73.1378C126.324 73.1378 125.969 68.7017 127.201 66.528C127.582 65.8073 128.036 65.1273 128.555 64.4989Z" fill="white"/>
<path d="M119.356 81.5572L115.71 81.0907L116.425 84.5472C116.425 84.5472 119.916 84.4352 120.093 83.3577L119.356 81.5572Z" fill="#EEC1BB"/>
<path d="M113.236 83.2644L114.356 85.5361L116.419 84.5519L115.71 81.0907L113.236 83.2644Z" fill="#EEC1BB"/>
<path d="M120.36 80.825L121.368 84.0762L119.963 84.3467L118.987 81.3147L120.36 80.825Z" fill="#08A7B7"/>
<path opacity="0.7" d="M120.36 80.825L121.368 84.0762L119.963 84.3467L118.987 81.3147L120.36 80.825Z" fill="white"/>
<path d="M82.8078 87.9985L85.0109 92.1967L80.488 92.887C80.488 92.887 79.0551 88.6002 80.2826 87.8959L82.8078 87.9985Z" fill="#FFD9B7"/>
<path d="M83.4849 96.1901L80.2129 95.8542L80.4883 92.9062L85.0112 92.2158L83.4849 96.1901Z" fill="#FFD9B7"/>
<path d="M82.2429 85.9087L83.2464 88.5022L79.5963 89.4025L78.5508 86.8323L82.2429 85.9087Z" fill="#08A7B7"/>
<path opacity="0.7" d="M82.2429 85.9087L83.2464 88.5022L79.5963 89.4025L78.5508 86.8323L82.2429 85.9087Z" fill="white"/>
<path d="M73.23 54.7163C71.9931 55.9384 73.16 71.0005 73.1974 72.7964C73.2347 74.5923 78.5091 87.9145 78.5091 87.9145L82.7706 86.6084L78.4157 72.7171C77.7763 70.6927 77.9023 65.5056 77.8556 63.3039C77.8183 61.592 77.7249 58.9051 76.516 57.3285C75.5987 56.255 74.483 55.3681 73.23 54.7163Z" fill="#1A3A4A"/>
<path opacity="0.3" d="M73.23 54.7163C71.9931 55.9384 73.16 71.0005 73.1974 72.7964C73.2347 74.5923 78.5091 87.9145 78.5091 87.9145L82.7706 86.6084L78.4157 72.7171C77.7763 70.6927 77.9023 65.5056 77.8556 63.3039C77.8183 61.592 77.7249 58.9051 76.516 57.3285C75.5987 56.255 74.483 55.3681 73.23 54.7163Z" fill="black"/>
<path d="M84.3152 72.251L88.9175 71.0336L88.5954 75.5956C88.5954 75.5956 84.0959 76.062 83.6758 74.6953L84.3152 72.251Z" fill="#FFD9B7"/>
<path d="M92.46 73.3939L91.4144 76.5052L88.5952 75.5956L88.9173 71.0336L92.46 73.3939Z" fill="#FFD9B7"/>
<path d="M72.9456 59.9972L72.5162 55.5052C71.7694 55.3793 71.3773 54.0079 70.5371 53.9286C67.8693 53.7792 65.1953 53.7792 62.5275 53.9286C61.7294 53.9705 60.9265 54.0405 60.1937 54.1245L57.8086 63.687C58.1167 66.3131 58.2754 68.86 58.392 71.2343C58.6814 78.2033 58.294 79.4767 58.4247 81.1606H77.2818C76.6657 70.0962 76.0916 63.5703 75.7135 59.9972H72.9456Z" fill="#08A7B7"/>
<path opacity="0.7" d="M72.945 59.9972L72.5156 55.5052C71.7687 55.3793 71.3767 54.0079 70.5365 53.9286C67.8687 53.7792 65.1947 53.7792 62.5269 53.9286C62.0275 53.9565 61.528 53.9939 61.0333 54.0358L57.9106 64.7925C58.1394 67.0268 58.2887 69.1959 58.3774 71.2343C58.6668 78.2033 58.2794 79.4767 58.4101 81.1606H77.2672C76.7397 70.1755 76.1469 63.6077 75.7362 59.9972H72.945Z" fill="white"/>
<path d="M69.8748 55.1082C69.456 55.549 69.0662 56.0164 68.708 56.5076L68.4746 58.6766C68.4746 58.6766 71.7419 68.4304 72.0173 72.9644L70.813 74.1166L68.708 72.2834C68.6491 67.7418 68.3374 63.207 67.7744 58.7L66.9809 56.7735C66.9809 56.7735 64.9319 55.8872 64.073 54.9076C63.2142 53.9281 69.8748 55.1082 69.8748 55.1082Z" fill="#08A7B7"/>
<path d="M62.6951 45.8442L64.8422 47.6215L67.7595 50.0424C67.6745 50.4317 67.6137 50.8258 67.5774 51.2226C67.4187 52.8039 67.9462 53.261 69.5705 53.8674C69.5349 54.6773 69.183 55.441 68.5903 55.9945C68.5903 56.251 67.8902 56.6662 67.8902 56.6662C67.7075 56.4628 67.5076 56.2755 67.2927 56.1064C62.8071 56.0271 62.2144 53.9514 62.2144 53.9514C63.96 52.2301 63.2926 48.4144 62.6951 45.8442Z" fill="#FFD9B7"/>
<path opacity="0.2" d="M67.7597 50.0429C67.6748 50.4321 67.614 50.8263 67.5777 51.223C66.4855 51.0038 65.0339 49.8236 64.8798 48.7321C64.8272 48.3645 64.8147 47.9923 64.8425 47.6219L67.7597 50.0429Z" fill="black"/>
<path d="M71.4331 36.4407C71.4331 36.4407 73.3468 40.9887 71.2931 43.4376C69.2394 45.8865 67.0176 37.0844 67.0176 37.0844L71.4331 36.4407Z" fill="#1A3A4A"/>
<path d="M64.9501 49.0445C65.6733 49.6907 66.5889 50.0818 67.5561 50.1576C68.5233 50.2335 69.4886 49.9899 70.3038 49.4643C71.3711 48.8048 72.1471 47.7641 72.4743 46.5536C72.521 46.3847 72.5584 46.2134 72.5863 46.0405C73.0904 42.8359 72.2082 37.6814 68.6702 36.5573C67.8875 36.3035 67.0527 36.2547 66.2457 36.4156C65.4388 36.5766 64.6867 36.9418 64.0614 37.4763C63.4361 38.0109 62.9585 38.6969 62.6745 39.4687C62.3904 40.2405 62.3093 41.0722 62.4389 41.8843C62.9197 45.3361 63.0364 47.3979 64.9501 49.0445Z" fill="#FFD9B7"/>
<path d="M67.8303 42.4209C67.8303 42.7055 68.017 42.9247 68.2084 42.8874C68.3998 42.8501 68.5258 42.6262 68.5025 42.3416C68.4791 42.0571 68.3111 41.8378 68.1244 41.8518C67.9377 41.8658 67.807 42.1317 67.8303 42.4209Z" fill="#1A3A4A"/>
<path d="M71.051 42.1692C71.051 42.4537 71.2424 42.673 71.4291 42.6356C71.6158 42.5983 71.7465 42.3791 71.7232 42.0945C71.6998 41.81 71.5318 41.5908 71.3451 41.6048C71.1584 41.6188 71.0277 41.8846 71.051 42.1692Z" fill="#1A3A4A"/>
<path d="M70.0371 42.3882C70.443 43.2336 70.9645 44.0186 71.5867 44.7205C71.4025 44.8765 71.1861 44.99 70.9529 45.0529C70.7198 45.1157 70.4756 45.1265 70.2378 45.0843L70.0371 42.3882Z" fill="#FFA765"/>
<path d="M72.1237 40.7553C72.0966 40.7704 72.0661 40.7784 72.0351 40.7784C72.004 40.7784 71.9735 40.7704 71.9464 40.7553C71.7694 40.6419 71.5686 40.5711 71.3596 40.5484C71.1507 40.5258 70.9393 40.5519 70.7421 40.6247C70.7222 40.6342 70.7006 40.6397 70.6786 40.6408C70.6565 40.642 70.6345 40.6388 70.6137 40.6314C70.5929 40.6241 70.5737 40.6127 70.5573 40.5979C70.5409 40.5832 70.5276 40.5653 70.5181 40.5454C70.5087 40.5258 70.5033 40.5046 70.5022 40.4829C70.5011 40.4612 70.5043 40.4395 70.5117 40.4191C70.5191 40.3987 70.5305 40.38 70.5452 40.364C70.5599 40.3481 70.5777 40.3352 70.5974 40.3262C70.8438 40.2252 71.111 40.1857 71.3761 40.2109C71.6412 40.2361 71.8961 40.3253 72.1191 40.4708C72.1573 40.4932 72.1851 40.5298 72.1965 40.5726C72.2079 40.6154 72.2018 40.6609 72.1797 40.6993C72.1633 40.7201 72.1445 40.7389 72.1237 40.7553Z" fill="#1A3A4A"/>
<path d="M67.092 41.1889C67.0619 41.2 67.0288 41.2 66.9986 41.1889C66.983 41.1733 66.9705 41.1548 66.9621 41.1344C66.9536 41.1139 66.9492 41.0921 66.9492 41.07C66.9492 41.0479 66.9536 41.026 66.9621 41.0056C66.9705 40.9852 66.983 40.9666 66.9986 40.951C67.1805 40.7554 67.4072 40.6068 67.6593 40.5183C67.9114 40.4297 68.1812 40.4037 68.4456 40.4426C68.4673 40.4465 68.4879 40.4547 68.5063 40.4667C68.5247 40.4788 68.5405 40.4944 68.5527 40.5127C68.5649 40.531 68.5733 40.5516 68.5773 40.5732C68.5814 40.5948 68.581 40.617 68.5763 40.6385C68.5652 40.6814 68.5385 40.7186 68.5013 40.7428C68.4642 40.7669 68.4193 40.7763 68.3756 40.7691C68.1668 40.7453 67.9554 40.7709 67.7584 40.8438C67.5613 40.9167 67.3842 41.0349 67.2414 41.1889C67.218 41.2001 67.1925 41.2059 67.1667 41.2059C67.1408 41.2059 67.1153 41.2001 67.092 41.1889Z" fill="#1A3A4A"/>
<path d="M64.6648 37.2943L65.0522 37.9147C63.9506 38.4371 64.3474 39.7432 64.6555 40.317C65.3136 41.5438 64.8328 43.6382 63.946 44.5618C63.946 44.5618 63.8433 44.0067 63.3859 44.198C62.9284 44.3892 63.3859 46.7962 63.3859 46.7962C63.3859 46.7962 62.9845 47.4772 61.8129 44.5245C60.73 41.7863 60.3379 39.4447 60.7814 38.2785L64.6648 37.2943Z" fill="#1A3A4A"/>
<path d="M61.1366 44.8466C61.5884 45.6061 62.3211 46.1573 63.1764 46.3813C64.3152 46.6658 64.8473 45.6396 64.5113 44.5807C64.1986 43.6478 63.237 42.337 62.1075 42.533C60.9779 42.7289 60.5952 43.9044 61.1366 44.8466Z" fill="#FFD9B7"/>
<path d="M70.0847 45.7796C69.8156 46.2102 69.577 46.6591 69.3706 47.123L69.1092 47.053C67.9376 46.7358 67.5035 46.1994 67.3728 45.7003C67.2844 45.3153 67.3374 44.9113 67.5222 44.5621C68.1566 45.0813 68.8952 45.4583 69.688 45.6676C69.9307 45.7423 70.0847 45.7796 70.0847 45.7796Z" fill="#1A3A4A"/>
<path d="M69.6877 45.6676L69.4683 46.0548C68.3621 45.7516 67.6293 45.3878 67.3726 44.9633C67.4036 44.8233 67.4539 44.6883 67.5219 44.5621C68.1563 45.0813 68.8949 45.4583 69.6877 45.6676Z" fill="white"/>
<path d="M69.1089 47.0531C67.9373 46.7359 67.5033 46.1994 67.3726 45.7003C67.8143 45.8331 68.2296 46.0415 68.6001 46.3161C68.8442 46.5011 69.0225 46.7594 69.1089 47.0531Z" fill="#DE5753"/>
<path d="M70.813 38.0221C71.1574 37.6158 71.4173 37.1451 71.5776 36.6373C71.7379 36.1295 71.7953 35.5949 71.7465 35.0647C71.7465 35.0647 65.0298 33.9079 61.9679 35.0647C58.9059 36.2215 60.8057 41.194 60.8057 41.194C60.8057 41.194 63.9563 38.5958 65.0718 37.9288C66.1874 37.2617 69.6507 38.4745 69.6507 38.4745L70.813 38.0221Z" fill="#1A3A4A"/>
<path d="M62.9898 52.0255C62.9898 52.0255 63.844 54.2879 67.1346 55.8878L68.0215 56.6995L66.5465 56.3263L65.0529 58.1922L60.894 54.0313C60.894 54.0313 62.2616 52.0535 62.9898 52.0255Z" fill="#08A7B7"/>
<path d="M68.0216 56.6989L68.2596 55.4021C68.3627 54.5698 68.2502 53.725 67.9329 52.9485C67.9329 52.9485 67.7275 52.9019 67.6108 52.3468L68.1663 52.4867C68.1663 52.4867 71.1069 53.6436 71.5316 57.4546L69.1978 55.8406L68.0216 56.6989Z" fill="#08A7B7"/>
<path opacity="0.6" d="M68.0216 56.6989L68.2596 55.4021C68.3627 54.5698 68.2502 53.725 67.9329 52.9485C67.9329 52.9485 67.7275 52.9019 67.6108 52.3468L68.1663 52.4867C68.1663 52.4867 71.1069 53.6436 71.5316 57.4546L69.1978 55.8406L68.0216 56.6989Z" fill="white"/>
<path opacity="0.6" d="M62.9898 52.0255C62.9898 52.0255 63.844 54.2879 67.1346 55.8878L68.0215 56.6995L66.5465 56.3263L65.0529 58.1922L60.894 54.0313C60.894 54.0313 62.2616 52.0535 62.9898 52.0255Z" fill="white"/>
<path d="M75.5874 161.004L79.5502 161.419L79.7509 159.124L80.297 152.874L76.3295 152.454L75.7274 159.358L75.5874 161.004Z" fill="#E6C5C1"/>
<path d="M55.792 160.502H59.6334L59.6661 159.634L59.6708 159.527L59.8668 153.952L59.8715 153.84L59.9508 151.704H56.1001L55.792 160.502Z" fill="#E6C5C1"/>
<path opacity="0.2" d="M76.3301 152.454L75.728 159.358L79.7515 159.124L80.2976 152.874L76.3301 152.454Z" fill="black"/>
<path opacity="0.2" d="M55.8159 160.011H55.8206L59.6667 159.526H59.6713L59.8721 154.148H59.8674L56.0166 154.456L55.8206 159.843L55.8159 160.011Z" fill="black"/>
<path d="M60.161 160.272H55.4934C55.4172 160.271 55.3431 160.297 55.2835 160.345C55.224 160.392 55.1827 160.459 55.1666 160.533L54.4058 163.957C54.3754 164.104 54.4045 164.257 54.4867 164.383C54.5688 164.509 54.6975 164.597 54.8446 164.629C54.8863 164.636 54.9289 164.636 54.9706 164.629C56.4782 164.605 57.5798 164.512 59.4795 164.512C60.6464 164.512 64.1471 164.633 65.7854 164.633C67.4238 164.633 67.6105 163.043 66.9523 162.894C63.9884 162.25 61.7573 161.354 60.8098 160.505C60.6312 160.348 60.3991 160.264 60.161 160.272Z" fill="#1A3A4A"/>
<path d="M79.9753 160.151H75.3077C75.2315 160.151 75.1574 160.176 75.0979 160.224C75.0384 160.271 74.9971 160.338 74.981 160.412L74.2202 163.836C74.2006 163.92 74.2007 164.006 74.2203 164.09C74.24 164.173 74.2787 164.251 74.3333 164.317C74.388 164.383 74.4573 164.435 74.5356 164.47C74.614 164.505 74.6993 164.521 74.785 164.517C76.2973 164.517 77.3941 164.401 79.2939 164.401C80.4607 164.401 83.9894 164.522 85.5998 164.522C87.2101 164.522 87.4248 162.931 86.7667 162.782C83.8027 162.138 81.5716 161.243 80.6241 160.394C80.447 160.233 80.2147 160.146 79.9753 160.151Z" fill="#1A3A4A"/>
<path d="M55.2979 159.036H60.8663C60.8663 159.036 65.3472 142.062 67.1209 129.845C67.4009 127.946 67.695 125.46 67.9937 122.559C68.4605 117.894 68.9506 112.259 69.394 106.848C70.7243 110.421 71.7278 115.534 72.5213 121.309C74.1948 133.644 75.0322 146.079 75.0278 158.528H80.6662C84.2883 130.895 80.8809 102.809 78.5191 88.2272C78.0524 85.2698 77.5856 82.8722 77.2729 81.1416H58.4111C58.4111 81.5334 58.5372 84.4068 58.7052 88.5723C59.0833 98.0882 59.6387 114.447 59.0553 123.982C58.5652 132.285 55.2979 159.036 55.2979 159.036Z" fill="#1A3A4A"/>
<path d="M81.9209 160.832C81.6168 160.923 81.3038 160.981 80.9874 161.005C80.9717 161.006 80.9562 161.003 80.9424 160.995C80.9287 160.988 80.9173 160.976 80.9095 160.963C80.9017 160.949 80.8979 160.934 80.8985 160.918C80.8991 160.903 80.904 160.887 80.9127 160.874C80.9967 160.762 81.7342 159.806 82.1963 159.834C82.2496 159.837 82.3012 159.853 82.3462 159.882C82.3912 159.911 82.428 159.95 82.453 159.997C82.4998 160.065 82.5279 160.144 82.5344 160.226C82.541 160.308 82.5258 160.39 82.4903 160.464C82.3535 160.654 82.1502 160.785 81.9209 160.832ZM81.1647 160.832C81.8042 160.758 82.2383 160.599 82.3456 160.389C82.3665 160.342 82.3741 160.289 82.3675 160.237C82.3609 160.186 82.3405 160.137 82.3083 160.095C82.2979 160.072 82.281 160.051 82.2596 160.036C82.2381 160.021 82.213 160.013 82.1869 160.011C81.9396 159.974 81.4728 160.436 81.1647 160.832Z" fill="#08A7B7"/>
<path d="M81.0064 160.99H80.9644C80.9505 160.988 80.9374 160.982 80.9267 160.973C80.9159 160.964 80.908 160.952 80.9037 160.939C80.9037 160.897 80.4976 159.959 80.731 159.54C80.761 159.483 80.8034 159.434 80.8552 159.396C80.9069 159.358 80.9666 159.332 81.0297 159.32C81.0973 159.303 81.1685 159.308 81.2332 159.334C81.2979 159.36 81.3525 159.406 81.3891 159.465C81.5852 159.805 81.3098 160.668 81.0437 160.976L81.0064 160.99ZM81.0064 159.484C80.9752 159.493 80.9461 159.508 80.9212 159.529C80.8963 159.55 80.876 159.576 80.8617 159.605C80.7807 159.988 80.8249 160.387 80.9877 160.743C81.2199 160.388 81.3068 159.957 81.2304 159.54C81.2304 159.498 81.1651 159.451 81.0437 159.474L81.0064 159.484Z" fill="#08A7B7"/>
<path d="M62.1119 160.832C61.8079 160.924 61.4949 160.982 61.1783 161.005C61.1626 161.006 61.1469 161.002 61.133 160.995C61.119 160.987 61.1073 160.976 61.099 160.963C61.0902 160.95 61.0854 160.935 61.0854 160.919C61.0854 160.903 61.0902 160.888 61.099 160.874C61.183 160.762 61.9205 159.806 62.3826 159.834C62.4354 159.836 62.4867 159.853 62.531 159.881C62.5754 159.91 62.6112 159.95 62.6346 159.997C62.6822 160.065 62.7111 160.143 62.7185 160.225C62.7258 160.307 62.7114 160.389 62.6766 160.464C62.5388 160.651 62.3383 160.781 62.1119 160.832ZM61.3604 160.832C61.9952 160.758 62.4339 160.599 62.5413 160.389C62.5622 160.342 62.5697 160.289 62.5631 160.237C62.5566 160.186 62.5361 160.137 62.5039 160.095C62.4931 160.072 62.4761 160.052 62.4548 160.037C62.4334 160.022 62.4085 160.013 62.3826 160.011C62.1352 159.974 61.6684 160.436 61.3604 160.832Z" fill="#08A7B7"/>
<path d="M61.1966 160.991H61.1592C61.1453 160.989 61.1322 160.983 61.1215 160.974C61.1107 160.965 61.1028 160.953 61.0985 160.94C61.0985 160.898 60.6925 159.96 60.9258 159.54C60.9551 159.484 60.9967 159.435 61.0477 159.397C61.0986 159.359 61.1575 159.333 61.2199 159.321C61.2874 159.303 61.359 159.307 61.4238 159.333C61.4886 159.359 61.5432 159.406 61.5793 159.466C61.7753 159.806 61.5046 160.669 61.2339 160.977L61.1966 160.991ZM61.1966 159.484C61.1653 159.493 61.1363 159.509 61.1114 159.53C61.0865 159.551 61.0662 159.576 61.0519 159.606C60.9709 159.989 61.015 160.388 61.1779 160.744C61.4079 160.388 61.4946 159.958 61.4206 159.54C61.3973 159.498 61.3506 159.452 61.2339 159.475L61.1966 159.484Z" fill="#08A7B7"/>
<path opacity="0.3" d="M69.3838 106.844C70.7141 110.422 71.7176 115.529 72.5111 121.328C74.4061 113.575 69.8739 99.2358 69.8739 99.2358L69.3838 106.844Z" fill="black"/>
<path d="M77.7817 84.5143L77.4829 79.7657H58.8592C58.8592 79.7657 58.2758 80.8806 58.3365 84.0899L77.7817 84.5143Z" fill="#1A3A4A"/>
<path d="M77.7816 80.3629H75.7886V81.739H77.7816V80.3629Z" fill="black"/>
<path d="M75.2282 80.3629H66.8125V81.739H75.2282V80.3629Z" fill="black"/>
<path d="M66.2483 80.3629H58.9575V81.739H66.2483V80.3629Z" fill="black"/>
<path opacity="0.3" d="M58.4102 81.1604C58.4102 81.5522 58.5362 84.4256 58.7042 88.5912C62.3029 89.5241 70.2798 89.2116 70.2798 89.2116L71.0173 88.6471L71.2927 89.2116L78.5088 88.246C78.0421 85.2886 77.5753 82.891 77.2626 81.1604H58.4102Z" fill="black"/>
<path d="M70.5375 81.8373H72.3019C72.4437 81.8373 72.5586 81.7224 72.5586 81.5807V80.5312C72.5586 80.3895 72.4437 80.2746 72.3019 80.2746H70.5375C70.3957 80.2746 70.2808 80.3895 70.2808 80.5312V81.5807C70.2808 81.7224 70.3957 81.8373 70.5375 81.8373Z" fill="white"/>
<path d="M71.0643 84.0105C70.9296 85.3881 70.6655 86.7499 70.2754 88.078L57.5376 87.7049C57.5376 87.7049 57.7896 77.6806 57.897 73.6037C57.8397 70.9797 57.6418 68.3606 57.3042 65.7578C57.0801 63.724 56.8374 61.6343 56.5854 59.829C56.5637 59.6963 56.5512 59.5623 56.548 59.4279C56.4731 58.1068 56.869 56.8018 57.6654 55.7447C58.4617 54.6875 59.6071 53.9465 60.8982 53.6531L70.2334 68.1134V68.1507C70.2334 68.1507 70.3034 68.4959 70.3921 69.107C70.5882 70.3571 70.9149 72.7127 71.1063 75.4975C71.3383 78.3311 71.3242 81.1794 71.0643 84.0105Z" fill="#1A3A4A"/>
<path d="M61.5622 53.1958L60.3906 53.6856L60.9134 57.0441L63.0838 58.91L62.4024 61.2889L70.2999 68.1459C70.2999 68.1459 64.0127 58.5881 61.5622 53.1958Z" fill="#1A3A4A"/>
<path opacity="0.1" d="M61.5622 53.1958L60.3906 53.6856L60.9134 57.0441L63.0838 58.91L62.4024 61.2889L70.2999 68.1459C70.2999 68.1459 64.0127 58.5881 61.5622 53.1958Z" fill="white"/>
<path d="M78.8917 87.1546L71.4235 87.663L71.0734 84.0106L70.2426 75.2598L69.7012 69.5923C69.7852 69.3824 69.8692 69.1771 69.9392 68.9719C70.0559 68.678 70.1679 68.3935 70.2659 68.1089C73.944 57.8467 69.9672 53.8212 69.9672 53.8212C71.9698 53.9409 73.8527 54.8142 75.2369 56.2654C76.6092 59.2928 77.7154 64.4239 77.8321 69.7649C77.8975 72.7222 77.8601 75.3251 77.8321 76.7898C77.8321 77.5874 77.7994 78.0492 77.7994 78.0492L78.8917 87.1546Z" fill="#1A3A4A"/>
<path d="M69.9621 53.8165C69.9621 53.8165 72.9214 55.2672 74.0836 57.9027L73.4161 58.7797L74.8631 61.224L69.6914 69.5876C69.6914 69.5876 71.9132 56.8998 69.9621 53.8165Z" fill="#1A3A4A"/>
<path opacity="0.1" d="M69.9621 53.8165C69.9621 53.8165 72.9214 55.2672 74.0836 57.9027L73.4161 58.7797L74.8631 61.224L69.6914 69.5876C69.6914 69.5876 71.9132 56.8998 69.9621 53.8165Z" fill="white"/>
<path opacity="0.3" d="M77.8187 76.7849C76.1524 76.533 73.6178 76.1039 71.1487 75.4882C70.8406 75.4182 70.5372 75.3389 70.2152 75.2549C68.8644 74.9129 67.545 74.4573 66.2711 73.8929C63.1111 72.4048 59.2697 68.132 57.2859 65.7578C57.0619 63.724 56.8192 61.6342 56.5671 59.829C56.5454 59.6963 56.533 59.5623 56.5298 59.4279H61.4121C61.4121 59.4279 68.6049 68.1554 69.9118 68.967L70.0238 69.0183C70.1529 69.0523 70.2838 69.0787 70.4159 69.0976C71.7321 69.3029 75.4475 69.5921 77.8047 69.76C77.898 72.7174 77.8514 75.3202 77.8187 76.7849Z" fill="black"/>
<path d="M82.2381 71.8036L85.0106 72.0695L84.1751 75.7359L81.4072 75.512L82.2381 71.8036Z" fill="#08A7B7"/>
<path opacity="0.7" d="M82.2381 71.8036L85.0106 72.0695L84.1751 75.7359L81.4072 75.512L82.2381 71.8036Z" fill="white"/>
<path d="M56.7902 57.4549C54.5731 64.1253 63.9457 71.3835 66.2935 73.3146C68.6413 75.2458 82.5647 76.0294 82.5647 76.0294L83.2975 71.6447C83.2975 71.6447 70.6063 70.1986 69.6728 69.5876C68.7393 68.9765 62.6714 61.3825 61.1078 58.9802C59.5441 56.5779 56.7902 57.4549 56.7902 57.4549Z" fill="#1A3A4A"/>
</svg>
