<svg width="478" height="492" viewBox="0 0 478 492" fill="none" xmlns="http://www.w3.org/2000/svg">
<g clip-path="url(#clip0_461_748)">
<path d="M361.614 0.319931L330.427 15.9656C329.285 16.4512 328.311 17.2623 327.627 18.2978C326.942 19.3333 326.578 20.5473 326.578 21.7887V36.3785C326.55 49.6419 330.417 62.6216 337.699 73.7061C343.318 82.2382 350.77 93.2125 363.17 99.4729H368.757C382.565 95.2069 392.864 84.0406 399.155 74.442C406.435 63.3569 410.302 50.3776 410.275 37.1143V21.7887C410.275 20.5488 409.912 19.3362 409.229 18.3011C408.547 17.2661 407.576 16.454 406.437 15.9656L370.911 0.821188C369.322 0.14929 363.192 -0.351967 361.614 0.319931Z" fill="#E0E0E0"/>
<path d="M360.355 0.821248L324.829 15.9656C323.687 16.4513 322.713 17.2624 322.029 18.2978C321.345 19.3333 320.98 20.5474 320.98 21.7887V36.3785C320.981 49.8951 324.99 63.1078 332.5 74.3446C340.01 85.5815 350.684 94.3376 363.17 99.5049C376.967 95.2389 387.266 84.0726 393.568 74.4741C400.849 63.3777 404.716 50.3879 404.688 37.1144V21.7887C404.689 20.5474 404.324 19.3333 403.64 18.2978C402.955 17.2624 401.981 16.4513 400.839 15.9656L365.313 0.821248C364.528 0.491263 363.686 0.321289 362.834 0.321289C361.983 0.321289 361.14 0.491263 360.355 0.821248Z" fill="#F5F5F5"/>
<path d="M404.57 33.1572C404.618 33.3778 404.64 33.6034 404.634 33.8291C404.634 34.3304 404.687 34.9703 404.719 35.7595C404.751 36.5487 404.805 37.6259 404.719 38.8204C404.634 40.0149 404.719 41.38 404.527 42.8731C404.335 44.3662 404.282 46.0726 403.973 47.7683C403.834 48.6429 403.728 49.5494 403.546 50.4773C403.365 51.4051 403.141 52.3436 402.939 53.3142C401.956 57.525 400.581 61.6346 398.834 65.5896C397.038 69.5252 394.897 73.2941 392.437 76.8519C391.253 78.4517 390.155 80.0514 388.982 81.3206C388.406 81.9925 387.916 82.675 387.33 83.2723L385.709 84.9894C384.696 86.0559 383.662 86.9944 382.798 87.8263C381.935 88.6581 381.146 89.3087 380.495 89.8313L379.098 91.0471C378.933 91.1988 378.75 91.3312 378.555 91.4417C378.697 91.2647 378.858 91.1037 379.034 90.9618L380.474 89.6713C381.103 89.1274 381.871 88.4448 382.702 87.5383C383.534 86.6318 384.557 85.7999 385.538 84.6694L387.127 82.931C387.671 82.3338 388.193 81.6512 388.748 80.9793C389.899 79.6462 390.965 78.0997 392.127 76.5C394.542 72.9583 396.646 69.2153 398.418 65.3123C400.146 61.3863 401.519 57.3139 402.523 53.1435L403.152 50.3279C403.344 49.4108 403.461 48.5042 403.61 47.6404C403.93 45.9126 404.058 44.2809 404.218 42.7878C404.378 41.2947 404.399 39.9509 404.485 38.7564C404.57 37.5619 404.559 36.5487 404.559 35.7062C404.559 34.8636 404.559 34.2771 404.559 33.7758C404.542 33.5698 404.545 33.3625 404.57 33.1572Z" fill="#E0E0E0"/>
<path d="M360.184 64.8753L339.809 48.6751L345.459 41.5615L359.128 52.4292L379.077 30.0859L385.858 36.1437L360.184 64.8753Z" fill="white"/>
<path d="M456.44 80.1589H452.58V59.1594C452.58 56.7834 451.637 54.5047 449.957 52.8247C448.278 51.1446 446 50.2007 443.624 50.2007C441.249 50.2007 438.971 51.1446 437.291 52.8247C435.612 54.5047 434.668 56.7834 434.668 59.1594V80.1589H430.809V59.1594C430.809 55.7651 432.157 52.5099 434.556 50.1098C436.955 47.7097 440.21 46.3613 443.603 46.3613C446.996 46.3613 450.251 47.7097 452.65 50.1098C455.049 52.5099 456.397 55.7651 456.397 59.1594L456.44 80.1589Z" fill="#EBEBEB"/>
<path d="M457.602 65.9102H429.635C427.822 65.9102 426.352 67.3808 426.352 69.195V89.7039C426.352 91.518 427.822 92.9887 429.635 92.9887H457.602C459.416 92.9887 460.886 91.518 460.886 89.7039V69.195C460.886 67.3808 459.416 65.9102 457.602 65.9102Z" fill="#EBEBEB"/>
<path d="M446.269 80.1477C446.612 79.7989 446.883 79.3857 447.066 78.9318C447.249 78.4778 447.341 77.9922 447.335 77.5028C447.34 76.7932 447.147 76.0962 446.777 75.4906C446.407 74.885 445.876 74.3949 445.242 74.0755C444.609 73.7561 443.899 73.6201 443.192 73.6829C442.485 73.7458 441.81 74.0049 441.243 74.4311C440.676 74.8573 440.239 75.4335 439.982 76.0949C439.724 76.7562 439.657 77.4763 439.787 78.1739C439.917 78.8715 440.24 79.5188 440.718 80.0428C441.197 80.5669 441.812 80.9467 442.495 81.1396L441.684 84.7443H445.299L444.574 81.1396C445.205 80.9592 445.778 80.6174 446.237 80.1477" fill="#FAFAFA"/>
<path d="M460.545 329.688C462.853 328.669 464.811 326.995 466.177 324.874C467.543 322.752 468.258 320.277 468.233 317.754C468.233 310.63 462.902 304.828 456.195 304.807C449.489 304.785 444.073 310.523 444.051 317.605C444.003 320.148 444.708 322.648 446.078 324.791C447.448 326.934 449.421 328.623 451.749 329.646C433.144 332.45 433.986 352.671 433.986 352.671L477.988 352.874C477.988 352.874 478.991 332.472 460.545 329.688Z" fill="#EBEBEB"/>
<path d="M262.745 35.6321C264.366 35.3137 265.86 34.5315 267.044 33.3804C268.229 32.2293 269.054 30.7589 269.42 29.1477C269.723 28.1138 269.813 27.0289 269.683 25.9592C269.554 24.8894 269.208 23.8573 268.666 22.9257C268.125 21.9941 267.4 21.1826 266.535 20.5406C265.669 19.8986 264.682 19.4396 263.634 19.1916C262.586 18.9435 261.498 18.9117 260.437 19.098C259.376 19.2843 258.364 19.6848 257.463 20.2751C256.562 20.8654 255.79 21.6331 255.195 22.5315C254.6 23.4298 254.194 24.44 254.003 25.5003C253.592 27.1173 253.671 28.8197 254.229 30.3918C254.787 31.9638 255.799 33.3348 257.137 34.331C244.844 33.3604 242.402 46.3931 242.402 46.3931L270.443 53.0375C270.443 53.0375 274.111 40.1008 262.745 35.6321Z" fill="#EBEBEB"/>
<path d="M461.749 144.202C463.094 143.361 464.162 142.143 464.821 140.701C465.481 139.258 465.703 137.653 465.459 136.086C465.379 135.048 465.087 134.038 464.602 133.117C464.116 132.197 463.446 131.386 462.635 130.734C461.824 130.083 460.887 129.605 459.884 129.329C458.88 129.054 457.831 128.987 456.801 129.133C455.771 129.279 454.781 129.635 453.894 130.178C453.007 130.722 452.24 131.442 451.642 132.293C451.043 133.145 450.626 134.11 450.415 135.129C450.204 136.148 450.204 137.2 450.415 138.219C450.612 139.806 451.275 141.299 452.321 142.508C453.367 143.718 454.748 144.589 456.29 145.013C444.978 148.436 447.313 160.935 447.313 160.935L474.693 157.107C474.693 157.107 473.467 144.277 461.749 144.202Z" fill="#F5F5F5"/>
<path d="M22.4221 148.074L7.64453 136.31L11.7387 131.148L21.6544 139.04L36.1335 122.829L41.0593 127.223L22.4221 148.074Z" fill="#F5F5F5"/>
<path d="M42.6073 165.106L9.90688 181.519C8.72058 182.036 7.71169 182.889 7.00489 183.973C6.2981 185.058 5.92439 186.325 5.92995 187.62V202.924C5.8924 216.845 9.94475 230.47 17.5835 242.107C23.4796 251.087 31.2949 262.563 44.2919 269.122H50.156C64.6351 264.707 75.4357 252.943 82.0355 242.875C89.6775 231.239 93.7335 217.614 93.6998 203.692V187.62C93.6981 186.32 93.3154 185.049 92.599 183.965C91.8827 182.881 90.8641 182.03 89.6695 181.519L52.3631 165.639C50.7105 164.935 44.3132 164.402 42.6073 165.106Z" fill="#08A7B7"/>
<path opacity="0.3" d="M42.6073 165.106L9.90688 181.519C8.72058 182.036 7.71169 182.889 7.00489 183.973C6.2981 185.058 5.92439 186.325 5.92995 187.62V202.924C5.8924 216.845 9.94475 230.47 17.5835 242.107C23.4796 251.087 31.2949 262.563 44.2919 269.122H50.156C64.6351 264.707 75.4357 252.943 82.0355 242.875C89.6775 231.239 93.7335 217.614 93.6998 203.692V187.62C93.6981 186.32 93.3154 185.049 92.599 183.965C91.8827 182.881 90.8641 182.03 89.6695 181.519L52.3631 165.639C50.7105 164.935 44.3132 164.402 42.6073 165.106Z" fill="black"/>
<path d="M41.294 165.639L4.03025 181.519C2.83562 182.03 1.81708 182.881 1.10073 183.965C0.384379 185.049 0.0016765 186.32 0 187.62V202.924C0.000834892 217.098 4.20428 230.952 12.0786 242.736C19.9529 254.519 31.1442 263.702 44.2367 269.122C58.7051 264.707 69.5058 252.943 76.1162 242.875C83.7582 231.239 87.8142 217.614 87.7805 203.692V187.62C87.7797 186.321 87.3986 185.051 86.6842 183.967C85.9698 182.883 84.9535 182.032 83.7609 181.519L46.4438 165.639C45.6285 165.297 44.7531 165.12 43.8689 165.12C42.9847 165.12 42.1093 165.297 41.294 165.639Z" fill="#08A7B7"/>
<path opacity="0.3" d="M52.7214 235.055C65.299 230.175 71.5402 216.02 66.6617 203.439C61.7832 190.858 47.6324 184.615 35.0548 189.495C22.4773 194.374 16.2361 208.529 21.1145 221.11C25.993 233.691 40.1439 239.935 52.7214 235.055Z" fill="black"/>
<path d="M43.8857 213.632C49.4856 213.632 54.0253 209.091 54.0253 203.489C54.0253 197.888 49.4856 193.347 43.8857 193.347C38.2857 193.347 33.7461 197.888 33.7461 203.489C33.7461 209.091 38.2857 213.632 43.8857 213.632Z" fill="white"/>
<path d="M25.375 228.2C27.0057 224.787 29.5792 221.913 32.7912 219.917C36.0033 217.922 39.7195 216.888 43.5004 216.938C47.3775 216.938 51.1826 217.985 54.5151 219.967C57.8475 221.949 60.584 224.793 62.4362 228.2C62.4362 228.2 56.4548 237.052 43.2446 236.732C39.8209 236.718 36.4429 235.946 33.3531 234.471C30.2634 232.995 27.5388 230.854 25.375 228.2Z" fill="white"/>
<path d="M68.3127 212.277C68.3006 212.146 68.3006 212.014 68.3127 211.883C68.3127 211.595 68.3127 211.211 68.2168 210.731C68.2168 210.475 68.2168 210.187 68.2168 209.878C68.2168 209.568 68.1102 209.227 68.0569 208.811C67.9457 207.965 67.7747 207.127 67.5451 206.305C66.9654 204.027 66.049 201.849 64.8263 199.842C63.2225 197.178 61.1233 194.847 58.6423 192.973C55.6451 190.693 52.1532 189.152 48.4494 188.473C44.1972 187.69 39.8131 188.058 35.7509 189.539C34.6516 189.921 33.5824 190.384 32.5523 190.926C31.5222 191.49 30.5319 192.125 29.5883 192.824C28.6284 193.546 27.7134 194.326 26.8481 195.16C26 196.039 25.2094 196.973 24.4811 197.954C22.9885 199.976 21.8261 202.222 21.0373 204.609C19.3739 209.557 19.3739 214.912 21.0373 219.86C21.8214 222.249 22.9842 224.496 24.4811 226.515C25.2093 227.5 25.9999 228.437 26.8481 229.32C27.7107 230.153 28.626 230.929 29.5883 231.645C31.4394 233.057 33.501 234.169 35.6976 234.94C39.7597 236.422 44.1439 236.79 48.3961 236.007C51.7731 235.371 54.9777 234.028 57.8 232.067C60.6222 230.106 62.9984 227.571 64.773 224.627C65.9821 222.634 66.8843 220.469 67.4491 218.207C67.6778 217.381 67.8488 216.54 67.9609 215.69C67.9609 215.327 68.0888 214.986 68.1208 214.623C68.1528 214.261 68.1208 214.026 68.1208 213.77L68.2168 212.608C68.2059 212.476 68.2059 212.344 68.2168 212.213C68.2283 212.344 68.2283 212.476 68.2168 212.608C68.2168 212.906 68.2168 213.29 68.2168 213.781C68.2168 214.037 68.2168 214.325 68.2168 214.634C68.2168 214.943 68.1315 215.295 68.0782 215.701C67.9929 216.562 67.836 217.414 67.609 218.25C67.0681 220.56 66.1725 222.773 64.9542 224.809C62.0568 229.756 57.5181 233.533 52.1266 235.481C46.735 237.429 40.8315 237.427 35.4417 235.474C34.3442 235.079 33.2754 234.609 32.2431 234.066C31.1936 233.475 30.1887 232.809 29.2364 232.071C28.2447 231.344 27.3042 230.55 26.4216 229.693C25.5729 228.807 24.7823 227.866 24.0547 226.878C22.5198 224.813 21.3248 222.516 20.5149 220.073C19.7052 217.553 19.2775 214.925 19.2461 212.277C19.2757 209.629 19.7071 207 20.5255 204.481C21.3274 202.037 22.5192 199.74 24.0547 197.677C24.8043 196.674 25.6162 195.719 26.4856 194.818C27.365 193.963 28.3019 193.168 29.2897 192.44C30.2351 191.719 31.229 191.063 32.2644 190.478C33.2966 189.932 34.3653 189.458 35.463 189.059C39.6092 187.557 44.0814 187.188 48.4174 187.993C51.8568 188.654 55.1153 190.043 57.9746 192.066C60.8339 194.09 63.2281 196.701 64.9969 199.724C66.2154 201.764 67.1109 203.98 67.6517 206.294C67.8786 207.126 68.0355 207.975 68.1208 208.832C68.1208 209.206 68.2381 209.547 68.2594 209.899V210.763C68.2594 211.253 68.2594 211.637 68.2594 211.925C68.287 212.041 68.3048 212.159 68.3127 212.277Z" fill="#263238"/>
<path d="M87.6534 199.543C87.7031 199.778 87.7281 200.018 87.7281 200.258C87.7281 200.77 87.7281 201.442 87.8134 202.284C87.8987 203.127 87.8987 204.236 87.8134 205.484C87.8134 206.113 87.8134 206.774 87.8134 207.489C87.8134 208.203 87.8134 208.95 87.6747 209.728C87.5255 211.296 87.4189 213.024 87.0883 214.858C86.9497 215.775 86.8324 216.725 86.6405 217.695C86.4486 218.666 86.2141 219.657 86.0008 220.681C84.9755 225.09 83.5479 229.396 81.736 233.543C79.8636 237.67 77.6263 241.621 75.0509 245.35C73.8141 247.024 72.6733 248.645 71.4365 250.042C70.8394 250.746 70.285 251.461 69.6986 252.09L68.0033 253.882C66.9371 255.065 65.8709 256.015 64.954 256.857C64.1868 257.612 63.3788 258.324 62.5337 258.99L60.9557 260.27C60.7826 260.425 60.5932 260.561 60.3906 260.675C60.5422 260.497 60.71 260.332 60.8917 260.185L62.3951 258.83C63.0668 258.254 63.8664 257.54 64.7407 256.697C65.615 255.855 66.6812 254.863 67.7154 253.679L69.3787 251.866C69.9545 251.237 70.4449 250.522 71.0846 249.818C72.2894 248.421 73.409 246.8 74.6351 245.115C77.1658 241.402 79.3704 237.477 81.2242 233.383C83.026 229.254 84.4533 224.97 85.489 220.585L86.1501 217.62C86.342 216.661 86.4699 215.711 86.6299 214.805C86.9711 212.992 87.099 211.275 87.2696 209.718C87.3656 208.939 87.4295 208.193 87.4508 207.489L87.5468 205.494C87.6428 204.247 87.6214 203.169 87.6214 202.295C87.6214 201.42 87.6214 200.791 87.6214 200.268C87.6139 200.026 87.6246 199.784 87.6534 199.543Z" fill="#263238"/>
<path d="M346.911 476.664H94.7968C93.145 476.636 91.5149 476.283 89.9997 475.624C88.4845 474.966 87.1139 474.015 85.9662 472.827C84.8185 471.638 83.9163 470.235 83.3112 468.697C82.7061 467.16 82.4099 465.518 82.4395 463.866V78.4094C82.4099 76.7572 82.7061 75.1153 83.3112 73.5777C83.9163 72.0401 84.8185 70.6369 85.9662 69.4483C87.1139 68.2597 88.4845 67.309 89.9997 66.6506C91.5149 65.9923 93.145 65.6391 94.7968 65.6113H346.911C348.562 65.6391 350.192 65.9923 351.707 66.6508C353.221 67.3093 354.591 68.2602 355.738 69.4489C356.885 70.6377 357.786 72.041 358.39 73.5785C358.994 75.1161 359.289 76.7577 359.258 78.4094V463.887C359.286 465.537 358.989 467.176 358.384 468.711C357.779 470.246 356.877 471.647 355.73 472.834C354.584 474.02 353.215 474.969 351.702 475.626C350.188 476.283 348.561 476.636 346.911 476.664Z" fill="#263238"/>
<path d="M225.685 457.968C225.725 460.296 225.072 462.584 223.808 464.54C222.544 466.495 220.726 468.031 218.587 468.95C216.448 469.869 214.084 470.13 211.796 469.701C209.507 469.271 207.399 468.17 205.738 466.538C204.078 464.906 202.94 462.816 202.471 460.535C202.002 458.254 202.222 455.885 203.103 453.729C203.985 451.574 205.488 449.729 207.421 448.431C209.353 447.133 211.629 446.439 213.957 446.439C217.04 446.413 220.007 447.613 222.207 449.775C224.406 451.937 225.657 454.884 225.685 457.968Z" fill="#455A64"/>
<path d="M249.216 87.3463H192.707C192.181 87.3379 191.661 87.2259 191.178 87.0167C190.695 86.8074 190.257 86.505 189.891 86.1266C189.525 85.7483 189.236 85.3015 189.043 84.8117C188.849 84.322 188.754 83.7988 188.762 83.2722C188.745 82.2076 189.151 81.1797 189.89 80.414C190.63 79.6482 191.643 79.2071 192.707 79.1875H249.216C250.28 79.2071 251.293 79.6482 252.033 80.414C252.772 81.1797 253.178 82.2076 253.161 83.2722C253.169 83.7988 253.074 84.322 252.88 84.8117C252.687 85.3015 252.398 85.7483 252.032 86.1266C251.666 86.505 251.229 86.8074 250.745 87.0167C250.262 87.2259 249.742 87.3379 249.216 87.3463Z" fill="#455A64"/>
<path d="M350.29 94.9619H90.9258V438.227H350.29V94.9619Z" fill="white"/>
<path d="M350.29 94.9619H339.223V438.227H350.29V94.9619Z" fill="#F5F5F5"/>
<path d="M344.756 218.282C343.842 218.279 342.966 217.914 342.321 217.266C341.675 216.618 341.312 215.741 341.313 214.826V138.902C341.312 137.987 341.675 137.11 342.321 136.462C342.966 135.814 343.842 135.449 344.756 135.446C345.673 135.446 346.551 135.81 347.199 136.458C347.847 137.106 348.211 137.985 348.211 138.902V214.826C348.211 215.743 347.847 216.622 347.199 217.27C346.551 217.918 345.673 218.282 344.756 218.282Z" fill="#E0E0E0"/>
<path d="M316.47 173.073H125.236C123.777 173.073 122.378 172.493 121.346 171.461C120.314 170.429 119.734 169.029 119.734 167.57C119.734 166.11 120.314 164.71 121.346 163.678C122.378 162.646 123.777 162.066 125.236 162.066H316.47C317.929 162.066 319.329 162.646 320.36 163.678C321.392 164.71 321.972 166.11 321.972 167.57C321.972 169.029 321.392 170.429 320.36 171.461C319.329 172.493 317.929 173.073 316.47 173.073Z" fill="#E0E0E0"/>
<path d="M287.055 132.886H166.756C165.296 132.886 163.897 132.306 162.865 131.274C161.834 130.242 161.254 128.843 161.254 127.383C161.254 125.924 161.834 124.524 162.865 123.492C163.897 122.46 165.296 121.88 166.756 121.88H287.055C288.514 121.88 289.914 122.46 290.945 123.492C291.977 124.524 292.557 125.924 292.557 127.383C292.557 128.843 291.977 130.242 290.945 131.274C289.914 132.306 288.514 132.886 287.055 132.886Z" fill="#08A7B7"/>
<path d="M289.314 195.224H152.392C150.933 195.224 149.534 194.644 148.502 193.612C147.47 192.58 146.891 191.18 146.891 189.721C146.891 188.261 147.47 186.862 148.502 185.83C149.534 184.798 150.933 184.218 152.392 184.218H289.314C290.036 184.218 290.752 184.36 291.419 184.637C292.087 184.913 292.693 185.319 293.204 185.83C293.715 186.341 294.12 186.947 294.397 187.615C294.673 188.283 294.816 188.998 294.816 189.721C294.816 190.444 294.673 191.159 294.397 191.827C294.12 192.495 293.715 193.101 293.204 193.612C292.693 194.123 292.087 194.529 291.419 194.805C290.752 195.082 290.036 195.224 289.314 195.224Z" fill="#E0E0E0"/>
<path d="M227.498 291.795H122.146C120.687 291.795 119.288 291.216 118.256 290.184C117.224 289.152 116.645 287.752 116.645 286.292C116.645 285.57 116.787 284.854 117.063 284.186C117.34 283.519 117.745 282.912 118.256 282.401C118.767 281.89 119.373 281.485 120.041 281.208C120.708 280.931 121.424 280.789 122.146 280.789H227.498C228.22 280.789 228.936 280.931 229.603 281.208C230.27 281.485 230.877 281.89 231.388 282.401C231.899 282.912 232.304 283.519 232.58 284.186C232.857 284.854 232.999 285.57 232.999 286.292C232.999 287.752 232.42 289.152 231.388 290.184C230.356 291.216 228.957 291.795 227.498 291.795Z" fill="#E0E0E0"/>
<path d="M313.38 268.727H122.146C120.687 268.727 119.288 268.147 118.256 267.115C117.224 266.083 116.645 264.683 116.645 263.224C116.645 262.502 116.787 261.787 117.064 261.12C117.34 260.453 117.746 259.847 118.257 259.336C118.768 258.826 119.374 258.422 120.042 258.146C120.709 257.871 121.424 257.73 122.146 257.731H313.38C314.102 257.73 314.817 257.871 315.485 258.146C316.152 258.422 316.759 258.826 317.27 259.336C317.781 259.847 318.186 260.453 318.463 261.12C318.739 261.787 318.882 262.502 318.882 263.224C318.882 263.947 318.74 264.662 318.463 265.33C318.187 265.998 317.781 266.604 317.27 267.115C316.76 267.626 316.153 268.032 315.486 268.308C314.818 268.585 314.103 268.727 313.38 268.727Z" fill="#E0E0E0"/>
<path d="M313.381 331.949H145.998C142.959 331.949 140.496 334.413 140.496 337.452C140.496 340.492 142.959 342.956 145.998 342.956H313.381C316.419 342.956 318.882 340.492 318.882 337.452C318.882 334.413 316.419 331.949 313.381 331.949Z" fill="#E0E0E0"/>
<path d="M313.38 366.451H122.146C120.687 366.451 119.288 365.871 118.256 364.839C117.224 363.807 116.645 362.407 116.645 360.948C116.65 359.492 117.232 358.098 118.263 357.07C119.295 356.043 120.691 355.466 122.146 355.466H313.38C314.103 355.466 314.818 355.608 315.486 355.885C316.153 356.161 316.76 356.567 317.27 357.078C317.781 357.589 318.187 358.195 318.463 358.863C318.74 359.531 318.882 360.246 318.882 360.969C318.876 362.425 318.294 363.819 317.263 364.847C316.232 365.874 314.836 366.451 313.38 366.451Z" fill="#E0E0E0"/>
<path d="M313.38 390.362H122.146C120.687 390.362 119.288 389.782 118.256 388.75C117.224 387.718 116.645 386.318 116.645 384.859C116.645 383.399 117.224 381.999 118.256 380.967C119.288 379.935 120.687 379.355 122.146 379.355H313.38C314.103 379.355 314.818 379.498 315.486 379.774C316.153 380.051 316.76 380.456 317.27 380.967C317.781 381.478 318.187 382.085 318.463 382.753C318.74 383.42 318.882 384.136 318.882 384.859C318.882 386.318 318.302 387.718 317.27 388.75C316.239 389.782 314.839 390.362 313.38 390.362Z" fill="#E0E0E0"/>
<path d="M130.75 337.453C130.75 338.584 130.415 339.689 129.786 340.63C129.158 341.57 128.265 342.303 127.22 342.735C126.175 343.167 125.025 343.28 123.916 343.059C122.807 342.837 121.789 342.292 120.99 341.491C120.192 340.691 119.648 339.671 119.429 338.561C119.21 337.452 119.324 336.302 119.758 335.258C120.193 334.213 120.927 333.321 121.868 332.695C122.809 332.068 123.915 331.734 125.046 331.736C126.56 331.739 128.011 332.343 129.08 333.414C130.149 334.486 130.75 335.939 130.75 337.453Z" fill="#08A7B7"/>
<path d="M313.38 247.237H145.986C144.527 247.237 143.128 246.657 142.096 245.625C141.064 244.593 140.484 243.193 140.484 241.734C140.484 240.274 141.064 238.874 142.096 237.842C143.128 236.81 144.527 236.23 145.986 236.23H313.38C314.102 236.23 314.818 236.373 315.485 236.649C316.153 236.926 316.759 237.331 317.27 237.842C317.781 238.353 318.186 238.96 318.463 239.628C318.739 240.295 318.881 241.011 318.881 241.734C318.881 242.456 318.739 243.172 318.463 243.84C318.186 244.507 317.781 245.114 317.27 245.625C316.759 246.136 316.153 246.541 315.485 246.818C314.818 247.094 314.102 247.237 313.38 247.237Z" fill="#E0E0E0"/>
<path d="M125.035 247.451C128.191 247.451 130.75 244.891 130.75 241.734C130.75 238.577 128.191 236.018 125.035 236.018C121.879 236.018 119.32 238.577 119.32 241.734C119.32 244.891 121.879 247.451 125.035 247.451Z" fill="#08A7B7"/>
<path d="M308.038 425.354H265.124C262.799 425.354 260.57 424.43 258.926 422.786C257.283 421.142 256.359 418.912 256.359 416.587C256.359 414.262 257.283 412.032 258.926 410.388C260.57 408.744 262.799 407.82 265.124 407.82H308.038C310.363 407.82 312.592 408.744 314.235 410.388C315.879 412.032 316.802 414.262 316.802 416.587C316.802 418.912 315.879 421.142 314.235 422.786C312.592 424.43 310.363 425.354 308.038 425.354Z" fill="#08A7B7"/>
<path d="M86.9616 11.6787L42.4796 34.0006C40.8519 34.6928 39.4635 35.8484 38.4873 37.3237C37.511 38.799 36.9898 40.5288 36.9887 42.298V63.1162C36.936 82.0627 42.4532 100.607 52.8538 116.441C60.8716 128.621 71.491 144.235 89.1793 153.151H97.1545C116.837 147.146 131.529 131.138 140.517 117.455C150.918 101.62 156.435 83.0759 156.382 64.1294V42.298C156.384 40.5336 155.87 38.8072 154.901 37.3324C153.933 35.8577 152.553 34.6993 150.934 34.0006L100.225 12.3719C97.9648 11.444 89.2219 10.7188 86.9616 11.6787Z" fill="#08A7B7"/>
<path opacity="0.3" d="M86.9616 11.6787L42.4796 34.0006C40.8519 34.6928 39.4635 35.8484 38.4873 37.3237C37.511 38.799 36.9898 40.5288 36.9887 42.298V63.1162C36.936 82.0627 42.4532 100.607 52.8538 116.441C60.8716 128.621 71.491 144.235 89.1793 153.151H97.1545C116.837 147.146 131.529 131.138 140.517 117.455C150.918 101.62 156.435 83.0759 156.382 64.1294V42.298C156.384 40.5336 155.87 38.8072 154.901 37.3324C153.933 35.8577 152.553 34.6993 150.934 34.0006L100.225 12.3719C97.9648 11.444 89.2219 10.7188 86.9616 11.6787Z" fill="black"/>
<path d="M85.1686 12.3719L34.492 34.0006C32.8655 34.6933 31.4786 35.8493 30.5041 37.3248C29.5296 38.8002 29.0106 40.5297 29.0117 42.298V63.1162C29.0143 82.3931 34.7319 101.236 45.4415 117.262C56.151 133.288 71.3714 145.778 89.1775 153.151C108.86 147.146 123.552 131.138 132.529 117.455C142.935 101.622 148.452 83.0767 148.394 64.1294V42.298C148.396 40.5297 147.877 38.8002 146.902 37.3248C145.928 35.8493 144.541 34.6933 142.914 34.0006L92.2908 12.3719C91.1655 11.8896 89.954 11.6409 88.7297 11.6409C87.5055 11.6409 86.2939 11.8896 85.1686 12.3719Z" fill="#08A7B7"/>
<path d="M148.233 58.5195C148.246 58.6008 148.246 58.6836 148.233 58.7648C148.233 58.9568 148.233 59.1914 148.233 59.4794C148.233 60.162 148.286 61.0791 148.329 62.2416C148.372 63.4041 148.436 64.8972 148.329 66.6036C148.329 67.4568 148.329 68.3634 148.244 69.3232C148.244 69.8138 148.244 70.3044 148.244 70.8163C148.244 71.3283 148.148 71.8828 148.095 72.3841C147.881 74.5171 147.743 76.8634 147.295 79.3484C147.092 80.5855 146.932 81.8867 146.677 83.1985C146.421 84.5103 146.101 85.8647 145.802 87.2512C144.394 93.2459 142.435 99.0975 139.949 104.731C137.409 110.339 134.376 115.711 130.886 120.782C129.201 123.064 127.687 125.272 125.982 127.181C125.161 128.141 124.414 129.111 123.615 129.965L121.312 132.418C119.883 134.017 118.411 135.287 117.185 136.47C116.556 137.046 115.991 137.601 115.447 138.081L113.955 139.286L111.822 141.035L111.257 141.483C111.129 141.579 111.055 141.622 111.055 141.611C111.055 141.6 111.055 141.547 111.215 141.43L111.748 140.95L113.805 139.126L115.309 137.814C115.853 137.334 116.375 136.748 117.015 136.172C118.22 134.977 119.659 133.697 121.066 132.087L123.337 129.613C124.126 128.76 124.862 127.789 125.662 126.829C127.314 124.931 128.86 122.723 130.502 120.43C133.958 115.369 136.965 110.017 139.49 104.433C141.954 98.8272 143.913 93.013 145.344 87.0592C145.653 85.6834 145.941 84.3396 146.239 83.0385C146.538 81.7373 146.666 80.4362 146.879 79.1991C147.348 76.7248 147.508 74.3891 147.743 72.2668C147.807 71.7442 147.86 71.2003 147.913 70.7203C147.967 70.2404 147.913 69.7178 147.977 69.2379C148.02 68.2781 148.063 67.3715 148.105 66.5183C148.223 64.8226 148.191 63.3188 148.191 62.167V59.4901V58.7648C148.189 58.6811 148.203 58.5977 148.233 58.5195Z" fill="#263238"/>
<path d="M108.776 86.4939H103.37V57.069C103.275 53.8017 101.911 50.7002 99.5665 48.4228C97.2225 46.1455 94.0834 44.8716 90.8157 44.8716C87.5479 44.8716 84.4089 46.1455 82.0648 48.4228C79.7208 50.7002 78.3563 53.8017 78.2611 57.069V86.4939H72.8555V57.069C72.9697 52.3801 74.9121 47.9217 78.2678 44.6458C81.6235 41.3699 86.1267 39.5361 90.8157 39.5361C95.5046 39.5361 100.008 41.3699 103.364 44.6458C106.719 47.9217 108.662 52.3801 108.776 57.069V86.4939Z" fill="#F5F5F5"/>
<path d="M108.816 66.5293H72.8001C69.3789 66.5293 66.6055 69.3035 66.6055 72.7257V98.2791C66.6055 101.701 69.3789 104.476 72.8001 104.476H108.816C112.238 104.476 115.011 101.701 115.011 98.2791V72.7257C115.011 69.3035 112.238 66.5293 108.816 66.5293Z" fill="white"/>
<path d="M108.827 104.475C109.369 104.418 109.907 104.325 110.437 104.198C111.728 103.825 112.862 103.039 113.665 101.96C114.468 100.882 114.896 99.5699 114.883 98.2252C114.883 96.9774 114.883 95.623 114.883 94.1618C114.883 91.2503 114.883 87.9335 114.883 84.2647C114.883 80.5959 114.883 76.5965 114.883 72.2878C114.803 71.214 114.433 70.1819 113.814 69.3012C113.194 68.4205 112.348 67.7241 111.364 67.2859C110.315 66.854 109.179 66.6785 108.048 66.774H104.466L72.8104 66.7633C71.4798 66.7629 70.1879 67.211 69.1432 68.0353C68.0986 68.8597 67.3622 70.0121 67.0529 71.3066C66.9145 71.9511 66.8572 72.6103 66.8823 73.269V79.2734C66.8823 84.606 66.8823 89.6399 66.8823 94.4925C66.9782 96.9028 66.4771 99.3877 67.7139 101.286C68.2615 102.219 69.0511 102.986 69.999 103.506C70.9469 104.026 72.0178 104.28 73.0982 104.24H85.093L102.461 104.336H107.174H108.4C108.542 104.323 108.685 104.323 108.827 104.336C108.685 104.352 108.542 104.352 108.4 104.336H107.174H102.461L85.093 104.422H73.0982C72.2173 104.461 71.3376 104.32 70.5135 104.006C69.6893 103.692 68.9383 103.212 68.3068 102.596C67.6753 101.981 67.1767 101.242 66.8418 100.426C66.507 99.6099 66.3429 98.7339 66.3598 97.8519V94.4925C66.3598 89.6399 66.3598 84.5526 66.3598 79.2734V73.3117C66.3278 72.5958 66.3887 71.8788 66.5411 71.1787C66.8875 69.7809 67.6952 68.5409 68.8334 67.6592C69.9811 66.7512 71.4005 66.2554 72.8637 66.2514H104.402H107.984C109.186 66.1596 110.393 66.3571 111.503 66.8273C112.563 67.301 113.475 68.0545 114.14 69.0071C114.805 69.9597 115.198 71.0754 115.277 72.2345C115.277 76.5858 115.277 80.5746 115.277 84.2433C115.277 87.9121 115.277 91.229 115.277 94.1405C115.277 95.6016 115.277 96.9561 115.277 98.2039C115.278 99.3718 114.953 100.517 114.339 101.51C113.503 102.889 112.159 103.885 110.597 104.283C110.024 104.457 109.423 104.522 108.827 104.475Z" fill="#263238"/>
<path d="M94.5289 86.4838C95.0169 85.997 95.4038 85.4185 95.6673 84.7815C95.9308 84.1445 96.0657 83.4617 96.0643 82.7723C96.0705 81.7787 95.7991 80.8031 95.2807 79.9556C94.7622 79.108 94.0173 78.4222 93.1301 77.9755C92.2428 77.5288 91.2483 77.339 90.259 77.4274C89.2696 77.5158 88.3245 77.879 87.5305 78.476C86.7364 79.0729 86.1249 79.88 85.7648 80.806C85.4048 81.7321 85.3106 82.7403 85.4928 83.7171C85.6751 84.6938 86.1265 85.6002 86.7962 86.3341C87.466 87.0679 88.3273 87.5999 89.2832 87.8702L88.1424 92.9254H93.2068L92.1406 87.8702C93.0256 87.6174 93.83 87.1398 94.4756 86.4838" fill="#08A7B7"/>
<path d="M424.754 124.536V167.75C424.85 175.216 425.948 186.947 414.092 186.564C403.867 185.497 401.148 175.76 401.074 168.785C401.074 165.479 400.999 162.716 400.967 162.386C400.967 162.386 389.772 161.469 388.823 150.398C388.365 145.066 388.322 133.964 388.397 123.928C388.442 118.73 390.441 113.74 393.997 109.95C397.553 106.16 402.405 103.847 407.588 103.472L408.654 103.397C420.244 103.227 424.946 112.964 424.754 124.536Z" fill="#FFBF9D"/>
<path d="M401 162.386C406.115 161.993 411.01 160.143 415.106 157.054C415.106 157.054 412.184 165.404 401.064 165.212L401 162.386Z" fill="#FF9A6C"/>
<path d="M407.342 128.471C407.565 128.695 408.845 127.66 410.689 127.618C412.534 127.575 413.888 128.471 414.123 128.236C414.357 128.001 413.995 127.714 413.387 127.298C412.576 126.752 411.613 126.476 410.636 126.508C409.667 126.539 408.733 126.879 407.971 127.479C407.416 127.948 407.235 128.364 407.342 128.471Z" fill="#263238"/>
<path d="M407.313 133.708C407.335 134.1 407.51 134.468 407.802 134.732C408.093 134.995 408.477 135.133 408.869 135.116C409.06 135.117 409.25 135.08 409.427 135.007C409.603 134.934 409.764 134.826 409.898 134.69C410.032 134.553 410.138 134.392 410.208 134.214C410.279 134.036 410.313 133.846 410.309 133.655C410.284 133.265 410.109 132.901 409.82 132.638C409.532 132.375 409.153 132.235 408.763 132.247C408.571 132.247 408.382 132.285 408.205 132.358C408.029 132.432 407.868 132.54 407.733 132.675C407.599 132.811 407.492 132.972 407.42 133.15C407.348 133.327 407.311 133.517 407.313 133.708Z" fill="#263238"/>
<path d="M402.705 141.418C401.786 141.204 400.844 141.104 399.901 141.119C399.464 141.119 399.048 141.045 398.952 140.757C398.881 140.31 398.948 139.853 399.144 139.445C399.485 138.379 399.826 137.237 400.21 136.043C401.65 131.201 402.662 127.234 402.471 127.18C402.279 127.127 400.946 130.998 399.506 135.84C399.165 137.035 398.835 138.176 398.515 139.264C398.283 139.807 398.249 140.415 398.419 140.981C398.491 141.131 398.596 141.262 398.728 141.364C398.859 141.466 399.013 141.535 399.176 141.567C399.424 141.597 399.674 141.597 399.922 141.567C400.853 141.628 401.787 141.578 402.705 141.418Z" fill="#263238"/>
<path d="M408.132 120.578C408.314 120.994 409.796 120.685 411.576 120.77C413.357 120.856 414.775 121.25 415.02 120.856C415.105 120.674 414.828 120.291 414.231 119.928C413.435 119.481 412.545 119.229 411.634 119.192C410.722 119.155 409.815 119.334 408.985 119.715C408.356 120.024 408.058 120.387 408.132 120.578Z" fill="#263238"/>
<path d="M390.53 123.352C390.733 123.693 392.172 123.352 393.932 123.267C395.691 123.181 397.13 123.437 397.322 123.085C397.397 122.915 397.109 122.616 396.501 122.349C395.679 122.021 394.795 121.875 393.91 121.923C393.014 121.947 392.134 122.166 391.33 122.563C390.733 122.872 390.445 123.192 390.53 123.352Z" fill="#263238"/>
<path d="M373.769 113.999C373.831 113.774 373.937 113.563 374.082 113.38C374.227 113.197 374.407 113.045 374.611 112.932C375.495 112.53 376.471 112.371 377.436 112.473C380.389 112.419 383.269 111.544 385.753 109.946C386.913 108.279 388.207 106.709 389.623 105.253C392.982 101.798 395.732 99.4408 398.59 98.289C402.279 96.8065 408.452 96.156 412.301 97.2225C416.15 98.289 419.605 101.36 420.148 105.296C422.281 103.472 425.543 103.494 428.177 104.549H428.241C431.162 105.616 432.826 108.687 433.689 111.674C434.553 114.66 434.926 117.859 436.504 120.536C436.835 121.091 437.229 121.763 436.941 122.349C436.808 122.562 436.613 122.728 436.382 122.828C436.152 122.927 435.897 122.953 435.651 122.904C435.157 122.798 434.692 122.587 434.286 122.285C434.617 123.075 434.937 123.853 435.267 124.632C434.2 124.817 433.104 124.748 432.069 124.429C431.531 127.091 430.837 129.719 429.99 132.3C428.898 132.171 427.797 132.44 426.887 133.057C425.821 133.985 425.405 135.723 423.688 135.062C422.825 134.721 422.036 132.929 421.737 132.023C419.809 126.116 419.172 119.864 419.871 113.689C418.658 112.397 417.211 111.348 415.606 110.596L415.734 110.714C412.642 109.647 409.145 108.581 406.213 110.031C403.942 111.162 402.609 113.519 400.882 115.364C399.319 117.118 397.415 118.535 395.287 119.531C393.159 120.526 390.851 121.079 388.504 121.155C388.344 124.269 388.6 128.674 388.44 131.82L385.817 126.829C385.611 126.483 385.422 126.127 385.252 125.762V125.655C384.989 125.046 384.694 124.452 384.367 123.874C384.004 124.166 383.548 124.319 383.083 124.304C382.617 124.289 382.172 124.108 381.828 123.794C381.484 123.479 381.264 123.052 381.208 122.59C381.151 122.128 381.262 121.66 381.52 121.272C381.783 120.91 382.099 120.59 382.458 120.323C382.078 120.694 381.607 120.959 381.093 121.091C380.578 121.224 380.038 121.22 379.526 121.08C379.018 120.925 378.576 120.607 378.268 120.175C377.959 119.743 377.802 119.222 377.82 118.691C377.864 118.334 378.001 117.995 378.216 117.707C378.431 117.419 378.717 117.192 379.046 117.049C377.673 117.159 376.299 116.854 375.101 116.174C374.248 115.716 373.481 114.98 373.769 113.999Z" fill="#263238"/>
<path d="M416.641 106.586C417.026 106.91 417.383 107.267 417.707 107.652C418.583 108.706 419.167 109.971 419.402 111.321C419.596 112.247 419.692 113.191 419.69 114.137C419.69 115.203 419.615 116.27 419.53 117.4C419.429 118.606 419.405 119.817 419.455 121.026C419.485 121.672 419.567 122.314 419.701 122.946C419.8 123.62 420.068 124.259 420.479 124.802C420.673 125.017 420.919 125.178 421.194 125.27C421.468 125.362 421.762 125.38 422.046 125.324C422.587 125.225 423.079 124.947 423.443 124.535C424.046 123.71 424.414 122.737 424.509 121.72H424.285C424.615 122.557 425.068 123.341 425.629 124.045C426.165 124.692 426.927 125.111 427.761 125.218C428.153 125.257 428.548 125.187 428.902 125.015C429.232 124.843 429.503 124.575 429.68 124.247C429.84 123.945 429.921 123.608 429.915 123.266C429.898 122.948 429.77 122.646 429.552 122.413L429.435 122.52C430.095 123.273 430.904 123.88 431.813 124.301C432.133 124.443 432.378 124.539 432.548 124.589L432.815 124.653L432.57 124.546C432.399 124.471 432.154 124.375 431.855 124.226C430.975 123.78 430.193 123.164 429.552 122.413L429.435 122.52C429.616 122.752 429.721 123.034 429.735 123.329C429.748 123.623 429.669 123.914 429.51 124.162C429.352 124.451 429.111 124.685 428.817 124.834C428.485 124.993 428.115 125.053 427.75 125.004C426.972 124.915 426.255 124.534 425.746 123.938C425.21 123.246 424.776 122.481 424.456 121.666L424.296 121.314L424.221 121.698C424.107 122.672 423.74 123.599 423.155 124.386C422.821 124.748 422.38 124.994 421.897 125.09C421.656 125.139 421.406 125.124 421.173 125.048C420.939 124.971 420.729 124.835 420.564 124.653C420.181 124.144 419.934 123.545 419.85 122.914C419.718 122.296 419.633 121.668 419.594 121.037C419.543 119.835 419.568 118.631 419.669 117.432C419.733 116.28 419.807 115.193 419.797 114.158C419.79 113.2 419.683 112.246 419.477 111.311C419.217 109.935 418.595 108.654 417.675 107.599C417.39 107.205 417.041 106.862 416.641 106.586Z" fill="#455A64"/>
<path d="M382.406 117.347L382.502 117.422C382.59 117.496 382.682 117.564 382.779 117.625C382.925 117.744 383.082 117.847 383.249 117.934C383.466 118.062 383.691 118.18 383.92 118.286C385.403 118.958 387.03 119.252 388.654 119.139C391.071 118.976 393.389 118.117 395.329 116.665C397.675 114.879 399.628 112.628 401.065 110.052C401.875 108.719 402.525 107.344 403.197 106.074C403.886 104.835 404.747 103.7 405.756 102.704C406.643 101.8 407.743 101.132 408.955 100.763C409.503 100.611 410.071 100.547 410.639 100.571C411.156 100.61 411.665 100.718 412.153 100.891C413.014 101.184 413.803 101.656 414.467 102.278C414.968 102.746 415.39 103.294 415.714 103.899C415.972 104.427 416.162 104.986 416.279 105.562C416.279 105.562 416.279 105.562 416.279 105.445C416.279 105.328 416.28 105.243 416.226 105.104C416.138 104.672 415.994 104.252 415.8 103.856C415.053 102.389 413.77 101.266 412.217 100.721C411.704 100.542 411.17 100.431 410.629 100.39C410.039 100.365 409.45 100.43 408.88 100.582C407.633 100.95 406.499 101.629 405.585 102.555C404.58 103.562 403.729 104.712 403.059 105.968C402.323 107.248 401.662 108.613 400.873 109.946C399.445 112.487 397.52 114.715 395.211 116.494C393.313 117.933 391.04 118.796 388.665 118.979C387.066 119.105 385.459 118.842 383.984 118.211C383.441 117.956 382.914 117.668 382.406 117.347Z" fill="#455A64"/>
<path d="M381.402 112.484C381.402 112.484 381.53 112.602 381.797 112.762C382.172 112.989 382.565 113.189 382.97 113.359C383.573 113.615 384.197 113.819 384.836 113.967C385.616 114.15 386.412 114.258 387.213 114.287C388.016 114.306 388.819 114.253 389.612 114.127C390.254 114.018 390.886 113.854 391.499 113.636C391.917 113.493 392.324 113.318 392.715 113.113C392.862 113.047 393.001 112.965 393.131 112.868C393.131 112.868 392.501 113.135 391.446 113.465C390.83 113.649 390.204 113.791 389.569 113.892C388.792 114 388.008 114.046 387.224 114.031C386.439 113.996 385.658 113.9 384.889 113.743C384.261 113.604 383.644 113.419 383.044 113.188C382.021 112.794 381.424 112.442 381.402 112.484Z" fill="#455A64"/>
<path d="M390.456 128.471C390.669 128.695 391.949 127.66 393.804 127.617C395.659 127.575 397.002 128.471 397.237 128.236C397.471 128.001 397.098 127.713 396.501 127.297C395.686 126.753 394.72 126.477 393.74 126.508C392.774 126.538 391.843 126.878 391.085 127.479C390.52 127.948 390.339 128.364 390.456 128.471Z" fill="#263238"/>
<path d="M392.34 133.708C392.365 134.097 392.54 134.462 392.828 134.725C393.117 134.987 393.496 135.128 393.886 135.116C394.078 135.117 394.268 135.08 394.445 135.007C394.622 134.934 394.783 134.826 394.918 134.69C395.053 134.554 395.16 134.392 395.232 134.215C395.303 134.037 395.339 133.846 395.336 133.655C395.309 133.264 395.131 132.9 394.841 132.637C394.551 132.375 394.17 132.235 393.779 132.247C393.589 132.247 393.4 132.285 393.224 132.358C393.048 132.432 392.888 132.54 392.754 132.676C392.62 132.812 392.514 132.973 392.443 133.15C392.372 133.328 392.337 133.517 392.34 133.708Z" fill="#263238"/>
<path d="M424.465 132.801C424.646 132.705 431.928 129.996 432.216 137.579C432.504 145.161 424.849 143.903 424.827 143.69C424.806 143.476 424.465 132.801 424.465 132.801Z" fill="#FFBF9D"/>
<path d="M427.078 140.725C427.078 140.725 427.217 140.81 427.441 140.906C427.76 141.03 428.113 141.03 428.433 140.906C428.909 140.575 429.289 140.123 429.532 139.596C429.776 139.07 429.875 138.487 429.819 137.91C429.818 137.259 429.668 136.617 429.381 136.033C429.298 135.795 429.157 135.582 428.971 135.412C428.785 135.243 428.56 135.122 428.315 135.062C428.163 135.032 428.005 135.055 427.867 135.126C427.73 135.198 427.621 135.315 427.558 135.457C427.462 135.67 427.558 135.819 427.473 135.841C427.388 135.862 427.313 135.723 427.356 135.403C427.395 135.215 427.492 135.044 427.633 134.913C427.839 134.752 428.097 134.672 428.358 134.689C428.671 134.739 428.967 134.869 429.217 135.064C429.466 135.26 429.663 135.516 429.787 135.809C430.144 136.463 430.331 137.196 430.33 137.942C430.33 139.467 429.627 140.928 428.539 141.29C428.338 141.358 428.125 141.38 427.914 141.354C427.704 141.328 427.502 141.255 427.324 141.141C427.078 140.906 427.004 140.736 427.078 140.725Z" fill="#FF9A6C"/>
<path d="M408.099 142.932C408.163 142.932 408.163 143.38 407.907 143.999C407.535 144.831 406.927 145.536 406.158 146.025C405.411 146.529 404.522 146.783 403.621 146.751C402.928 146.687 402.555 146.452 402.555 146.399C402.555 146.345 402.981 146.399 403.621 146.399C404.434 146.338 405.219 146.074 405.903 145.631C406.592 145.188 407.172 144.593 407.598 143.892C407.886 143.306 408.014 142.911 408.099 142.932Z" fill="#263238"/>
<path d="M446.269 442.802L448.53 468.398L456.548 488.192C456.679 488.537 456.736 488.906 456.714 489.274C456.692 489.643 456.592 490.002 456.421 490.329C456.249 490.656 456.01 490.942 455.72 491.17C455.429 491.397 455.094 491.56 454.735 491.648C454.311 491.774 453.864 491.801 453.427 491.727C452.991 491.653 452.578 491.48 452.219 491.221C447.645 487.894 431.151 475.65 430.969 474.061C430.735 471.992 426.523 446.79 426.523 446.79L446.269 442.802Z" fill="#455A64"/>
<path d="M454.798 491.68L430.574 471.171L430.819 473.069C430.979 474.136 431.001 474.669 431.726 475.32C438.163 481.152 444.927 486.615 451.984 491.68C452.417 491.883 452.891 491.988 453.37 491.988C453.849 491.988 454.322 491.883 454.756 491.68H454.798Z" fill="#263238"/>
<path d="M435.29 463.173C435.645 463.356 435.916 463.668 436.046 464.045C436.177 464.422 436.159 464.835 435.994 465.199C435.78 465.551 435.446 465.813 435.054 465.936C434.662 466.06 434.238 466.037 433.861 465.871C433.492 465.675 433.21 465.345 433.076 464.948C432.941 464.552 432.963 464.119 433.136 463.738C433.395 463.392 433.772 463.154 434.195 463.069C434.618 462.984 435.057 463.059 435.429 463.279" fill="white"/>
<path d="M447.271 481.121C447.431 481.185 447.889 479.778 449.403 478.903C450.364 478.434 451.4 478.134 452.463 478.018C452.463 477.954 452.111 477.794 451.472 477.773C450.627 477.765 449.798 477.991 449.073 478.423C448.366 478.833 447.795 479.441 447.431 480.172C447.196 480.727 447.196 481.111 447.271 481.121Z" fill="#263238"/>
<path d="M449.598 484.353C449.737 484.46 450.515 483.532 451.88 483.02C452.741 482.771 453.617 482.575 454.503 482.434C454.054 482.228 453.565 482.127 453.072 482.139C452.579 482.15 452.095 482.272 451.656 482.498C450.099 483.095 449.47 484.3 449.598 484.353Z" fill="#263238"/>
<path d="M443.166 477.1C444.234 476.253 445.364 475.486 446.546 474.807C447.825 474.284 449.14 473.853 450.481 473.517C449.028 473.298 447.544 473.576 446.269 474.306C444.073 475.362 443.07 477.036 443.166 477.1Z" fill="#263238"/>
<path d="M441.793 469.358C441.878 469.507 443.318 468.76 445.258 468.505C447.199 468.249 448.809 468.505 448.851 468.366C447.707 467.817 446.412 467.667 445.173 467.939C443.918 468.014 442.726 468.515 441.793 469.358Z" fill="#263238"/>
<path d="M440.938 461.85C442.06 461.287 443.283 460.953 444.535 460.869C445.788 460.785 447.044 460.951 448.231 461.359C448.231 461.295 447.943 461.008 447.272 460.73C446.387 460.383 445.437 460.237 444.489 460.304C443.543 460.357 442.623 460.631 441.802 461.104C441.162 461.466 440.874 461.797 440.938 461.85Z" fill="#263238"/>
<path d="M444.296 459.439C444.296 459.439 444.36 459.087 444.232 458.469C444.044 457.588 443.682 456.754 443.166 456.016C442.815 455.433 442.283 454.98 441.652 454.725C441.433 454.66 441.199 454.659 440.98 454.724C440.76 454.788 440.564 454.915 440.415 455.088C440.288 455.259 440.196 455.454 440.145 455.661C440.094 455.868 440.084 456.083 440.116 456.293C440.301 457.172 440.785 457.959 441.485 458.521C442.184 459.083 443.057 459.385 443.955 459.375C444.851 459.39 445.732 459.142 446.489 458.662C447.247 458.183 447.848 457.493 448.22 456.677C448.304 456.478 448.342 456.262 448.331 456.046C448.32 455.83 448.26 455.619 448.156 455.429C448.019 455.244 447.831 455.104 447.614 455.026C447.398 454.948 447.163 454.937 446.94 454.992C446.295 455.2 445.712 455.567 445.245 456.059C444.581 456.669 444.029 457.391 443.614 458.192C443.442 458.474 443.332 458.791 443.294 459.119C443.903 458.08 444.66 457.135 445.543 456.315C445.962 455.901 446.474 455.594 447.036 455.419C447.157 455.385 447.285 455.389 447.404 455.431C447.522 455.473 447.625 455.551 447.697 455.653C447.756 455.782 447.786 455.922 447.786 456.064C447.786 456.206 447.756 456.346 447.697 456.475C447.358 457.166 446.831 457.749 446.177 458.156C445.523 458.564 444.768 458.779 443.997 458.778C443.237 458.781 442.498 458.528 441.898 458.06C441.299 457.592 440.874 456.936 440.692 456.197C440.64 455.905 440.701 455.604 440.863 455.355C440.943 455.256 441.051 455.184 441.173 455.148C441.294 455.111 441.424 455.113 441.545 455.152C442.08 455.367 442.537 455.739 442.857 456.219C443.531 457.194 444.019 458.286 444.296 459.439Z" fill="#263238"/>
<path d="M381.723 444.124L382.725 465.828C382.725 465.828 359.599 474.082 359.375 478.114L404.209 477.783L404.113 443.9L381.723 444.124Z" fill="#455A64"/>
<path d="M396.573 463.898C396.995 464.002 397.362 464.262 397.599 464.627C397.837 464.991 397.927 465.432 397.853 465.86C397.724 466.28 397.442 466.637 397.063 466.86C396.684 467.083 396.235 467.156 395.805 467.065C395.36 466.956 394.974 466.681 394.724 466.297C394.475 465.912 394.381 465.447 394.462 464.996C394.638 464.564 394.971 464.214 395.394 464.016C395.817 463.819 396.299 463.788 396.744 463.93" fill="#E0E0E0"/>
<path d="M404.209 477.783L404.059 474.37L361.123 475.959C361.123 475.959 359.14 476.791 359.375 478.092L404.209 477.783Z" fill="#263238"/>
<path d="M381.998 465.636C381.998 465.839 383.064 465.924 384.13 466.575C385.196 467.225 385.793 468.089 385.996 468.004C386.199 467.918 385.857 466.735 384.535 465.967C383.213 465.199 381.944 465.433 381.998 465.636Z" fill="#263238"/>
<path d="M377.309 467.481C377.309 467.683 378.215 468.025 378.961 468.888C379.708 469.752 379.942 470.68 380.155 470.67C380.369 470.659 380.507 469.486 379.548 468.43C378.588 467.374 377.319 467.289 377.309 467.481Z" fill="#263238"/>
<path d="M374.686 472.792C374.888 472.792 375.176 471.811 374.611 470.659C374.046 469.507 373.012 469.102 372.916 469.273C372.82 469.443 373.47 470.041 373.918 470.968C374.366 471.896 374.472 472.782 374.686 472.792Z" fill="#263238"/>
<path d="M382.35 460.645C382.446 460.837 383.416 460.549 384.685 460.645C385.954 460.741 386.892 461.072 386.998 460.901C387.105 460.73 386.188 459.994 384.727 459.93C383.267 459.866 382.296 460.485 382.35 460.645Z" fill="#263238"/>
<path d="M373.918 288.255C373.918 289.503 379.121 463.002 379.121 463.002H406.842L412.461 314.587C412.461 314.587 419.018 392.186 419.018 393.86C419.018 395.535 424.797 463.834 424.797 463.834L450.493 461.861L448.797 305.66L445.663 282.752L373.918 288.255Z" fill="#263238"/>
<path d="M415.352 309.095C415.001 309.294 414.624 309.444 414.233 309.543C413.497 309.798 412.42 310.15 411.098 310.609L410.853 310.684V310.438C410.704 308.359 410.522 305.564 410.362 302.504C410.181 299.187 410.053 296.19 409.989 293.972C409.989 292.905 409.936 291.998 409.936 291.391C409.904 291.073 409.926 290.752 410 290.441C410.089 290.747 410.139 291.062 410.149 291.38C410.224 291.988 410.298 292.873 410.373 293.95C410.544 296.083 410.736 299.123 410.906 302.482C411.077 305.543 411.194 308.337 411.258 310.428L410.992 310.257C412.335 309.884 413.422 309.585 414.19 309.393C414.567 309.256 414.956 309.156 415.352 309.095Z" fill="#455A64"/>
<path d="M413.218 291.06C413.218 291.06 413.304 290.921 413.592 290.825C413.997 290.719 414.427 290.756 414.807 290.932C415.094 291.037 415.339 291.232 415.506 291.488C415.673 291.743 415.753 292.046 415.735 292.351C415.699 292.736 415.538 293.099 415.276 293.384C415.014 293.669 414.666 293.861 414.285 293.929C413.897 293.987 413.501 293.937 413.14 293.785C412.779 293.632 412.466 293.383 412.238 293.065C412.077 292.819 411.992 292.532 411.992 292.239C411.992 291.945 412.077 291.658 412.238 291.412C412.458 291.081 412.78 290.831 413.155 290.697C413.432 290.601 413.592 290.623 413.602 290.644C413.613 290.666 412.973 290.847 412.589 291.572C412.477 291.765 412.423 291.987 412.434 292.211C412.445 292.434 412.522 292.65 412.653 292.83C412.826 293.059 413.056 293.236 413.321 293.345C413.585 293.454 413.874 293.49 414.157 293.449C414.421 293.398 414.663 293.27 414.854 293.08C415.044 292.889 415.172 292.647 415.223 292.383C415.244 292.164 415.197 291.944 415.088 291.753C414.979 291.562 414.814 291.41 414.615 291.316C414.188 291.085 413.699 290.995 413.218 291.06Z" fill="#455A64"/>
<path d="M425.95 292.862C425.801 292.862 425.587 292.116 425.481 291.177C425.374 290.239 425.406 289.46 425.555 289.449C425.705 289.439 425.918 290.185 426.025 291.124C426.131 292.062 426.099 292.862 425.95 292.862Z" fill="#455A64"/>
<path d="M427.867 292.66C427.718 292.66 427.59 291.86 427.59 290.868C427.59 289.876 427.696 289.076 427.856 289.076C428.016 289.076 428.134 289.876 428.134 290.868C428.134 291.86 428.027 292.66 427.867 292.66Z" fill="#455A64"/>
<path d="M394.462 293.854C394.313 293.854 394.078 292.969 393.94 291.849C393.801 290.73 393.812 289.791 393.94 289.78C394.068 289.77 394.324 290.666 394.462 291.796C394.601 292.927 394.612 293.844 394.462 293.854Z" fill="#455A64"/>
<path d="M396.8 294.025C396.307 293.428 396.063 292.664 396.117 291.892C396.002 291.146 396.173 290.384 396.597 289.759C396.757 289.759 396.597 290.74 396.672 291.892C396.746 293.044 396.949 293.982 396.8 294.025Z" fill="#455A64"/>
<path d="M388.033 291.71C388.044 291.966 388.012 292.222 387.937 292.467C387.803 293.159 387.618 293.84 387.383 294.505C386.592 296.744 385.431 298.835 383.949 300.69C382.41 302.603 380.583 304.266 378.533 305.617C377.903 306.034 377.247 306.411 376.571 306.748C376.325 306.887 376.064 306.997 375.793 307.079C375.793 307.015 376.795 306.46 378.32 305.362C380.281 303.969 382.039 302.311 383.544 300.434C384.997 298.605 386.178 296.575 387.052 294.409C387.702 292.755 387.948 291.689 388.033 291.71Z" fill="#455A64"/>
<path d="M447.955 303.399C447.682 303.481 447.398 303.524 447.113 303.527C446.34 303.589 445.562 303.589 444.789 303.527C442.258 303.284 439.822 302.435 437.688 301.053C435.666 299.729 434.035 297.888 432.965 295.721C432.653 295.091 432.41 294.429 432.24 293.748C432.153 293.508 432.113 293.255 432.122 293.001C432.208 293.001 432.442 294.067 433.284 295.593C434.409 297.655 436.024 299.41 437.986 300.701C440.054 302.036 442.392 302.896 444.831 303.218C446.74 303.431 447.945 303.314 447.955 303.399Z" fill="#455A64"/>
<path d="M402.8 391.257C402.8 391.375 398.173 390.372 392.543 389.039C386.914 387.706 382.372 386.512 382.414 386.394C382.457 386.277 387.042 387.269 392.671 388.613C398.301 389.956 402.832 391.14 402.8 391.257Z" fill="#455A64"/>
<path d="M447.454 384.944C447.518 385.05 443.519 387.13 438.529 389.604C433.54 392.079 429.424 393.988 429.36 393.87C429.296 393.753 433.294 391.673 438.284 389.21C443.274 386.746 447.39 384.837 447.454 384.944Z" fill="#455A64"/>
<path d="M360.462 229.501L364.247 234.247V226.088H376.189C376.189 226.088 377.511 244.762 377.255 248.74C376.972 250.814 376.482 252.854 375.794 254.83C375.437 255.98 374.79 257.019 373.916 257.846C373.041 258.674 371.968 259.261 370.8 259.553C369.632 259.844 368.408 259.83 367.247 259.511C366.087 259.192 365.027 258.579 364.172 257.731C362.836 256.431 361.589 255.041 360.441 253.572C355.11 246.746 346.324 230.109 346.324 230.109L355.536 224.605L360.462 229.501Z" fill="#FFBF9D"/>
<path d="M359.707 228.626C360.158 229.384 360.679 230.098 361.264 230.759C362.33 232.007 363.673 233.724 365.262 235.58C366.851 237.435 368.365 239.078 369.527 240.198C370.116 240.844 370.799 241.398 371.553 241.84C371.012 241.163 370.428 240.522 369.804 239.92C368.738 238.747 367.266 237.073 365.678 235.217C362.532 231.442 359.846 228.498 359.707 228.626Z" fill="#FF9A6C"/>
<path d="M387.691 172.133L400.273 167.196L423.463 165.873L434.359 170.022L419.432 178.319L406.553 177.85L387.691 172.133Z" fill="#FFBF9D"/>
<path d="M372.839 290.623C373.98 290.815 449.958 294.046 449.958 294.046L447.335 225.673L447.111 212.256L442.846 171.612C442.846 171.612 431.48 167.697 425.691 165.831C425.691 165.831 419.592 172.23 407.992 172.017C396.658 171.857 394.291 169.297 394.291 169.297L378.448 175.376C378.448 175.376 367.178 179.418 365.237 184.41C363.297 189.401 359.906 216.991 359.906 216.991H376.336L375.899 266.019L372.839 290.623Z" fill="#455A64"/>
<g opacity="0.2">
<path d="M420.617 199.426L422.963 216.65L434.361 221.737L442.794 214.559V198.562L420.617 199.426Z" fill="black"/>
</g>
<path d="M442.496 204.343C442.496 204.481 437.762 204.599 431.919 204.599C426.077 204.599 421.332 204.481 421.332 204.343C424.854 204.075 428.388 203.986 431.919 204.076C435.447 203.986 438.977 204.075 442.496 204.343Z" fill="#263238"/>
<path d="M367.723 191.544C367.777 191.693 367.82 191.847 367.851 192.003C367.925 192.344 368.021 192.77 368.149 193.314C368.559 194.96 369.064 196.58 369.663 198.167C370.42 200.204 371.486 202.604 372.798 205.291C374.109 207.979 375.154 211.189 376.316 214.602C376.316 218.697 376.316 223.134 376.231 227.858C376.124 238.31 376.018 247.77 375.954 254.67C375.89 258.062 375.847 260.824 375.804 262.797C375.804 263.714 375.783 264.45 375.741 265.005C375.745 265.262 375.728 265.519 375.687 265.773C375.669 265.513 375.669 265.253 375.687 264.994C375.687 264.454 375.687 263.718 375.687 262.786C375.687 260.824 375.687 258.051 375.687 254.66C375.687 247.759 375.772 238.3 375.826 227.858C375.826 223.176 375.911 218.697 375.943 214.602V214.676C374.802 211.264 373.704 208.096 372.51 205.377C371.37 203.035 370.352 200.636 369.461 198.188C368.884 196.587 368.418 194.947 368.064 193.282C367.957 192.696 367.872 192.216 367.829 191.939C367.782 191.811 367.746 191.678 367.723 191.544Z" fill="#263238"/>
<path d="M448.276 183.566C448.313 184.053 448.313 184.541 448.276 185.028C448.276 186.094 448.191 187.395 448.127 188.995C447.988 192.429 447.807 197.015 447.605 202.081C447.402 207.147 447.168 211.743 447.018 215.178C446.922 216.777 446.848 218.111 446.784 219.145C446.781 219.632 446.731 220.118 446.634 220.595C446.596 220.109 446.596 219.621 446.634 219.134C446.634 218.068 446.634 216.767 446.709 215.167C446.794 211.807 446.944 207.179 447.157 202.07C447.37 196.962 447.605 192.322 447.818 188.984C447.925 187.31 448.031 185.955 448.127 185.017C448.134 184.53 448.184 184.045 448.276 183.566Z" fill="#263238"/>
<g opacity="0.3">
<path d="M367.767 194.051C367.478 201.556 370.16 208.872 375.231 214.41C373.685 207.361 369.825 200.802 367.767 194.051Z" fill="black"/>
</g>
<g opacity="0.3">
<path d="M401.137 261.699C404.709 261.223 407.967 259.408 410.253 256.622C412.658 253.935 414.717 250.958 416.383 247.759C418.533 243.409 419.753 238.658 419.966 233.81C415.541 245.68 409.059 255.065 401.137 261.699Z" fill="black"/>
</g>
<path d="M421.376 228.637C421.369 228.785 421.348 228.931 421.312 229.075C421.238 229.416 421.142 229.821 421.035 230.312C420.929 230.802 420.758 231.496 420.523 232.242C420.289 232.989 420.065 233.842 419.724 234.77C418.977 236.953 418.101 239.09 417.101 241.169C414.655 246.259 411.515 250.986 407.772 255.215C406.244 256.94 404.605 258.565 402.867 260.078C402.153 260.75 401.438 261.283 400.831 261.774C400.223 262.264 399.69 262.659 399.231 262.968L398.165 263.683C397.92 263.832 397.792 263.917 397.781 263.896C397.875 263.784 397.983 263.683 398.101 263.597L399.093 262.808C399.53 262.488 400.052 262.072 400.639 261.56C401.225 261.048 401.918 260.494 402.622 259.822C404.306 258.275 405.904 256.637 407.409 254.916C409.232 252.791 410.931 250.562 412.495 248.24C414.024 245.9 415.419 243.475 416.674 240.977C417.683 238.924 418.583 236.82 419.372 234.674C419.734 233.767 419.99 232.914 420.235 232.178C420.481 231.442 420.683 230.802 420.833 230.28C420.982 229.757 421.088 229.405 421.195 229.075C421.302 228.744 421.355 228.627 421.376 228.637Z" fill="#263238"/>
<path d="M419.179 207.243C419.163 207.48 419.131 207.715 419.083 207.947C418.998 208.448 418.881 209.11 418.742 209.931C418.604 210.752 418.39 211.84 418.081 213.045C417.772 214.25 417.495 215.647 417.015 217.14C416.802 217.887 416.567 218.676 416.322 219.497C416.077 220.319 415.757 221.15 415.458 222.014C414.893 223.774 414.126 225.587 413.326 227.507C409.824 235.793 405.117 243.516 399.359 250.426C398.005 251.983 396.736 253.497 395.435 254.799C394.795 255.46 394.198 256.121 393.58 256.708C392.961 257.294 392.375 257.87 391.799 258.403C390.733 259.47 389.582 260.398 388.601 261.208C387.62 262.019 386.831 262.691 386.127 263.213L384.517 264.429C384.342 264.583 384.148 264.716 383.941 264.824C384.097 264.652 384.268 264.495 384.453 264.354L385.999 263.064C386.682 262.52 387.513 261.848 388.419 261.006C389.326 260.163 390.424 259.267 391.522 258.147L393.271 256.441C393.878 255.844 394.465 255.183 395.094 254.521C396.384 253.21 397.631 251.695 398.975 250.127C404.684 243.228 409.379 235.551 412.921 227.325C413.71 225.416 414.477 223.625 415.053 221.886C415.362 221.012 415.682 220.191 415.938 219.38C416.194 218.569 416.429 217.791 416.663 217.044C417.154 215.562 417.463 214.186 417.793 212.981C418.124 211.776 418.358 210.741 418.529 209.888C418.7 209.035 418.86 208.427 418.966 207.926C419.012 207.691 419.084 207.462 419.179 207.243Z" fill="#263238"/>
<path d="M359.142 185.988L388.398 230.482C388.538 230.692 388.614 230.938 388.618 231.191C388.621 231.443 388.552 231.691 388.418 231.905C388.284 232.119 388.091 232.29 387.863 232.397C387.634 232.504 387.379 232.543 387.129 232.509L353.437 228.243C353.26 228.218 353.09 228.158 352.936 228.066C352.782 227.975 352.648 227.853 352.542 227.709L320.364 183.748C320.204 183.545 320.108 183.299 320.087 183.042C320.065 182.784 320.12 182.526 320.243 182.299C320.367 182.072 320.554 181.886 320.782 181.765C321.01 181.643 321.269 181.591 321.526 181.615L356.188 184.175C356.787 184.229 357.365 184.421 357.877 184.735C358.389 185.05 358.822 185.478 359.142 185.988Z" fill="#E0E0E0"/>
<path d="M359.14 185.987C359.068 185.842 358.978 185.706 358.874 185.582C358.577 185.214 358.215 184.903 357.807 184.665C357.113 184.302 356.341 184.115 355.558 184.121L352.444 183.865L332.464 182.297L325.843 181.785L322.324 181.519C322.015 181.519 321.748 181.519 321.397 181.519C321.037 181.53 320.692 181.67 320.426 181.913C320.156 182.16 319.981 182.495 319.935 182.858C319.888 183.221 319.971 183.589 320.17 183.897L329.532 196.748C336.142 205.782 343.392 215.711 351.016 226.141C351.506 226.792 351.943 227.421 352.476 228.103C352.64 228.284 352.845 228.423 353.073 228.509C353.283 228.582 353.502 228.625 353.724 228.637L354.918 228.786L359.631 229.383L368.843 230.535L386.264 232.668C386.627 232.668 386.925 232.764 387.331 232.785C387.538 232.787 387.744 232.747 387.936 232.669C388.128 232.59 388.303 232.474 388.45 232.327C388.729 232.04 388.893 231.66 388.909 231.26C388.892 230.87 388.75 230.496 388.503 230.194L386.243 226.738L381.978 220.339L374.344 208.789C369.674 201.761 365.9 196.055 363.266 192.098L360.228 187.566C359.886 187.075 359.62 186.68 359.417 186.403C359.332 186.264 359.235 186.133 359.129 186.009C359.203 186.155 359.285 186.298 359.375 186.435L360.132 187.63C360.814 188.696 361.806 190.243 363.074 192.216L374.014 209.013L381.594 220.595L385.859 227.048L388.077 230.428C388.268 230.653 388.381 230.934 388.397 231.228C388.386 231.508 388.272 231.774 388.077 231.975C387.878 232.172 387.61 232.283 387.331 232.284C387.043 232.284 386.648 232.199 386.318 232.167L368.864 229.938L359.652 228.775L354.939 228.178L353.756 228.029C353.579 228.014 353.404 227.982 353.233 227.933C353.083 227.875 352.949 227.784 352.839 227.666C352.37 227.026 351.901 226.397 351.431 225.747C343.797 215.337 336.505 205.419 329.916 196.386C326.6 191.885 323.465 187.598 320.522 183.588C320.412 183.429 320.347 183.244 320.334 183.052C320.321 182.859 320.361 182.667 320.448 182.495C320.536 182.323 320.668 182.179 320.831 182.076C320.995 181.974 321.183 181.917 321.375 181.913C321.62 181.913 321.962 181.913 322.25 181.966L325.768 182.222L332.4 182.692L352.444 184.078L355.579 184.291C356.343 184.266 357.102 184.431 357.786 184.771C358.32 185.074 358.781 185.489 359.14 185.987Z" fill="#263238"/>
<path d="M320.363 183.78C320.594 183.839 320.829 183.875 321.067 183.887L323.114 184.1L330.727 184.772L356.614 186.905L356.412 186.788C358.032 189.198 359.706 191.693 361.38 194.253C368.214 204.758 374.175 214.421 378.685 221.289C380.924 224.734 382.789 227.485 384.09 229.384L385.604 231.517C385.768 231.777 385.957 232.02 386.169 232.242C386.029 231.97 385.872 231.706 385.7 231.453L384.271 229.224L379.015 221.044C374.601 214.122 368.684 204.438 361.849 193.922C360.175 191.331 358.491 188.835 356.859 186.457L356.785 186.35H356.71L330.812 184.431L323.189 183.919L321.131 183.801C320.876 183.775 320.619 183.768 320.363 183.78Z" fill="#263238"/>
<path d="M340.416 190.574C340.436 190.485 340.473 190.401 340.527 190.328C340.58 190.254 340.647 190.192 340.725 190.145C340.802 190.098 340.889 190.068 340.979 190.055C341.069 190.043 341.16 190.049 341.248 190.072C341.591 190.151 341.905 190.324 342.154 190.574C342.312 190.718 342.415 190.914 342.444 191.126C342.473 191.338 342.427 191.554 342.314 191.736C341.983 192.152 341.248 191.992 340.885 191.651C340.722 191.526 340.593 191.362 340.51 191.173C340.428 190.985 340.396 190.778 340.416 190.574Z" fill="white"/>
<path d="M356.153 215.509C356.153 215.509 357.475 212.309 354.106 211.925C350.032 211.714 345.95 211.714 341.876 211.925C341.876 211.925 337.025 212.437 338.049 215.914C338.049 215.914 335.191 218.474 336.727 221.247C338.262 224.02 338.859 223.188 338.859 223.188C338.859 223.188 338.454 226.569 340.992 227.07C340.992 227.07 343.764 230.344 346.323 230.141C348.881 229.939 359.703 224.723 360.418 223.742C361.132 222.761 362.156 222.143 361.548 221.001C361.548 221.001 362.87 218.004 360.013 217.546C360.034 217.493 359.831 215.008 356.153 215.509Z" fill="#FFBF9D"/>
<path d="M340.781 216.649C341.531 216.806 342.298 216.863 343.063 216.82C344.47 216.82 346.411 216.82 348.554 216.82C350.401 216.874 352.249 216.767 354.077 216.5C355.527 216.159 356.103 215.306 356.039 215.284C355.412 215.681 354.718 215.96 353.992 216.105C352.659 216.329 350.686 216.191 348.543 216.265C346.4 216.34 344.46 216.361 343.052 216.425C342.289 216.409 341.527 216.484 340.781 216.649Z" fill="#FF9A6C"/>
<path d="M343.191 221.769C343.417 221.901 343.667 221.985 343.927 222.014C344.628 222.157 345.346 222.203 346.059 222.153C347.1 222.073 348.129 221.884 349.13 221.588C350.26 221.278 351.465 220.841 352.734 220.457C353.913 220.067 355.133 219.813 356.37 219.7C357.439 219.799 358.513 219.584 359.462 219.081C359.832 218.831 360.095 218.45 360.197 218.015C360.266 217.69 360.221 217.351 360.069 217.055C359.803 216.575 359.44 216.543 359.451 216.564C359.462 216.586 359.707 216.714 359.867 217.151C359.969 217.447 359.962 217.77 359.846 218.062C359.731 218.353 359.515 218.594 359.238 218.74C358.327 219.141 357.326 219.292 356.338 219.177C355.057 219.257 353.792 219.501 352.574 219.902L348.992 221.086C348.023 221.387 347.032 221.609 346.028 221.748C345.083 221.812 344.136 221.819 343.191 221.769Z" fill="#FF9A6C"/>
<path d="M346.813 226.088C347.589 226.044 348.357 225.897 349.095 225.651C350.481 225.299 352.378 224.755 354.426 224.083C356.473 223.411 358.349 222.718 359.671 222.174C360.422 221.938 361.139 221.605 361.804 221.182C361.74 221.033 358.413 222.249 354.34 223.539C350.267 224.83 346.77 225.939 346.813 226.088Z" fill="#FF9A6C"/>
<path d="M345.949 230.098C346.586 230.154 347.228 230.082 347.837 229.885C349.324 229.524 350.77 229.013 352.155 228.36C353.775 227.624 355.193 226.867 356.217 226.323C356.802 226.076 357.347 225.745 357.837 225.342C355.795 226.002 353.815 226.84 351.92 227.848C348.732 229.384 345.928 229.938 345.949 230.098Z" fill="#FF9A6C"/>
<path d="M453.66 199.606C453.66 199.606 446.773 227.208 438.169 237.403C429.831 247.279 416.77 242.736 412.249 229.938C407.728 217.14 399.668 188.014 399.668 188.014L409.562 180.441L426.622 213.599L434.33 191L453.66 199.606Z" fill="#FFBF9D"/>
<path d="M400.127 188.803L392.866 178.276C391.809 178.048 390.774 177.727 389.774 177.317C388.953 176.837 388.142 172.656 388.164 171.845C388.185 171.035 386.756 169.126 387.332 168.582C387.908 168.038 389.848 168.006 389.742 167.227C389.742 167.057 388.302 165.308 389.433 164.028C390.056 163.616 390.75 163.323 391.48 163.164L391.362 159.143C391.362 159.143 393.495 154.408 395.744 156.125C395.744 156.125 404.093 162.524 404.935 163.591C405.777 164.657 408.997 177.978 409.562 180.484" fill="#FFBF9D"/>
<path d="M409.56 180.463C409.548 180.225 409.512 179.989 409.453 179.759C409.336 179.247 409.197 178.586 409.016 177.754C408.632 176.005 408.046 173.488 407.257 170.384C406.851 168.827 406.414 167.185 405.849 165.318C405.711 164.87 405.561 164.412 405.369 163.943C405.149 163.465 404.812 163.05 404.388 162.737C403.621 162.066 402.821 161.404 402 160.732C400.348 159.399 398.588 158.013 396.765 156.594C396.305 156.184 395.788 155.843 395.23 155.581C394.904 155.503 394.564 155.503 394.238 155.581C393.912 155.659 393.609 155.812 393.353 156.029C392.401 156.858 391.64 157.884 391.125 159.037V159.101C391.125 159.495 391.125 159.911 391.125 160.327C391.125 161.266 391.125 162.204 391.21 163.121L391.402 162.865C390.899 162.987 390.406 163.151 389.931 163.356C389.665 163.466 389.423 163.625 389.216 163.825C389.032 164.04 388.895 164.291 388.811 164.561C388.675 165.094 388.72 165.657 388.939 166.161C389.028 166.402 389.138 166.634 389.27 166.854L389.451 167.163V167.238C389.456 167.263 389.456 167.288 389.451 167.313C389.451 167.398 389.238 167.526 389.035 167.601C388.833 167.675 388.609 167.75 388.385 167.825C388.153 167.886 387.925 167.961 387.702 168.049C387.423 168.129 387.178 168.302 387.009 168.539C386.898 168.813 386.898 169.119 387.009 169.392C387.073 169.622 387.155 169.847 387.255 170.064C387.436 170.491 387.638 170.896 387.788 171.291C387.863 171.47 387.907 171.662 387.916 171.856C387.92 172.085 387.941 172.313 387.98 172.539C388.044 172.976 388.118 173.402 388.214 173.829C388.38 174.651 388.604 175.46 388.886 176.25C389.021 176.663 389.239 177.044 389.526 177.37C389.874 177.595 390.255 177.764 390.656 177.871C391.391 178.095 392.116 178.276 392.788 178.436L392.671 178.362L398.002 185.998L399.495 188.067C399.66 188.316 399.845 188.552 400.049 188.771C399.912 188.506 399.759 188.249 399.591 188.003L398.183 185.87C396.914 183.982 395.134 181.348 392.948 178.127V178.063H392.959C392.276 177.892 391.562 177.7 390.826 177.476C390.485 177.379 390.159 177.236 389.856 177.05C389.627 176.769 389.453 176.447 389.344 176.101C389.072 175.329 388.858 174.537 388.705 173.733C388.619 173.317 388.545 172.901 388.481 172.475C388.481 172.272 388.481 172.048 388.481 171.856C388.471 171.608 388.421 171.363 388.331 171.131C388.171 170.694 387.969 170.288 387.798 169.872C387.705 169.677 387.63 169.474 387.574 169.264C387.517 169.106 387.517 168.932 387.574 168.774C387.697 168.646 387.852 168.554 388.022 168.507C388.235 168.423 388.452 168.352 388.673 168.294C388.897 168.219 389.131 168.155 389.366 168.059C389.659 167.968 389.904 167.765 390.048 167.494C390.087 167.407 390.105 167.312 390.101 167.217C390.099 167.149 390.08 167.084 390.048 167.025V166.939L389.867 166.63C389.752 166.428 389.652 166.218 389.568 166.001C389.396 165.601 389.359 165.155 389.462 164.732C389.518 164.527 389.62 164.337 389.76 164.177C389.921 164.036 390.105 163.924 390.304 163.847C390.753 163.654 391.216 163.497 391.69 163.377L391.882 163.324V163.121C391.882 162.204 391.829 161.276 391.797 160.338C391.797 159.922 391.797 159.495 391.797 159.111V159.229C392.271 158.152 392.973 157.192 393.854 156.413C394.043 156.238 394.273 156.113 394.522 156.048C394.771 155.982 395.033 155.98 395.283 156.04C395.78 156.284 396.242 156.592 396.658 156.957C398.492 158.375 400.252 159.751 401.904 161.074C402.736 161.735 403.535 162.385 404.292 163.036C404.676 163.308 404.981 163.676 405.177 164.103C405.359 164.54 405.508 164.998 405.657 165.436C406.222 167.227 406.723 168.923 407.107 170.459C407.907 173.52 408.568 176.005 409.026 177.786C409.25 178.607 409.421 179.268 409.549 179.769C409.528 180 409.532 180.233 409.56 180.463Z" fill="#FF9A6C"/>
<path d="M391.477 163.164C391.477 163.249 392.319 163.164 393.609 163.313C394.381 163.432 395.144 163.607 395.891 163.836C396.87 163.975 397.864 163.975 398.844 163.836C399.685 163.718 400.541 163.793 401.349 164.055C402.156 164.317 402.893 164.76 403.503 165.35C403.976 165.875 404.355 166.478 404.623 167.131C404.628 166.752 404.555 166.375 404.408 166.024C404.261 165.674 404.044 165.357 403.77 165.094C403.215 164.484 402.53 164.006 401.765 163.697C400.826 163.333 399.812 163.205 398.812 163.324C397.874 163.441 396.925 163.441 395.987 163.324C395.216 163.109 394.427 162.97 393.63 162.908C392.903 162.85 392.171 162.937 391.477 163.164Z" fill="#FF9A6C"/>
<path d="M394.433 162.941C394.55 163.005 394.892 162.514 394.849 161.821C394.806 161.128 394.412 160.69 394.305 160.754C394.199 160.818 394.305 161.287 394.305 161.821C394.305 162.354 394.295 162.887 394.433 162.941Z" fill="#FF9A6C"/>
<path d="M389.484 167.377C391.594 167.578 393.722 167.412 395.775 166.886C396.52 166.642 397.305 166.54 398.089 166.588C398.695 166.721 399.23 167.075 399.592 167.58C399.906 168.082 400.184 168.606 400.424 169.147C400.461 168.501 400.276 167.862 399.901 167.334C399.518 166.713 398.905 166.269 398.195 166.097C397.349 165.998 396.491 166.082 395.679 166.342C392.299 167.11 389.484 167.228 389.484 167.377Z" fill="#FF9A6C"/>
<path d="M388.375 171.174C388.883 171.292 389.412 171.292 389.921 171.174C390.87 171.067 392.149 170.737 393.535 170.459C394.176 170.316 394.831 170.252 395.487 170.267C395.996 170.276 396.488 170.457 396.883 170.779C397.237 171.106 397.479 171.534 397.576 172.006C397.576 172.006 397.672 171.867 397.662 171.579C397.618 171.173 397.433 170.796 397.139 170.513C396.707 170.086 396.135 169.832 395.529 169.798C394.814 169.749 394.096 169.803 393.397 169.958C391.968 170.235 390.731 170.619 389.814 170.811C389.323 170.883 388.841 171.004 388.375 171.174Z" fill="#FF9A6C"/>
<path d="M390.827 174.182C390.742 174.246 391.456 174.992 392.757 174.992L392.501 174.768C392.501 174.992 392.501 175.216 392.576 175.44C392.61 176.354 392.813 177.255 393.173 178.096C393.315 177.195 393.286 176.276 393.088 175.387L392.992 174.715V174.48H392.768C392.112 174.453 391.461 174.353 390.827 174.182Z" fill="#FF9A6C"/>
<path d="M442.762 171.654C442.762 171.654 456.868 175.067 456.836 193.784C456.804 212.501 452.571 221.737 452.571 221.737L426.566 207.542L432.409 193.006L442.762 171.654Z" fill="#455A64"/>
<path d="M452.572 221.737C452.385 221.683 452.206 221.604 452.039 221.503L450.525 220.735L444.981 217.813L426.44 207.819L426.227 207.713L426.312 207.489L427.709 203.841C429.372 199.522 430.907 195.405 432.4 191.662C433.125 189.795 433.807 188.014 434.458 186.329C435.025 184.764 435.713 183.245 436.515 181.786C437.587 179.603 439.202 177.733 441.207 176.357C441.769 176.005 442.39 175.756 443.041 175.622C443.206 175.586 443.373 175.565 443.542 175.558H443.723C442.87 175.735 442.057 176.068 441.324 176.539C439.4 177.946 437.864 179.817 436.857 181.978C436.09 183.432 435.431 184.94 434.884 186.489C434.255 188.164 433.583 189.945 432.869 191.822L428.22 204.023L426.824 207.67L426.696 207.329L445.205 217.493L450.664 220.564L452.125 221.417C452.285 221.507 452.435 221.615 452.572 221.737Z" fill="#263238"/>
</g>
<defs>
<clipPath id="clip0_461_748">
<rect width="478" height="492" fill="white"/>
</clipPath>
</defs>
</svg>
