<svg width="66" height="62" viewBox="0 0 66 62" fill="none" xmlns="http://www.w3.org/2000/svg">
<g opacity="0.7">
<path d="M9.11374 48.8414H19.5078C20.2372 48.8414 20.8286 48.2933 20.8286 47.6171V29.0907C20.8286 28.4145 20.2372 27.8662 19.5078 27.8662H9.11374C8.38439 27.8662 7.79297 28.4145 7.79297 29.0907V47.6171C7.79297 48.2933 8.38439 48.8414 9.11374 48.8414Z" fill="white"/>
<path d="M27.8025 48.8406H38.1963C38.9257 48.8406 39.5173 48.2925 39.5173 47.6162V16.0681C39.5173 15.3919 38.9257 14.8438 38.1963 14.8438H27.8025C27.0729 14.8438 26.4814 15.3919 26.4814 16.0681V47.6161C26.4814 48.2925 27.0729 48.8406 27.8025 48.8406Z" fill="white"/>
<path d="M46.492 48.8409H56.8859C57.6155 48.8409 58.2069 48.2928 58.2069 47.6166V1.22448C58.2069 0.548238 57.6155 0 56.8859 0H46.492C45.7624 0 45.171 0.548238 45.171 1.22448V47.6166C45.171 48.2928 45.7624 48.8409 46.492 48.8409Z" fill="white"/>
<path d="M63.8635 54.4199H2.13649H0V61.7549H2.13649H63.8635H66V54.4199H63.8635Z" fill="white"/>
</g>
</svg>
