<svg width="64" height="59" viewBox="0 0 64 59" fill="none" xmlns="http://www.w3.org/2000/svg">
<path opacity="0.7" d="M0.824025 58.8981C0.579565 58.7976 0.370498 58.626 0.223683 58.4052C0.0768687 58.1845 -0.00101438 57.9247 9.9761e-06 57.6591V14.75C0.0017749 12.9724 0.70474 11.2681 1.9546 10.0111C3.20446 8.75419 4.89911 8.04723 6.66668 8.04545H8.00001V6.70454C8.00177 4.92693 8.70474 3.22266 9.9546 1.9657C11.2045 0.708734 12.8991 0.00177495 14.6667 0H57.3333C59.1009 0.00177495 60.7956 0.708734 62.0454 1.9657C63.2953 3.22266 63.9982 4.92693 64 6.70454V36.2045C63.9982 37.9822 63.2953 39.6864 62.0454 40.9434C60.7956 42.2004 59.1009 42.9073 57.3333 42.9091H56V44.25C55.9982 46.0276 55.2953 47.7319 54.0454 48.9888C52.7956 50.2458 51.1009 50.9528 49.3333 50.9545H9.88534L2.27601 58.6071C2.15249 58.732 2.0056 58.831 1.8438 58.8984C1.682 58.9659 1.50849 59.0004 1.33334 59C1.1585 59.0006 0.985324 58.966 0.824025 58.8981ZM2.66668 14.75V54.4221L8.39067 48.667C8.51435 48.5422 8.66126 48.4432 8.82301 48.3755C8.98475 48.3079 9.15817 48.2729 9.33334 48.2727H49.3333C50.3942 48.2727 51.4116 47.8489 52.1617 47.0945C52.9119 46.3401 53.3333 45.3169 53.3333 44.25V14.75C53.3333 13.6831 52.9119 12.6599 52.1617 11.9055C51.4116 11.1511 50.3942 10.7273 49.3333 10.7273H6.66668C5.60581 10.7273 4.58841 11.1511 3.83827 11.9055C3.08812 12.6599 2.66668 13.6831 2.66668 14.75ZM9.33334 6.70454V8.04545H49.3333C51.1009 8.04723 52.7956 8.75419 54.0454 10.0111C55.2953 11.2681 55.9982 12.9724 56 14.75V41.5682H57.3333C58.7478 41.5682 60.1044 41.0031 61.1046 39.9972C62.1048 38.9913 62.6667 37.6271 62.6667 36.2045V6.70454C62.6667 5.28202 62.1048 3.91775 61.1046 2.91188C60.1044 1.906 58.7478 1.34091 57.3333 1.34091H14.6667C13.2522 1.34091 11.8956 1.906 10.8954 2.91188C9.89524 3.91775 9.33334 5.28202 9.33334 6.70454ZM14.6667 34.8636C14.3131 34.8636 13.9739 34.7223 13.7239 34.4709C13.4738 34.2194 13.3333 33.8784 13.3333 33.5227C13.3333 33.1671 13.4738 32.826 13.7239 32.5746C13.9739 32.3231 14.3131 32.1818 14.6667 32.1818H41.3333C41.687 32.1818 42.0261 32.3231 42.2761 32.5746C42.5262 32.826 42.6667 33.1671 42.6667 33.5227C42.6667 33.8784 42.5262 34.2194 42.2761 34.4709C42.0261 34.7223 41.687 34.8636 41.3333 34.8636H14.6667ZM14.6667 26.8182C14.3131 26.8182 13.9739 26.6769 13.7239 26.4254C13.4738 26.1739 13.3333 25.8329 13.3333 25.4773C13.3333 25.1216 13.4738 24.7806 13.7239 24.5291C13.9739 24.2777 14.3131 24.1364 14.6667 24.1364H41.3333C41.687 24.1364 42.0261 24.2777 42.2761 24.5291C42.5262 24.7806 42.6667 25.1216 42.6667 25.4773C42.6667 25.8329 42.5262 26.1739 42.2761 26.4254C42.0261 26.6769 41.687 26.8182 41.3333 26.8182H14.6667Z" fill="white"/>
</svg>
