<svg width="107" height="67" viewBox="0 0 107 67" fill="none" xmlns="http://www.w3.org/2000/svg">
<g opacity="0.7">
<path d="M67.6854 16.5301C65.0625 16.0941 59.025 16.0461 53.9416 17.1538C53.616 16.9387 53.2896 16.7163 52.9677 16.5185C51.9851 15.9167 51.0214 15.4078 50.0642 15.0243C49.1361 14.6551 48.2108 14.4008 47.2428 14.3497V14.3455C45.7927 14.2278 44.3851 14.1754 43.0908 14.1754C41.1202 14.1784 39.4393 14.2874 38.1935 14.4952H38.1986C38.0264 14.5215 37.8375 14.5375 37.6324 14.5375C36.5559 14.5505 35.0659 14.0389 33.7141 13.3004C32.8027 12.812 31.6733 13.0706 31.0657 13.908L16.2289 34.3686C15.7237 35.0648 15.7055 36.0083 16.1816 36.7264C16.5581 37.2905 16.8729 37.8761 17.0807 38.462C17.3794 39.2892 17.8119 40.0406 18.3112 40.7719C18.8111 41.5 19.3818 42.2065 19.9776 42.881L20.211 43.1047C20.211 43.1047 21.2794 43.9856 22.9816 45.3869C22.5374 46.0237 22.2933 46.7795 22.2845 47.576C22.2737 48.6256 22.6712 49.6199 23.4069 50.3714C24.154 51.1346 25.1527 51.5546 26.2204 51.5546C26.9683 51.5546 27.6833 51.3395 28.3062 50.9455C27.8899 51.5734 27.6587 52.3046 27.6499 53.0736C27.6383 54.1232 28.0372 55.116 28.772 55.8661C29.5177 56.6307 30.5172 57.0507 31.5856 57.0507C32.4248 57.0507 33.2192 56.7774 33.8894 56.289C32.6699 57.8182 32.736 60.0493 34.1379 61.4841C34.8837 62.2458 35.8822 62.6658 36.9491 62.6658H36.9499C37.9849 62.6658 38.9632 62.2662 39.7073 61.5379L40.4348 60.8154C40.1303 61.3736 39.9485 61.9927 39.9412 62.6456C39.9304 63.6964 40.3279 64.6893 41.0633 65.4408C41.8098 66.2025 42.8091 66.6225 43.8768 66.6225C44.911 66.6225 45.8884 66.2244 46.6393 65.4916L47.082 65.0424C47.3036 65.2169 47.5058 65.3739 47.6707 65.5019C47.8058 65.6036 47.9208 65.6909 48.0261 65.7666L48.1825 65.8771L48.404 66.0138C49.2362 66.4701 50.0321 66.6679 50.6649 66.8074C50.9803 66.8729 51.2507 66.9179 51.4512 66.9454L51.6955 66.9775L51.7718 66.9848L51.8008 66.9877L51.8189 66.9906L51.8385 66.9921L51.8648 66.9935C51.8888 66.9935 51.8771 66.9965 52.0034 66.9994L52.1525 66.9935C53.5387 66.8918 54.8511 66.4149 55.9284 65.5923C56.357 65.2638 56.7322 64.8669 57.068 64.4325C57.7315 64.6476 58.4342 64.7754 59.1655 64.7754C62.1314 64.7741 64.6274 62.8828 65.594 60.2519C65.7016 60.2446 65.8085 60.2403 65.9144 60.2127C66.2909 60.2811 66.6725 60.3305 67.0678 60.3305C70.0107 60.3276 72.5013 58.473 73.484 55.8767C73.4907 55.8709 73.4971 55.8681 73.5036 55.8636L73.7346 55.8854C77.5363 55.8854 80.6137 52.8051 80.6152 49.0056C80.6175 47.9502 80.4714 46.7831 80.0695 45.5693C82.6787 43.264 86.5024 39.7025 87.1936 37.7693C87.5265 36.839 89.398 34.6079 89.9417 33.8475L75.2204 13.5453C73.3429 14.6084 69.6993 16.8674 67.6854 16.5301ZM76.4853 49.0048C76.4832 50.5238 75.2542 51.7535 73.735 51.7564C73.3585 51.7564 73.0068 51.6809 72.6792 51.5442C72.6464 51.5296 72.6122 51.5267 72.5795 51.5165L70.0285 48.413C69.3831 47.6659 68.2528 47.5817 67.5049 48.2268C66.7563 48.8722 66.6736 50.0033 67.3196 50.7519L69.7871 53.7592C69.6293 55.1271 68.4796 56.1983 67.068 56.1998C66.3978 56.1983 65.8035 55.9601 65.3172 55.5603L62.8687 52.5744C62.2225 51.8273 61.0922 51.7445 60.3445 52.3899C59.5957 53.0353 59.5136 54.1663 60.159 54.9132L61.8648 57.0386C61.8618 57.1708 61.8489 57.3031 61.8721 57.4355C61.9019 57.6027 61.9156 57.7536 61.9156 57.8933C61.9135 59.4137 60.6839 60.642 59.1655 60.6449C58.7686 60.6449 58.4032 60.5534 58.0659 60.4052L55.0817 57.2683C54.3615 56.5909 53.2291 56.6259 52.5517 57.3467C51.8736 58.0663 51.9086 59.2001 52.628 59.8759L54.0283 61.5185C53.8881 61.8195 53.7013 62.0913 53.4172 62.3121C53.053 62.5912 52.5523 62.783 51.9826 62.847C51.8162 62.8224 51.5901 62.7844 51.3212 62.7207C50.9876 62.6452 50.6358 62.5216 50.4534 62.4255C50.3902 62.3792 50.2289 62.26 49.9956 62.0765C49.8632 61.9748 49.7129 61.8587 49.5457 61.7249C49.848 60.4546 49.5224 59.0619 48.542 58.059C47.7956 57.2958 46.7962 56.8758 45.7285 56.8758C45.1282 56.8758 44.5526 57.024 44.0234 57.2815L44.0075 57.2683L44.0257 57.2479C44.7765 56.5125 45.1966 55.5298 45.208 54.4776C45.2189 53.4265 44.8199 52.4337 44.0845 51.6836C43.3386 50.9219 42.3389 50.5005 41.2718 50.5005C40.4373 50.5005 39.6467 50.7706 38.9794 51.2534C39.5193 50.573 39.8328 49.7473 39.8422 48.8651C39.8539 47.8141 39.4549 46.8212 38.7199 46.0712C37.9736 45.3066 36.9743 44.8866 35.9066 44.8866C34.8725 44.8866 33.8948 45.2849 33.1506 46.0145L32.4871 46.6745C33.3055 45.1917 33.1166 43.2934 31.8736 42.023C31.1265 41.2599 30.1272 40.8399 29.0595 40.8399C28.0254 40.8399 27.0477 41.238 26.3021 41.9678L25.8631 42.4083C25.5512 42.1508 25.2452 41.8994 24.9748 41.677C23.9588 40.8426 23.2589 40.2641 22.9776 40.0315C22.5024 39.4893 22.0625 38.9442 21.7188 38.4385C21.3496 37.9036 21.088 37.4079 20.9702 37.0721C20.7972 36.5866 20.5908 36.1303 20.3663 35.6971L33.4093 17.7119C34.6988 18.2511 36.1094 18.6566 37.6322 18.667C38.0376 18.667 38.4527 18.6378 38.8733 18.5682H38.8785C39.7469 18.42 41.2949 18.3035 43.0903 18.3066C44.2744 18.3037 45.5768 18.3531 46.9082 18.4606L46.9991 18.4665C47.3261 18.4752 47.8706 18.5915 48.5318 18.859L48.6815 18.9274C43.1099 21.4434 35.2141 26.2841 32.6193 27.1503C29.6561 28.1373 29.4082 32.0896 36.0752 32.8294C42.7435 33.5721 48.6698 29.3713 50.1511 28.633C51.2144 28.101 57.9698 28.7508 61.7115 29.1606C63.3615 30.7901 64.8077 32.3018 65.8623 33.4443L74.0802 43.4914L74.1164 43.5323C75.1696 44.7517 75.7409 45.7414 76.0651 46.5905C76.3859 47.4393 76.4832 48.1718 76.4853 49.0048Z" fill="white"/>
<path d="M106.444 28.001L86.5855 0.612384C86.105 -0.0519589 85.179 -0.197251 84.5161 0.282401L75.7198 6.66089C75.0569 7.14054 74.9093 8.06795 75.3904 8.73084L95.2494 36.1194C95.7297 36.7823 96.6557 36.9305 97.3186 36.4509L106.116 30.0711C106.778 29.5896 106.926 28.6636 106.444 28.001ZM99.6872 30.4618C98.5839 31.2612 97.0388 31.0142 96.2377 29.9108C95.4375 28.8077 95.6841 27.2639 96.7887 26.463C97.8926 25.6621 99.4365 25.9091 100.237 27.0108C101.038 28.1156 100.791 29.6609 99.6872 30.4618Z" fill="white"/>
<path d="M31.009 6.66089L22.2109 0.282401C21.5495 -0.197251 20.6229 -0.0519589 20.1418 0.612384L0.282203 28.0012C-0.19891 28.664 -0.0492395 29.59 0.612185 30.0711L9.40853 36.4509C10.0714 36.9305 10.9972 36.7823 11.4768 36.1194L31.3367 8.73084C31.8178 8.06795 31.6702 7.14054 31.009 6.66089ZM25.1299 9.71933C24.3297 10.8227 22.7852 11.0697 21.6813 10.2688C20.5765 9.46939 20.3303 7.92266 21.1309 6.82098C21.931 5.71618 23.4756 5.46916 24.5796 6.27025C25.685 7.07092 25.9294 8.61452 25.1299 9.71933Z" fill="white"/>
</g>
</svg>
