<svg width="115" height="64" viewBox="0 0 115 64" fill="none" xmlns="http://www.w3.org/2000/svg">
<path d="M113.111 27.975C112.87 27.6889 107.083 20.8845 97.3168 13.9973C88.2621 7.61175 73.9639 0 57.2697 0C40.5756 0 26.2773 7.61175 17.2226 13.9973C7.4561 20.8849 1.66961 27.6889 1.428 27.9752C-0.476 30.2325 -0.476 33.768 1.428 36.025C1.66938 36.3111 7.4561 43.1155 17.2226 50.0027C26.2775 56.3883 40.5756 64 57.2697 64C73.9639 64 88.2621 56.3883 97.3168 50.0027C107.083 43.1151 112.87 36.3111 113.111 36.025C115.016 33.768 115.016 30.2325 113.111 27.975ZM110.281 33.636C110.225 33.7029 104.503 40.4193 95.0992 47.0347C86.4997 53.0847 72.9559 60.2967 57.2695 60.2967C41.5829 60.2967 28.0393 53.0847 19.4398 47.0347C10.0364 40.4193 4.31454 33.7031 4.25816 33.6364C3.5226 32.7649 3.52283 31.2354 4.25772 30.364C4.31454 30.2971 10.0364 23.5807 19.4398 16.9653C28.039 10.9153 41.5831 3.7033 57.2695 3.7033C72.9561 3.7033 86.4997 10.9153 95.0992 16.9653C104.503 23.5807 110.224 30.2969 110.281 30.3633C111.016 31.2354 111.016 32.7649 110.281 33.636Z" fill="#83C3C9"/>
<path d="M57.2721 6.93945C43.4533 6.93945 32.2109 18.1818 32.2109 32.0008C32.2109 45.8199 43.4531 57.0622 57.2721 57.0622C71.0909 57.0622 82.3333 45.8199 82.3333 32.0008C82.3333 18.1818 71.0907 6.93945 57.2721 6.93945ZM57.2721 53.3587C45.4955 53.3587 35.9145 43.7776 35.9145 32.0008C35.9145 20.2241 45.4953 10.643 57.2721 10.643C63.0195 10.643 68.2429 12.9255 72.086 16.631C70.9878 15.8668 69.6549 15.4176 68.2187 15.4176C66.1373 15.4176 64.2727 16.3599 63.0264 17.8393C61.2076 17.1017 59.2481 16.7154 57.2719 16.7154C48.8434 16.7154 41.9864 23.5723 41.9864 32.0008C41.9864 40.4294 48.8436 47.2863 57.2719 47.2863C65.7002 47.2863 72.5574 40.4294 72.5574 32.0008C72.5574 30.5845 72.3625 29.1966 71.984 27.8539C73.8059 26.6347 75.0081 24.5591 75.0081 22.2072C75.0081 21.0428 74.7133 19.9464 74.1945 18.9876C76.9736 22.5932 78.6291 27.107 78.6291 32.0006C78.6295 43.7774 69.0487 53.3587 57.2721 53.3587ZM68.2189 28.9971C68.2988 28.9971 68.3778 28.9937 68.4567 28.9913C68.7187 29.9664 68.8543 30.9736 68.8543 32.0011C68.8543 38.3873 63.6586 43.5832 57.2721 43.5832C50.8858 43.5832 45.6899 38.3876 45.6899 32.0011C45.6899 25.6146 50.8856 20.4189 57.2721 20.4189C58.7231 20.4189 60.1622 20.6923 61.5023 21.2169C61.4548 21.5404 61.4291 21.871 61.4291 22.2077C61.4291 25.951 64.4749 28.9971 68.2189 28.9971ZM68.2189 25.2936C66.5169 25.2936 65.1326 23.9092 65.1326 22.2072C65.1326 20.5055 66.5169 19.1209 68.2189 19.1209C69.9209 19.1209 71.3053 20.5053 71.3053 22.2072C71.305 23.9092 69.9205 25.2936 68.2189 25.2936Z" fill="#83C3C9"/>
</svg>
