<svg width="43" height="43" viewBox="0 0 43 43" fill="none" xmlns="http://www.w3.org/2000/svg">
<path d="M13.1639 39.766C12.3369 39.766 11.1294 39.361 8.4474 36.3592C7.08425 34.8336 5.96709 33.333 5.92023 33.2698C5.88865 33.2273 5.86001 33.1828 5.83431 33.1365C5.32428 32.2184 5.05469 31.178 5.05469 30.1276V22.4942C5.05469 21.8287 5.5942 21.2891 6.25986 21.2891H16.0083C17.4045 21.2891 18.7214 21.8283 19.7167 22.8076L24.7083 27.7194C26.1543 29.1654 26.1543 31.5073 24.7152 32.9465C24.713 32.9487 24.703 32.9587 24.7009 32.9607C24.0099 33.6516 23.083 34.0355 22.097 34.0355C21.1111 34.0355 20.1841 33.6515 19.487 32.9544L14.5008 27.9681C14.0062 27.9644 13.2033 27.9606 12.5619 27.9577L11.6492 27.9534C10.9836 27.9499 10.4468 27.4076 10.4503 26.742C10.4539 26.0786 10.9926 25.5431 11.6553 25.5431C11.6575 25.5431 11.6595 25.5431 11.6617 25.5431L12.573 25.5475C13.1427 25.55 13.7519 25.5529 14.2194 25.5558C14.4552 25.5572 14.6553 25.5588 14.7969 25.5605C15.1461 25.5644 15.5074 25.5683 15.8566 25.9152L21.1913 31.2499C21.4332 31.4918 21.7549 31.6251 22.097 31.6251C22.4393 31.6251 22.7609 31.4919 23.0028 31.2499C23.005 31.2477 23.015 31.2377 23.0171 31.2357C23.5104 30.7425 23.5104 29.9299 23.0108 29.4304L18.0261 24.5255C17.4847 23.9927 16.768 23.6992 16.0083 23.6992H7.46495V30.1275C7.46495 30.7437 7.61679 31.3544 7.90469 31.8985C8.12431 32.1898 9.04562 33.3985 10.1277 34.6216C12.2673 37.0401 13.0848 37.3265 13.1935 37.3556L26.2236 37.3531C27.1118 37.3531 28.147 36.888 29.1312 36.4116C29.9621 36.0096 36.1299 31.8259 39.8227 29.2833C39.8429 29.2694 39.8635 29.2561 39.8844 29.2435C40.573 28.8287 40.7959 27.9307 40.3811 27.2417C40.1802 26.9082 39.8613 26.6728 39.4833 26.5789C39.1126 26.4868 38.7284 26.5419 38.3991 26.7336L29.3972 32.7034C28.8425 33.0712 28.0946 32.9195 27.7268 32.3651C27.3589 31.8104 27.5104 31.0625 28.0652 30.6946L37.0921 24.7082C37.1065 24.6986 37.1214 24.6892 37.1363 24.6803C38.0216 24.1472 39.0614 23.9907 40.0641 24.2397C41.067 24.4887 41.9129 25.1133 42.4461 25.9983C43.5394 27.8142 42.9622 30.1777 41.1624 31.2872C40.0457 32.0558 31.4395 37.9721 30.1813 38.581C28.9454 39.1791 27.6218 39.7632 26.224 39.7632L13.1646 39.7657C13.1644 39.766 13.1641 39.766 13.1639 39.766Z" fill="#042F2E"/>
<path d="M8.27397 21.0137H1.20703V36.936H8.27397V21.0137Z" fill="#042F2E" fill-opacity="0"/>
<path d="M8.27161 38.1408H1.20517C0.539599 38.1408 0 37.6013 0 36.9356V21.0136C0 20.3481 0.539515 19.8085 1.20517 19.8085H8.27161C8.93718 19.8085 9.47678 20.348 9.47678 21.0136V36.9355C9.47678 37.6011 8.93718 38.1408 8.27161 38.1408ZM2.41026 35.7305H7.06643V22.2188H2.41026V35.7305Z" fill="#042F2E"/>
<path d="M29.6119 19.1284L34.2549 21.5694C34.883 21.8996 35.617 21.3663 35.4971 20.6669L34.6104 15.4968L38.3666 11.8353C38.8748 11.34 38.5944 10.4771 37.8922 10.3752L32.7011 9.62092L30.3796 4.91671C30.0655 4.28037 29.1583 4.28037 28.8443 4.91671L26.5227 9.62059L21.3315 10.3748C20.6294 10.4769 20.349 11.3398 20.8571 11.835L24.6134 15.4965L23.7267 20.6666C23.6068 21.3659 24.3409 21.8992 24.9688 21.569L29.6119 19.1284Z" fill="#042F2E" fill-opacity="0"/>
<path d="M34.6522 22.8747C34.3217 22.8747 33.9899 22.7921 33.6929 22.6361L29.6106 20.4899L25.5283 22.6362C25.2313 22.7922 24.8996 22.8748 24.569 22.8748C23.9606 22.8748 23.3852 22.606 22.9899 22.1373C22.5995 21.674 22.4346 21.0639 22.5375 20.4632L23.3172 15.9174L20.0146 12.6982C19.4487 12.1465 19.2489 11.3369 19.493 10.5853C19.7373 9.8336 20.3748 9.29602 21.157 9.18239L25.7211 8.51917L27.7623 4.38336C28.1121 3.67462 28.8204 3.23438 29.6107 3.23438C30.4011 3.23438 31.1094 3.67462 31.4591 4.38345L33.5002 8.51917L38.0644 9.18239C38.8464 9.29602 39.4839 9.83352 39.7282 10.5853C39.9725 11.3369 39.7726 12.1465 39.2068 12.6982L35.9042 15.9174L36.6838 20.4631C36.7869 21.0636 36.622 21.6738 36.2316 22.137C35.8362 22.6059 35.2606 22.8747 34.6522 22.8747ZM29.6106 17.9232C29.8033 17.9232 29.9957 17.9694 30.1713 18.0617L34.1885 20.1735L33.4213 15.7005C33.3543 15.3095 33.4839 14.9106 33.7679 14.6338L37.0178 11.466L32.5265 10.8133C32.134 10.7563 31.7948 10.5097 31.6191 10.1541L29.6106 6.0843L27.6021 10.154C27.4265 10.5097 27.0873 10.7563 26.6947 10.8132L22.2035 11.4659L25.4534 14.6336C25.7374 14.9106 25.8671 15.3094 25.8 15.7004L25.0329 20.1734L29.0498 18.0616C29.2254 17.9694 29.418 17.9232 29.6106 17.9232Z" fill="#042F2E"/>
</svg>
