<svg width="43" height="43" viewBox="0 0 43 43" fill="none" xmlns="http://www.w3.org/2000/svg">
<path d="M4.9188 26.3588C6.24443 27.0492 8.81054 27.454 8.92429 27.4716C8.95507 27.4763 9.1113 27.5311 9.1113 27.6737V29.6019C9.1113 30.1567 9.57433 30.6081 10.1433 30.6081H11.0643C11.6332 30.6081 12.0963 30.1567 12.0963 29.6019V27.5728C12.0963 27.3832 12.2366 27.3663 12.2652 27.3594C15.1907 26.7026 16.9932 24.5617 16.9932 21.874C16.9932 19.1124 15.4604 17.3289 11.8685 15.9097C9.13614 14.8144 8.34581 14.1518 8.34581 12.9555C8.34581 11.998 9.07126 10.8801 11.115 10.8801C12.923 10.8801 14.3099 11.5927 14.3224 11.5992C14.4686 11.677 14.6318 11.7183 14.7938 11.7183C15.1899 11.7183 15.5397 11.4789 15.6849 11.1084L16.1815 9.83833C16.3545 9.37603 16.0918 8.97249 15.7573 8.82814C14.6444 8.34334 12.4687 7.96842 12.4462 7.96455C12.4111 7.95861 12.2896 7.93242 12.2896 7.78987L12.2824 5.94813C12.2824 5.39322 11.8193 4.9418 11.2504 4.9418H10.3599C9.79131 4.9418 9.32846 5.39322 9.32846 5.94831L9.33053 7.88499C9.33053 8.03313 9.16989 8.09765 9.11112 8.11178C6.36448 8.76586 4.64828 10.7775 4.64828 13.3155C4.64828 16.4788 7.26308 17.9084 10.0865 18.9813C12.3437 19.8675 13.2645 20.766 13.2645 22.0838C13.2645 23.5182 11.9601 24.5198 10.0925 24.5198C8.49718 24.5198 6.3382 23.5086 6.3166 23.4984C6.17846 23.4328 6.03222 23.3996 5.88175 23.3996C5.47047 23.3996 5.11256 23.6483 4.96983 24.0329L4.49547 25.3169C4.327 25.7965 4.58654 26.1857 4.9188 26.3588Z" fill="#042F2E"/>
<path d="M35.4091 8.75531L32.7458 2.17443C32.4527 1.45006 31.8426 1 31.1537 1C30.6084 1 30.1 1.27331 29.7221 1.76964L25.4213 7.41789C24.9957 7.97694 24.8874 8.62526 25.1245 9.19655C25.3616 9.76793 25.8971 10.1491 26.5937 10.2426L28.3031 10.4714C26.6086 21.6639 21.8348 29.426 14.0936 33.5624C7.93193 36.8547 2.03916 36.5415 1.92 36.5344C0.931048 36.466 0.0722275 37.2164 0.00428137 38.2072C-0.0636647 39.1989 0.685182 40.0579 1.67693 40.1259C1.7302 40.1296 2.01666 40.1474 2.49525 40.1474C4.50564 40.1474 9.90399 39.8323 15.624 36.8253C19.7915 34.6345 23.266 31.4691 25.9511 27.4172C28.9028 22.9626 30.8888 17.4307 31.8695 10.9488L33.5348 11.1718C33.6366 11.1854 33.7381 11.1924 33.8367 11.1924H33.8368C34.4478 11.1924 34.9774 10.927 35.2894 10.464C35.6115 9.98617 35.6552 9.36331 35.4091 8.75531Z" fill="#042F2E"/>
</svg>
