<svg width="38" height="37" viewBox="0 0 38 37" fill="none" xmlns="http://www.w3.org/2000/svg">
<path d="M4.31624 31.3425C9.46153 37.4258 18.5645 38.1861 24.6477 33.0408L37.6653 22.0304L31.7366 15.0209L18.719 26.0314C16.507 27.9023 13.1966 27.6258 11.3257 25.4138C9.45477 23.2018 9.73129 19.8915 11.9433 18.0205L24.9609 7.01005L19.0321 0.00057774L6.01455 11.0111C-0.0686694 16.1564 -0.829051 25.2593 4.31624 31.3425ZM31.4278 18.7175L33.9687 21.7216L31.966 23.4155L29.4251 20.4114L31.4278 18.7175ZM18.7234 3.69721L21.2642 6.70127L19.2615 8.39519L16.7207 5.39113L18.7234 3.69721ZM14.7179 7.08505L17.2588 10.0891L10.2494 16.0178C6.93688 18.8196 6.52126 23.7953 9.32301 27.1077C12.1248 30.4202 17.1004 30.8358 20.4129 28.0341L27.4224 22.1054L29.9633 25.1094L22.9538 31.0381C17.9841 35.2416 10.5224 34.6183 6.31895 29.6486C2.11548 24.6789 2.73876 17.2172 7.70847 13.0138L14.7179 7.08505Z" fill="#042F2E"/>
</svg>
