<svg width="36" height="36" viewBox="0 0 36 36" fill="none" xmlns="http://www.w3.org/2000/svg">
<path d="M11.6263 10.1621H18.0829C18.6563 14.5738 22.4382 17.9925 27.0037 17.9925C31.9643 17.9925 36 13.9568 36 8.99622C36 4.03559 31.9643 0 27.0037 0C22.4381 0 18.6563 3.41867 18.0829 7.83044H11.6263C11.0839 5.14949 8.70984 3.12476 5.87139 3.12476C2.63391 3.12476 0 5.75868 0 8.99622C0 11.8347 2.02472 14.2088 4.70567 14.751V23.7936C2.02472 24.3359 0 26.7099 0 29.5485C0 32.786 2.63391 35.4199 5.87146 35.4199C8.70991 35.4199 11.0841 33.3953 11.6263 30.7143H16.6715C17.2137 33.3952 19.5878 35.4199 22.4263 35.4199C25.6638 35.4199 28.2977 32.786 28.2977 29.5485C28.2977 26.3109 25.6638 23.677 22.4263 23.677C19.5878 23.677 17.2137 25.7017 16.6715 28.3827H11.6263C11.1602 26.0787 9.34125 24.2597 7.03717 23.7937V14.7511C9.34118 14.2851 11.1602 12.466 11.6263 10.1621ZM27.0038 2.33157C30.6787 2.33157 33.6684 5.32133 33.6684 8.99622C33.6684 12.6711 30.6787 15.6609 27.0038 15.6609C23.3289 15.6609 20.3391 12.6711 20.3391 8.99622C20.3391 5.32126 23.3289 2.33157 27.0038 2.33157ZM22.4263 26.0086C24.3782 26.0086 25.9661 27.5966 25.9661 29.5484C25.9661 31.5002 24.3781 33.0882 22.4263 33.0882C20.4744 33.0882 18.8865 31.5002 18.8865 29.5484C18.8865 27.5966 20.4745 26.0086 22.4263 26.0086ZM9.41135 29.5485C9.41135 31.5003 7.82327 33.0883 5.87146 33.0883C3.91958 33.0883 2.33164 31.5003 2.33164 29.5485C2.33164 27.5966 3.91965 26.0086 5.87146 26.0086C7.82334 26.0086 9.41135 27.5966 9.41135 29.5485ZM5.87146 12.536C3.91958 12.536 2.33164 10.9482 2.33164 8.99622C2.33164 7.04434 3.91965 5.4564 5.87146 5.4564C7.82334 5.4564 9.41135 7.04441 9.41135 8.99622C9.41135 10.948 7.82334 12.536 5.87146 12.536Z" fill="#042F2E"/>
</svg>
