<svg width="67" height="60" viewBox="0 0 67 60" fill="none" xmlns="http://www.w3.org/2000/svg">
<path opacity="0.65" d="M24.3636 39C23.7613 39 23.1725 39.1759 22.6717 39.5056C22.1708 39.8352 21.7805 40.3038 21.55 40.8519C21.3195 41.4001 21.2592 42.0033 21.3767 42.5853C21.4942 43.1672 21.7843 43.7018 22.2102 44.1213C22.6361 44.5409 23.1787 44.8266 23.7695 44.9424C24.3603 45.0581 24.9726 44.9987 25.5291 44.7716C26.0856 44.5446 26.5612 44.1601 26.8958 43.6667C27.2305 43.1734 27.4091 42.5933 27.4091 42C27.4091 41.2043 27.0882 40.4413 26.5171 39.8787C25.946 39.3161 25.1713 39 24.3636 39ZM3.04545 36C2.23775 36 1.46313 36.3161 0.891993 36.8787C0.320859 37.4413 0 38.2043 0 39V45C0 45.7957 0.320859 46.5587 0.891993 47.1213C1.46313 47.6839 2.23775 48 3.04545 48C3.85316 48 4.62778 47.6839 5.19892 47.1213C5.77005 46.5587 6.09091 45.7957 6.09091 45V39C6.09091 38.2043 5.77005 37.4413 5.19892 36.8787C4.62778 36.3161 3.85316 36 3.04545 36ZM63.9545 36C63.1468 36 62.3722 36.3161 61.8011 36.8787C61.2299 37.4413 60.9091 38.2043 60.9091 39V45C60.9091 45.7957 61.2299 46.5587 61.8011 47.1213C62.3722 47.6839 63.1468 48 63.9545 48C64.7623 48 65.5369 47.6839 66.108 47.1213C66.6791 46.5587 67 45.7957 67 45V39C67 38.2043 66.6791 37.4413 66.108 36.8787C65.5369 36.3161 64.7623 36 63.9545 36ZM48.7273 15H36.5455V11.16C37.466 10.6365 38.2315 9.88473 38.7657 8.97951C39.3 8.07428 39.5845 7.04708 39.5909 6C39.5909 4.4087 38.9492 2.88258 37.8069 1.75736C36.6647 0.632141 35.1154 0 33.5 0C31.8846 0 30.3353 0.632141 29.1931 1.75736C28.0508 2.88258 27.4091 4.4087 27.4091 6C27.4155 7.04708 27.7 8.07428 28.2343 8.97951C28.7685 9.88473 29.534 10.6365 30.4545 11.16V15H18.2727C15.8496 15 13.5257 15.9482 11.8123 17.636C10.0989 19.3239 9.13636 21.6131 9.13636 24V51C9.13636 53.3869 10.0989 55.6761 11.8123 57.364C13.5257 59.0518 15.8496 60 18.2727 60H48.7273C51.1504 60 53.4743 59.0518 55.1877 57.364C56.9011 55.6761 57.8636 53.3869 57.8636 51V24C57.8636 21.6131 56.9011 19.3239 55.1877 17.636C53.4743 15.9482 51.1504 15 48.7273 15ZM38.7382 21L37.2155 27H29.7845L28.2618 21H38.7382ZM51.7727 51C51.7727 51.7957 51.4519 52.5587 50.8807 53.1213C50.3096 53.6839 49.535 54 48.7273 54H18.2727C17.465 54 16.6904 53.6839 16.1193 53.1213C15.5481 52.5587 15.2273 51.7957 15.2273 51V24C15.2273 23.2044 15.5481 22.4413 16.1193 21.8787C16.6904 21.3161 17.465 21 18.2727 21H21.9882L24.3636 30.72C24.5304 31.3856 24.9235 31.9749 25.4776 32.3898C26.0318 32.8046 26.7134 33.02 27.4091 33H39.5909C40.2866 33.02 40.9682 32.8046 41.5224 32.3898C42.0765 31.9749 42.4696 31.3856 42.6364 30.72L45.0118 21H48.7273C49.535 21 50.3096 21.3161 50.8807 21.8787C51.4519 22.4413 51.7727 23.2044 51.7727 24V51ZM42.6364 39C42.034 39 41.4452 39.1759 40.9444 39.5056C40.4436 39.8352 40.0532 40.3038 39.8227 40.8519C39.5922 41.4001 39.5319 42.0033 39.6494 42.5853C39.7669 43.1672 40.057 43.7018 40.4829 44.1213C40.9088 44.5409 41.4515 44.8266 42.0422 44.9424C42.633 45.0581 43.2453 44.9987 43.8018 44.7716C44.3583 44.5446 44.8339 44.1601 45.1686 43.6667C45.5032 43.1734 45.6818 42.5933 45.6818 42C45.6818 41.2043 45.361 40.4413 44.7898 39.8787C44.2187 39.3161 43.4441 39 42.6364 39Z" fill="white"/>
</svg>
