<svg width="40" height="39" viewBox="0 0 40 39" fill="none" xmlns="http://www.w3.org/2000/svg">
<path d="M33.3 1C33.3 5.16842 25.13 12.3684 16.2 12.3684V23.7368C25.13 23.7368 33.3 30.5579 33.3 35.1053H37.1V21.2737C38.24 20.7053 39 19.3789 39 18.0526C39 16.7263 38.24 15.4 37.1 14.8316V1H33.3ZM6.7 12.3684C5.18 12.3684 3.85 13.3158 3.28 14.6421C1.95 15.2105 1 16.5368 1 18.0526C1 19.5684 1.95 20.8947 3.28 21.4632C3.85 22.7895 5.18 23.7368 6.7 23.7368H7.08L11.26 37L17.91 34.9158L14.3 23.7368V12.3684H6.7Z" stroke="#042F2E" stroke-width="2"/>
</svg>
