<svg width="67" height="66" viewBox="0 0 67 66" fill="none" xmlns="http://www.w3.org/2000/svg">
<path d="M32.5 34L47.5 19" stroke="#83C3C9" stroke-width="2" stroke-miterlimit="10" stroke-linecap="round" stroke-linejoin="round"/>
<path d="M65.5 10H56.5V1L47.5 10V19H56.5L65.5 10Z" stroke="#83C3C9" stroke-width="2" stroke-miterlimit="10" stroke-linecap="round" stroke-linejoin="round"/>
<path d="M33 48C41.0081 48 47.5 41.5081 47.5 33.5C47.5 25.4919 41.0081 19 33 19C24.9919 19 18.5 25.4919 18.5 33.5C18.5 41.5081 24.9919 48 33 48Z" stroke="#83C3C9" stroke-width="2" stroke-miterlimit="10" stroke-linecap="round" stroke-linejoin="round"/>
<path d="M58.7308 17.3077C61.8308 22.0769 63.5 27.8 63.5 34C63.5 51.1692 49.6692 65 32.5 65C15.3308 65 1.5 51.1692 1.5 34C1.5 16.8308 15.3308 3 32.5 3C38.7 3 44.4231 4.66923 49.1923 7.76923" stroke="#83C3C9" stroke-width="2" stroke-miterlimit="10" stroke-linecap="round" stroke-linejoin="round"/>
</svg>
