<svg width="40" height="40" viewBox="0 0 40 40" fill="none" xmlns="http://www.w3.org/2000/svg">
<path d="M37.5391 35.9531L4.0625 35.9375L4.07812 2.45312C4.07812 1.57031 3.35156 0.867188 2.47656 0.859375C1.59375 0.859375 0.875 1.57031 0.875 2.45312L0.859375 37.5312C0.859375 37.9531 1.03125 38.3594 1.32812 38.6562C1.60938 38.9375 1.97656 39.1016 2.375 39.1172C2.40625 39.1172 2.42969 39.1172 2.46094 39.1172L37.5391 39.1328C38.4219 39.1328 39.1406 38.4219 39.1406 37.5391C39.1406 36.6641 38.4219 35.9531 37.5391 35.9531Z" fill="#08A7B7"/>
<path d="M9.26552 31.3984L18.0702 24.0547L29.289 23.4453C29.8827 23.4141 30.4062 23.0547 30.6562 22.5234L34.6718 13.8906L35.5312 15.7734C36.164 17.0234 37.328 16.7031 37.6562 16.5625C38.4687 16.2188 38.8124 15.25 38.4452 14.4531L35.9608 9.03126C35.4218 7.91407 34.2343 8.01563 33.8202 8.25001L28.4843 10.7656C27.6874 11.1406 27.3437 12.0938 27.7187 12.8906C28.0937 13.6875 29.0546 14.0234 29.8515 13.6484L31.6483 12.7969L28.1562 20.3125L17.3593 20.8984C17.0155 20.9141 16.6874 21.0469 16.4218 21.2656L7.21084 28.9531C6.53115 29.5156 6.45302 30.5156 7.00771 31.2031C7.55459 31.8594 8.6249 31.9688 9.26552 31.3984Z" fill="#08A7B7"/>
</svg>
