<svg width="60" height="55" viewBox="0 0 60 55" fill="none" xmlns="http://www.w3.org/2000/svg">
<path fill-rule="evenodd" clip-rule="evenodd" d="M27.5 7.50098C27.5 6.12028 28.6192 5.00098 30 5.00098C31.3808 5.00098 32.5 6.12028 32.5 7.50098C32.5 8.88168 31.3808 10.001 30 10.001C28.6192 10.001 27.5 8.88168 27.5 7.50098ZM33.318 14.229C35.7957 13.0047 37.5 10.4518 37.5 7.50098C37.5 3.35885 34.1423 0.000976562 30 0.000976562C25.8577 0.000976562 22.5 3.35885 22.5 7.50098C22.5 10.4518 24.2042 13.0047 26.682 14.229L21.2654 28.6732L12.6646 22.9395C14.1031 21.573 15 19.6417 15 17.501C15 13.3589 11.6421 10.001 7.5 10.001C3.35788 10.001 0 13.3589 0 17.501C0 20.943 2.31864 23.8435 5.47923 24.7255L9.92305 42.501L8.35127 48.7882C7.56235 51.944 9.94915 55.001 13.202 55.001H46.798C50.051 55.001 52.4378 51.944 51.6488 48.7882L50.077 42.501L54.5208 24.7255C57.6813 23.8435 60 20.943 60 17.501C60 13.3589 56.6423 10.001 52.5 10.001C48.3577 10.001 45 13.3589 45 17.501C45 19.6417 45.897 21.573 47.3352 22.9395L38.7345 28.6732L33.318 14.229ZM52.499 20.001C52.4987 20.001 52.4992 20.001 52.499 20.001C53.8797 20.001 55 18.8817 55 17.501C55 16.1203 53.8807 15.001 52.5 15.001C51.1193 15.001 50 16.1203 50 17.501C50 18.8813 51.1187 20.0004 52.499 20.001ZM10 17.501C10 18.8813 8.8813 20.0004 7.5011 20.001C6.1204 20.001 5 18.8817 5 17.501C5 16.1203 6.1193 15.001 7.5 15.001C8.8807 15.001 10 16.1203 10 17.501ZM13.202 50.001L14.452 45.001H45.548L46.798 50.001H13.202ZM48.5062 28.168L45.548 40.001H14.452L11.4937 28.168L21.1133 34.5812C21.7481 35.0042 22.5413 35.1145 23.2674 34.8802C23.9935 34.646 24.573 34.0932 24.8408 33.3787L30 19.621L35.1592 33.3787C35.427 34.0932 36.0065 34.646 36.7325 34.8802C37.4587 35.1145 38.252 35.0042 38.8867 34.5812L48.5062 28.168Z" fill="white"/>
</svg>
