<svg width="36" height="40" viewBox="0 0 36 40" fill="none" xmlns="http://www.w3.org/2000/svg">
<path d="M36 30.7919V36.3168C35.9976 37.2932 35.5975 38.2289 34.8872 38.9194C34.1769 39.6098 33.2142 39.9987 32.2097 40.001H3.79026C2.78575 39.9987 1.82306 39.6098 1.11276 38.9194C0.402461 38.2289 0.00237007 37.2932 0 36.3168V30.7919C0.00710416 28.3516 1.00755 26.0133 2.78276 24.2877C4.55797 22.5622 6.96364 21.5897 9.47416 21.5828H26.5258C29.0364 21.5897 31.442 22.5622 33.2172 24.2877C34.9924 26.0133 35.9929 28.3516 36 30.7919ZM8.31943 9.40778C8.32002 7.54684 8.88828 5.72786 9.95235 4.18082C11.0164 2.63379 12.5285 1.42817 14.2975 0.716418C16.0664 0.00466494 18.0128 -0.181264 19.8904 0.182141C21.7681 0.545545 23.4927 1.44196 24.8463 2.75805C26.1998 4.07414 27.1215 5.75079 27.4948 7.57602C27.8681 9.40124 27.6762 11.2931 26.9434 13.0123C26.2106 14.7315 24.9698 16.201 23.3779 17.2348C21.786 18.2686 19.9145 18.8204 18 18.8204C15.4326 18.8204 12.9703 17.829 11.1548 16.0644C9.33934 14.2997 8.31943 11.9034 8.31943 9.40778Z" fill="white"/>
</svg>
