<svg width="50" height="50" viewBox="0 0 50 50" fill="none" xmlns="http://www.w3.org/2000/svg">
<path d="M25 12.1635C22.461 12.1635 19.979 12.9164 17.8679 14.327C15.7568 15.7376 14.1113 17.7425 13.1397 20.0883C12.1681 22.434 11.9138 25.0152 12.4092 27.5054C12.9045 29.9957 14.1272 32.2831 15.9225 34.0785C17.7179 35.8738 20.0053 37.0965 22.4955 37.5918C24.9858 38.0871 27.567 37.8329 29.9127 36.8613C32.2584 35.8896 34.2634 34.2442 35.674 32.1331C37.0846 30.022 37.8375 27.54 37.8375 25.001C37.8375 21.5963 36.485 18.331 34.0775 15.9235C31.67 13.516 28.4047 12.1635 25 12.1635ZM25 33.336C23.3515 33.336 21.74 32.8471 20.3693 31.9313C18.9986 31.0154 17.9303 29.7137 17.2995 28.1906C16.6686 26.6676 16.5035 24.9917 16.8252 23.3749C17.1468 21.7581 17.9406 20.2729 19.1063 19.1072C20.2719 17.9416 21.7571 17.1477 23.3739 16.8261C24.9908 16.5045 26.6666 16.6696 28.1897 17.3004C29.7127 17.9313 31.0144 18.9996 31.9303 20.3703C32.8462 21.741 33.335 23.3525 33.335 25.001C33.335 27.2116 32.4569 29.3316 30.8937 30.8947C29.3306 32.4578 27.2106 33.336 25 33.336ZM41.3475 11.656C41.3475 12.2493 41.1716 12.8293 40.8419 13.3227C40.5123 13.816 40.0437 14.2006 39.4955 14.4276C38.9474 14.6547 38.3442 14.7141 37.7622 14.5983C37.1803 14.4826 36.6457 14.1969 36.2262 13.7773C35.8066 13.3577 35.5209 12.8232 35.4051 12.2412C35.2894 11.6593 35.3488 11.0561 35.5759 10.5079C35.8029 9.95975 36.1874 9.49121 36.6808 9.16157C37.1741 8.83192 37.7542 8.65598 38.3475 8.65598C38.7415 8.65598 39.1316 8.73357 39.4955 8.88434C39.8595 9.0351 40.1902 9.25608 40.4688 9.53466C40.7474 9.81323 40.9684 10.1439 41.1191 10.5079C41.2699 10.8719 41.3475 11.262 41.3475 11.656ZM48.69 8.62598C48.061 6.95755 47.0766 5.44593 45.805 4.19598C44.5574 2.92447 43.0472 1.94073 41.38 1.31348C39.4371 0.585406 37.3845 0.193144 35.31 0.153477C32.645 0.0309768 31.7925 0.000976562 25 0.000976562C18.2075 0.000976562 17.3575 0.0284768 14.69 0.153477C12.6164 0.193814 10.5647 0.586059 8.6225 1.31348C6.95547 1.94116 5.44538 2.92485 4.1975 4.19598C2.92373 5.44413 1.93897 6.95627 1.3125 8.62598C0.585363 10.5683 0.193127 12.6199 0.1525 14.6935C0.0275003 17.3585 0 18.211 0 25.001C0 31.791 0.0275003 32.6435 0.1525 35.3085C0.193127 37.382 0.585363 39.4337 1.3125 41.376C1.93897 43.0457 2.92373 44.5578 4.1975 45.806C5.44687 47.0765 6.95762 48.06 8.625 48.6885C10.5674 49.4154 12.619 49.8076 14.6925 49.8485C17.36 49.971 18.2125 50.001 25 50.001C31.7875 50.001 32.6425 49.9735 35.3075 49.8485C37.3819 49.8081 39.4344 49.4158 41.3775 48.6885C43.0385 48.0462 44.547 47.064 45.8063 45.8047C47.0655 44.5455 48.0478 43.037 48.69 41.376C49.4184 39.434 49.8106 37.3822 49.85 35.3085C49.9725 32.641 50 31.791 50 25.001C50 18.211 49.9725 17.3585 49.85 14.6935C49.8097 12.6199 49.4174 10.5682 48.69 8.62598ZM45.3525 35.1035C45.3376 36.6901 45.0492 38.2623 44.5 39.751C44.0843 40.8308 43.4468 41.8115 42.6287 42.6297C41.8105 43.4478 40.8298 44.0853 39.75 44.501C38.2631 45.051 36.6928 45.3418 35.1075 45.361C32.4725 45.481 31.68 45.506 25.0025 45.506C18.325 45.506 17.5375 45.481 14.9025 45.361C13.3138 45.343 11.7401 45.0521 10.25 44.501C9.16404 44.1002 8.18165 43.4612 7.375 42.631C6.54425 41.8248 5.90519 40.8422 5.505 39.756C4.95251 38.2697 4.66154 36.699 4.645 35.1135C4.53 32.4685 4.5 31.6785 4.5 25.001C4.5 18.3235 4.525 17.536 4.645 14.8985C4.66626 13.3111 4.95968 11.7391 5.5125 10.251C5.9133 9.16501 6.55228 8.18263 7.3825 7.37598C8.18495 6.54303 9.16517 5.90208 10.25 5.50098C11.7392 4.95104 13.3125 4.66345 14.9 4.65098C17.535 4.52848 18.3275 4.50098 25 4.50098C31.6725 4.50098 32.4675 4.52848 35.105 4.64848C36.6907 4.66522 38.2617 4.95356 39.75 5.50098C40.8298 5.91663 41.8105 6.55413 42.6287 7.3723C43.4468 8.19048 44.0843 9.17114 44.5 10.251C45.0525 11.7372 45.3435 13.3079 45.36 14.8935C45.475 17.536 45.5 18.326 45.5 25.001C45.5 31.676 45.475 32.466 45.3525 35.1035Z" fill="white"/>
</svg>
