<svg width="53" height="34" viewBox="0 0 53 34" fill="none" xmlns="http://www.w3.org/2000/svg">
<path d="M33.75 0.000976562V3.75098H46.0986L30 19.8495L21.9506 11.8004C21.7766 11.6262 21.5699 11.488 21.3425 11.3937C21.115 11.2994 20.8712 11.2509 20.625 11.2509C20.3788 11.2509 20.135 11.2994 19.9075 11.3937C19.6801 11.488 19.4734 11.6262 19.2994 11.8004L0 31.0995L2.65144 33.751L20.625 15.7774L28.6744 23.8266C28.8484 24.0008 29.055 24.139 29.2825 24.2332C29.51 24.3275 29.7538 24.376 30 24.376C30.2462 24.376 30.49 24.3275 30.7175 24.2332C30.945 24.139 31.1516 24.0008 31.3256 23.8266L48.75 6.40241V18.751H52.5V0.000976562H33.75Z" fill="white"/>
</svg>
